%TF.GenerationSoftware,KiCad,Pcbnew,7.0.9*%
%TF.CreationDate,2024-05-10T15:51:33-04:00*%
%TF.ProjectId,panel,70616e65-6c2e-46b6-9963-61645f706362,rev?*%
%TF.SameCoordinates,Original*%
%TF.FileFunction,Soldermask,Bot*%
%TF.FilePolarity,Negative*%
%FSLAX46Y46*%
G04 Gerber Fmt 4.6, Leading zero omitted, Abs format (unit mm)*
G04 Created by KiCad (PCBNEW 7.0.9) date 2024-05-10 15:51:33*
%MOMM*%
%LPD*%
G01*
G04 APERTURE LIST*
G04 Aperture macros list*
%AMRoundRect*
0 Rectangle with rounded corners*
0 $1 Rounding radius*
0 $2 $3 $4 $5 $6 $7 $8 $9 X,Y pos of 4 corners*
0 Add a 4 corners polygon primitive as box body*
4,1,4,$2,$3,$4,$5,$6,$7,$8,$9,$2,$3,0*
0 Add four circle primitives for the rounded corners*
1,1,$1+$1,$2,$3*
1,1,$1+$1,$4,$5*
1,1,$1+$1,$6,$7*
1,1,$1+$1,$8,$9*
0 Add four rect primitives between the rounded corners*
20,1,$1+$1,$2,$3,$4,$5,0*
20,1,$1+$1,$4,$5,$6,$7,0*
20,1,$1+$1,$6,$7,$8,$9,0*
20,1,$1+$1,$8,$9,$2,$3,0*%
G04 Aperture macros list end*
%ADD10R,2.000000X2.000000*%
%ADD11C,0.200000*%
%ADD12R,3.500000X1.700000*%
%ADD13C,1.700000*%
%ADD14O,1.700000X1.700000*%
%ADD15R,1.700000X1.700000*%
%ADD16C,0.650000*%
%ADD17O,1.000000X2.100000*%
%ADD18O,1.000000X1.600000*%
%ADD19RoundRect,0.425000X0.425000X-0.425000X0.425000X0.425000X-0.425000X0.425000X-0.425000X-0.425000X0*%
G04 APERTURE END LIST*
D10*
%TO.C,TP1*%
X147290000Y-26380000D03*
%TD*%
%TO.C,TP2*%
X173290000Y-80380000D03*
%TD*%
%TO.C,TP1*%
X170790000Y-26380000D03*
%TD*%
%TO.C,TP3*%
X145810000Y-91710000D03*
%TD*%
%TO.C,TP2*%
X149790000Y-26380000D03*
%TD*%
%TO.C,TP3*%
X122310000Y-37710000D03*
%TD*%
%TO.C,TP2*%
X126290000Y-26380000D03*
%TD*%
%TO.C,TP2*%
X126290000Y-80380000D03*
%TD*%
%TO.C,TP3*%
X145810000Y-37710000D03*
%TD*%
%TO.C,TP1*%
X123790000Y-26380000D03*
%TD*%
%TO.C,TP1*%
X170790000Y-80380000D03*
%TD*%
%TO.C,TP3*%
X169310000Y-91710000D03*
%TD*%
%TO.C,TP1*%
X123790000Y-80380000D03*
%TD*%
%TO.C,TP2*%
X149790000Y-80380000D03*
%TD*%
%TO.C,TP1*%
X147290000Y-80380000D03*
%TD*%
%TO.C,TP3*%
X169310000Y-37710000D03*
%TD*%
%TO.C,TP3*%
X122310000Y-91710000D03*
%TD*%
%TO.C,TP2*%
X173290000Y-26380000D03*
%TD*%
D11*
%TO.C,KiKit_MB_10_5*%
X138000000Y-58785714D03*
%TD*%
%TO.C,KiKit_MB_3_5*%
X135500000Y-42214286D03*
%TD*%
%TO.C,KiKit_MB_29_5*%
X121714286Y-79000000D03*
%TD*%
%TO.C,KiKit_MB_58_6*%
X112083334Y-130000000D03*
%TD*%
%TO.C,KiKit_MB_35_8*%
X159000000Y-97500000D03*
%TD*%
%TO.C,KiKit_MB_25_1*%
X114500000Y-97500000D03*
%TD*%
%TO.C,KiKit_MB_30_8*%
X130000000Y-79000000D03*
%TD*%
%TO.C,KiKit_MB_14_7*%
X153071428Y-25000000D03*
%TD*%
%TO.C,KiKit_MB_35_4*%
X159000000Y-95785714D03*
%TD*%
%TO.C,KiKit_MB_43_7*%
X182500000Y-97071428D03*
%TD*%
%TO.C,KiKit_MB_31_7*%
X120428572Y-130000000D03*
%TD*%
%TO.C,KiKit_MB_9_2*%
X138000000Y-43071429D03*
%TD*%
%TO.C,KiKit_MB_28_3*%
X135500000Y-112357142D03*
%TD*%
%TO.C,KiKit_MB_32_4*%
X128714285Y-130000000D03*
%TD*%
%TO.C,KiKit_MB_16_8*%
X150500000Y-76000000D03*
%TD*%
%TO.C,KiKit_MB_41_3*%
X161500000Y-96642857D03*
%TD*%
%TO.C,KiKit_MB_5_1*%
X120000000Y-25000000D03*
%TD*%
D12*
%TO.C,J1*%
X137970000Y-26490000D03*
D13*
X139670000Y-26490000D03*
D12*
X137970000Y-29030000D03*
D14*
X139670000Y-29030000D03*
D12*
X137970000Y-31570000D03*
D15*
X139670000Y-31570000D03*
D12*
X137970000Y-34110000D03*
D14*
X139670000Y-34110000D03*
D12*
X137970000Y-36650000D03*
D14*
X139670000Y-36650000D03*
D12*
X137970000Y-39190000D03*
D14*
X139670000Y-39190000D03*
D12*
X137960000Y-41730000D03*
D14*
X139670000Y-41730000D03*
D12*
X137970000Y-44270000D03*
D15*
X139670000Y-44270000D03*
D12*
X137970000Y-46810000D03*
D14*
X139670000Y-46810000D03*
D12*
X137970000Y-49350000D03*
D14*
X139670000Y-49350000D03*
D12*
X137970000Y-51890000D03*
D14*
X139670000Y-51890000D03*
D12*
X137980000Y-54430000D03*
D14*
X139670000Y-54430000D03*
D12*
X137970000Y-56970000D03*
D15*
X139670000Y-56970000D03*
D12*
X137970000Y-59510000D03*
D14*
X139670000Y-59510000D03*
D12*
X137970000Y-62050000D03*
D14*
X139670000Y-62050000D03*
D12*
X137970000Y-64590000D03*
D14*
X139670000Y-64590000D03*
D12*
X137970000Y-67140000D03*
D14*
X139670000Y-67130000D03*
D12*
X137970000Y-69670000D03*
D15*
X139670000Y-69670000D03*
D12*
X137970000Y-72220000D03*
D14*
X139670000Y-72210000D03*
D12*
X137970000Y-74750000D03*
D14*
X139670000Y-74750000D03*
%TD*%
D11*
%TO.C,KiKit_MB_17_7*%
X161500000Y-40928572D03*
%TD*%
%TO.C,KiKit_MB_26_1*%
X114500000Y-114500000D03*
%TD*%
%TO.C,KiKit_MB_7_5*%
X121285715Y-76000000D03*
%TD*%
%TO.C,KiKit_MB_10_1*%
X138000000Y-60500000D03*
%TD*%
%TO.C,KiKit_MB_13_7*%
X146071428Y-25000000D03*
%TD*%
%TO.C,KiKit_MB_49_4*%
X136750000Y-77300000D03*
%TD*%
%TO.C,KiKit_MB_39_7*%
X143928571Y-130000000D03*
%TD*%
%TO.C,KiKit_MB_41_8*%
X161500000Y-94500000D03*
%TD*%
%TO.C,KiKit_MB_39_5*%
X144785714Y-130000000D03*
%TD*%
%TO.C,KiKit_MB_44_4*%
X182500000Y-112785714D03*
%TD*%
%TO.C,KiKit_MB_54_7*%
X182500000Y-22500000D03*
%TD*%
%TO.C,KiKit_MB_32_5*%
X128285714Y-130000000D03*
%TD*%
%TO.C,KiKit_MB_2_2*%
X114500000Y-60071428D03*
%TD*%
%TO.C,KiKit_MB_16_1*%
X153500000Y-76000000D03*
%TD*%
%TO.C,KiKit_MB_3_3*%
X135500000Y-41357143D03*
%TD*%
%TO.C,KiKit_MB_4_3*%
X135500000Y-58357142D03*
%TD*%
D13*
%TO.C,J2*%
X180840000Y-80460000D03*
D12*
X182540000Y-80460000D03*
D14*
X180840000Y-83000000D03*
D12*
X182540000Y-83000000D03*
D15*
X180840000Y-85540000D03*
D12*
X182540000Y-85540000D03*
D14*
X180840000Y-88080000D03*
D12*
X182540000Y-88080000D03*
D14*
X180840000Y-90620000D03*
D12*
X182540000Y-90620000D03*
D14*
X180840000Y-93160000D03*
D12*
X182540000Y-93160000D03*
D14*
X180840000Y-95700000D03*
D12*
X182550000Y-95700000D03*
D15*
X180840000Y-98240000D03*
D12*
X182540000Y-98240000D03*
D14*
X180840000Y-100780000D03*
D12*
X182540000Y-100780000D03*
D14*
X180840000Y-103320000D03*
D12*
X182540000Y-103320000D03*
D14*
X180840000Y-105860000D03*
D12*
X182540000Y-105860000D03*
D14*
X180840000Y-108400000D03*
D12*
X182530000Y-108400000D03*
D15*
X180840000Y-110940000D03*
D12*
X182540000Y-110940000D03*
D14*
X180840000Y-113480000D03*
D12*
X182540000Y-113480000D03*
D14*
X180840000Y-116020000D03*
D12*
X182540000Y-116020000D03*
D14*
X180840000Y-118560000D03*
D12*
X182540000Y-118560000D03*
D14*
X180840000Y-121100000D03*
D12*
X182540000Y-121110000D03*
D15*
X180840000Y-123640000D03*
D12*
X182540000Y-123640000D03*
D14*
X180840000Y-126180000D03*
D12*
X182540000Y-126190000D03*
D14*
X180840000Y-128720000D03*
D12*
X182540000Y-128720000D03*
%TD*%
D11*
%TO.C,KiKit_MB_10_7*%
X138000000Y-57928571D03*
%TD*%
%TO.C,KiKit_MB_5_8*%
X123000000Y-25000000D03*
%TD*%
%TO.C,KiKit_MB_44_6*%
X182500000Y-113642857D03*
%TD*%
%TO.C,KiKit_MB_21_8*%
X170000000Y-25000000D03*
%TD*%
%TO.C,KiKit_MB_13_4*%
X144785714Y-25000000D03*
%TD*%
%TO.C,KiKit_MB_59_5*%
X186166666Y-25000000D03*
%TD*%
%TO.C,KiKit_MB_22_5*%
X175714285Y-25000000D03*
%TD*%
%TO.C,KiKit_MB_21_5*%
X168714285Y-25000000D03*
%TD*%
D13*
%TO.C,J2*%
X133840000Y-80460000D03*
D12*
X135540000Y-80460000D03*
D14*
X133840000Y-83000000D03*
D12*
X135540000Y-83000000D03*
D15*
X133840000Y-85540000D03*
D12*
X135540000Y-85540000D03*
D14*
X133840000Y-88080000D03*
D12*
X135540000Y-88080000D03*
D14*
X133840000Y-90620000D03*
D12*
X135540000Y-90620000D03*
D14*
X133840000Y-93160000D03*
D12*
X135540000Y-93160000D03*
D14*
X133840000Y-95700000D03*
D12*
X135550000Y-95700000D03*
D15*
X133840000Y-98240000D03*
D12*
X135540000Y-98240000D03*
D14*
X133840000Y-100780000D03*
D12*
X135540000Y-100780000D03*
D14*
X133840000Y-103320000D03*
D12*
X135540000Y-103320000D03*
D14*
X133840000Y-105860000D03*
D12*
X135540000Y-105860000D03*
D14*
X133840000Y-108400000D03*
D12*
X135530000Y-108400000D03*
D15*
X133840000Y-110940000D03*
D12*
X135540000Y-110940000D03*
D14*
X133840000Y-113480000D03*
D12*
X135540000Y-113480000D03*
D14*
X133840000Y-116020000D03*
D12*
X135540000Y-116020000D03*
D14*
X133840000Y-118560000D03*
D12*
X135540000Y-118560000D03*
D14*
X133840000Y-121100000D03*
D12*
X135540000Y-121110000D03*
D15*
X133840000Y-123640000D03*
D12*
X135540000Y-123640000D03*
D14*
X133840000Y-126180000D03*
D12*
X135540000Y-126190000D03*
D14*
X133840000Y-128720000D03*
D12*
X135540000Y-128720000D03*
%TD*%
D11*
%TO.C,KiKit_MB_39_8*%
X143500000Y-130000000D03*
%TD*%
%TO.C,KiKit_MB_20_5*%
X182500000Y-59214285D03*
%TD*%
%TO.C,KiKit_MB_26_7*%
X114500000Y-111928571D03*
%TD*%
%TO.C,KiKit_MB_20_8*%
X182500000Y-60500000D03*
%TD*%
%TO.C,KiKit_MB_45_8*%
X170000000Y-79000000D03*
%TD*%
%TO.C,KiKit_MB_6_5*%
X128714285Y-25000000D03*
%TD*%
%TO.C,KiKit_MB_1_8*%
X114500000Y-40500000D03*
%TD*%
%TO.C,KiKit_MB_57_7*%
X112500000Y-25000000D03*
%TD*%
D16*
%TO.C,J4*%
X174850000Y-85350000D03*
X169070000Y-85350000D03*
D17*
X176280000Y-85880000D03*
D18*
X176280000Y-81700000D03*
D17*
X167640000Y-85880000D03*
D18*
X167640000Y-81700000D03*
%TD*%
D11*
%TO.C,KiKit_MB_21_2*%
X167428571Y-25000000D03*
%TD*%
%TO.C,KiKit_MB_20_2*%
X182500000Y-57928571D03*
%TD*%
%TO.C,KiKit_MB_15_8*%
X143500000Y-76000000D03*
%TD*%
%TO.C,KiKit_MB_46_6*%
X176142857Y-79000000D03*
%TD*%
%TO.C,KiKit_MB_34_3*%
X138000000Y-113642857D03*
%TD*%
%TO.C,KiKit_MB_23_2*%
X169571428Y-76000000D03*
%TD*%
%TO.C,KiKit_MB_45_1*%
X167000000Y-79000000D03*
%TD*%
%TO.C,KiKit_MB_8_3*%
X129142857Y-76000000D03*
%TD*%
%TO.C,KiKit_MB_30_3*%
X127857142Y-79000000D03*
%TD*%
%TO.C,KiKit_MB_7_7*%
X120428572Y-76000000D03*
%TD*%
%TO.C,KiKit_MB_18_2*%
X161500000Y-60071428D03*
%TD*%
%TO.C,KiKit_MB_58_7*%
X112500000Y-130000000D03*
%TD*%
%TO.C,KiKit_MB_40_7*%
X150928571Y-130000000D03*
%TD*%
%TO.C,KiKit_MB_3_4*%
X135500000Y-41785715D03*
%TD*%
%TO.C,KiKit_MB_34_2*%
X138000000Y-114071428D03*
%TD*%
%TO.C,KiKit_MB_26_2*%
X114500000Y-114071428D03*
%TD*%
%TO.C,KiKit_MB_49_2*%
X136750000Y-78100000D03*
%TD*%
%TO.C,KiKit_MB_2_7*%
X114500000Y-57928571D03*
%TD*%
%TO.C,KiKit_MB_19_7*%
X182500000Y-43071429D03*
%TD*%
%TO.C,KiKit_MB_30_6*%
X129142857Y-79000000D03*
%TD*%
%TO.C,KiKit_MB_49_6*%
X136750000Y-76500000D03*
%TD*%
%TO.C,KiKit_MB_11_5*%
X159000000Y-42214286D03*
%TD*%
%TO.C,KiKit_MB_48_4*%
X175714285Y-130000000D03*
%TD*%
%TO.C,KiKit_MB_30_7*%
X129571428Y-79000000D03*
%TD*%
%TO.C,KiKit_MB_38_5*%
X152214285Y-79000000D03*
%TD*%
%TO.C,KiKit_MB_37_4*%
X144785714Y-79000000D03*
%TD*%
%TO.C,KiKit_MB_19_2*%
X182500000Y-40928572D03*
%TD*%
%TO.C,KiKit_MB_26_5*%
X114500000Y-112785714D03*
%TD*%
%TO.C,KiKit_MB_46_7*%
X176571428Y-79000000D03*
%TD*%
%TO.C,KiKit_MB_31_5*%
X121285715Y-130000000D03*
%TD*%
D13*
%TO.C,J2*%
X133840000Y-26460000D03*
D12*
X135540000Y-26460000D03*
D14*
X133840000Y-29000000D03*
D12*
X135540000Y-29000000D03*
D15*
X133840000Y-31540000D03*
D12*
X135540000Y-31540000D03*
D14*
X133840000Y-34080000D03*
D12*
X135540000Y-34080000D03*
D14*
X133840000Y-36620000D03*
D12*
X135540000Y-36620000D03*
D14*
X133840000Y-39160000D03*
D12*
X135540000Y-39160000D03*
D14*
X133840000Y-41700000D03*
D12*
X135550000Y-41700000D03*
D15*
X133840000Y-44240000D03*
D12*
X135540000Y-44240000D03*
D14*
X133840000Y-46780000D03*
D12*
X135540000Y-46780000D03*
D14*
X133840000Y-49320000D03*
D12*
X135540000Y-49320000D03*
D14*
X133840000Y-51860000D03*
D12*
X135540000Y-51860000D03*
D14*
X133840000Y-54400000D03*
D12*
X135530000Y-54400000D03*
D15*
X133840000Y-56940000D03*
D12*
X135540000Y-56940000D03*
D14*
X133840000Y-59480000D03*
D12*
X135540000Y-59480000D03*
D14*
X133840000Y-62020000D03*
D12*
X135540000Y-62020000D03*
D14*
X133840000Y-64560000D03*
D12*
X135540000Y-64560000D03*
D14*
X133840000Y-67100000D03*
D12*
X135540000Y-67110000D03*
D15*
X133840000Y-69640000D03*
D12*
X135540000Y-69640000D03*
D14*
X133840000Y-72180000D03*
D12*
X135540000Y-72190000D03*
D14*
X133840000Y-74720000D03*
D12*
X135540000Y-74720000D03*
%TD*%
D11*
%TO.C,KiKit_MB_49_3*%
X136750000Y-77700000D03*
%TD*%
%TO.C,KiKit_MB_38_8*%
X153500000Y-79000000D03*
%TD*%
%TO.C,KiKit_MB_13_8*%
X146500000Y-25000000D03*
%TD*%
%TO.C,KiKit_MB_35_6*%
X159000000Y-96642857D03*
%TD*%
%TO.C,KiKit_MB_12_6*%
X159000000Y-59642857D03*
%TD*%
%TO.C,KiKit_MB_2_1*%
X114500000Y-60500000D03*
%TD*%
%TO.C,KiKit_MB_59_7*%
X187000000Y-25000000D03*
%TD*%
%TO.C,KiKit_MB_60_5*%
X186166666Y-130000000D03*
%TD*%
%TO.C,KiKit_MB_25_5*%
X114500000Y-95785714D03*
%TD*%
%TO.C,KiKit_MB_18_7*%
X161500000Y-57928571D03*
%TD*%
%TO.C,KiKit_MB_51_6*%
X114500000Y-78500000D03*
%TD*%
%TO.C,KiKit_MB_18_6*%
X161500000Y-58357142D03*
%TD*%
%TO.C,KiKit_MB_55_6*%
X114500000Y-134583333D03*
%TD*%
%TO.C,KiKit_MB_23_8*%
X167000000Y-76000000D03*
%TD*%
%TO.C,KiKit_MB_29_1*%
X120000000Y-79000000D03*
%TD*%
%TO.C,KiKit_MB_25_3*%
X114500000Y-96642857D03*
%TD*%
%TO.C,KiKit_MB_30_1*%
X127000000Y-79000000D03*
%TD*%
%TO.C,KiKit_MB_13_1*%
X143500000Y-25000000D03*
%TD*%
%TO.C,KiKit_MB_27_5*%
X135500000Y-96214285D03*
%TD*%
D12*
%TO.C,J1*%
X137970000Y-80490000D03*
D13*
X139670000Y-80490000D03*
D12*
X137970000Y-83030000D03*
D14*
X139670000Y-83030000D03*
D12*
X137970000Y-85570000D03*
D15*
X139670000Y-85570000D03*
D12*
X137970000Y-88110000D03*
D14*
X139670000Y-88110000D03*
D12*
X137970000Y-90650000D03*
D14*
X139670000Y-90650000D03*
D12*
X137970000Y-93190000D03*
D14*
X139670000Y-93190000D03*
D12*
X137960000Y-95730000D03*
D14*
X139670000Y-95730000D03*
D12*
X137970000Y-98270000D03*
D15*
X139670000Y-98270000D03*
D12*
X137970000Y-100810000D03*
D14*
X139670000Y-100810000D03*
D12*
X137970000Y-103350000D03*
D14*
X139670000Y-103350000D03*
D12*
X137970000Y-105890000D03*
D14*
X139670000Y-105890000D03*
D12*
X137980000Y-108430000D03*
D14*
X139670000Y-108430000D03*
D12*
X137970000Y-110970000D03*
D15*
X139670000Y-110970000D03*
D12*
X137970000Y-113510000D03*
D14*
X139670000Y-113510000D03*
D12*
X137970000Y-116050000D03*
D14*
X139670000Y-116050000D03*
D12*
X137970000Y-118590000D03*
D14*
X139670000Y-118590000D03*
D12*
X137970000Y-121140000D03*
D14*
X139670000Y-121130000D03*
D12*
X137970000Y-123670000D03*
D15*
X139670000Y-123670000D03*
D12*
X137970000Y-126220000D03*
D14*
X139670000Y-126210000D03*
D12*
X137970000Y-128750000D03*
D14*
X139670000Y-128750000D03*
%TD*%
D11*
%TO.C,KiKit_MB_32_2*%
X129571428Y-130000000D03*
%TD*%
%TO.C,KiKit_MB_45_3*%
X167857142Y-79000000D03*
%TD*%
%TO.C,KiKit_MB_33_2*%
X138000000Y-97071428D03*
%TD*%
%TO.C,KiKit_MB_3_6*%
X135500000Y-42642858D03*
%TD*%
%TO.C,KiKit_MB_34_5*%
X138000000Y-112785714D03*
%TD*%
%TO.C,KiKit_MB_33_4*%
X138000000Y-96214285D03*
%TD*%
D13*
%TO.C,J2*%
X157340000Y-26460000D03*
D12*
X159040000Y-26460000D03*
D14*
X157340000Y-29000000D03*
D12*
X159040000Y-29000000D03*
D15*
X157340000Y-31540000D03*
D12*
X159040000Y-31540000D03*
D14*
X157340000Y-34080000D03*
D12*
X159040000Y-34080000D03*
D14*
X157340000Y-36620000D03*
D12*
X159040000Y-36620000D03*
D14*
X157340000Y-39160000D03*
D12*
X159040000Y-39160000D03*
D14*
X157340000Y-41700000D03*
D12*
X159050000Y-41700000D03*
D15*
X157340000Y-44240000D03*
D12*
X159040000Y-44240000D03*
D14*
X157340000Y-46780000D03*
D12*
X159040000Y-46780000D03*
D14*
X157340000Y-49320000D03*
D12*
X159040000Y-49320000D03*
D14*
X157340000Y-51860000D03*
D12*
X159040000Y-51860000D03*
D14*
X157340000Y-54400000D03*
D12*
X159030000Y-54400000D03*
D15*
X157340000Y-56940000D03*
D12*
X159040000Y-56940000D03*
D14*
X157340000Y-59480000D03*
D12*
X159040000Y-59480000D03*
D14*
X157340000Y-62020000D03*
D12*
X159040000Y-62020000D03*
D14*
X157340000Y-64560000D03*
D12*
X159040000Y-64560000D03*
D14*
X157340000Y-67100000D03*
D12*
X159040000Y-67110000D03*
D15*
X157340000Y-69640000D03*
D12*
X159040000Y-69640000D03*
D14*
X157340000Y-72180000D03*
D12*
X159040000Y-72190000D03*
D14*
X157340000Y-74720000D03*
D12*
X159040000Y-74720000D03*
%TD*%
D11*
%TO.C,KiKit_MB_11_2*%
X159000000Y-40928572D03*
%TD*%
%TO.C,KiKit_MB_28_7*%
X135500000Y-114071428D03*
%TD*%
%TO.C,KiKit_MB_22_2*%
X174428571Y-25000000D03*
%TD*%
%TO.C,KiKit_MB_6_1*%
X127000000Y-25000000D03*
%TD*%
%TO.C,KiKit_MB_15_5*%
X144785714Y-76000000D03*
%TD*%
%TO.C,KiKit_MB_48_8*%
X174000000Y-130000000D03*
%TD*%
%TO.C,KiKit_MB_26_4*%
X114500000Y-113214285D03*
%TD*%
%TO.C,KiKit_MB_33_3*%
X138000000Y-96642857D03*
%TD*%
%TO.C,KiKit_MB_34_7*%
X138000000Y-111928571D03*
%TD*%
%TO.C,KiKit_MB_35_1*%
X159000000Y-94500000D03*
%TD*%
%TO.C,KiKit_MB_36_2*%
X159000000Y-111928571D03*
%TD*%
%TO.C,KiKit_MB_32_8*%
X127000000Y-130000000D03*
%TD*%
%TO.C,KiKit_MB_47_1*%
X170000000Y-130000000D03*
%TD*%
%TO.C,KiKit_MB_44_3*%
X182500000Y-112357142D03*
%TD*%
%TO.C,KiKit_MB_32_3*%
X129142857Y-130000000D03*
%TD*%
%TO.C,KiKit_MB_37_2*%
X143928571Y-79000000D03*
%TD*%
%TO.C,KiKit_MB_15_4*%
X145214285Y-76000000D03*
%TD*%
%TO.C,KiKit_MB_33_7*%
X138000000Y-94928571D03*
%TD*%
%TO.C,KiKit_MB_40_1*%
X153500000Y-130000000D03*
%TD*%
%TO.C,KiKit_MB_36_1*%
X159000000Y-111500000D03*
%TD*%
%TO.C,KiKit_MB_58_5*%
X111666667Y-130000000D03*
%TD*%
%TO.C,KiKit_MB_29_4*%
X121285715Y-79000000D03*
%TD*%
%TO.C,KiKit_MB_55_5*%
X114500000Y-134166666D03*
%TD*%
%TO.C,KiKit_MB_40_3*%
X152642857Y-130000000D03*
%TD*%
%TO.C,KiKit_MB_42_8*%
X161500000Y-111500000D03*
%TD*%
%TO.C,KiKit_MB_32_1*%
X130000000Y-130000000D03*
%TD*%
%TO.C,KiKit_MB_8_1*%
X130000000Y-76000000D03*
%TD*%
%TO.C,KiKit_MB_3_8*%
X135500000Y-43500000D03*
%TD*%
%TO.C,KiKit_MB_42_2*%
X161500000Y-114071428D03*
%TD*%
%TO.C,KiKit_MB_55_7*%
X114500000Y-135000000D03*
%TD*%
%TO.C,KiKit_MB_60_3*%
X185333333Y-130000000D03*
%TD*%
%TO.C,KiKit_MB_52_6*%
X182500000Y-78500000D03*
%TD*%
%TO.C,KiKit_MB_5_2*%
X120428572Y-25000000D03*
%TD*%
%TO.C,KiKit_MB_47_3*%
X169142857Y-130000000D03*
%TD*%
%TO.C,KiKit_MB_19_4*%
X182500000Y-41785715D03*
%TD*%
%TO.C,KiKit_MB_9_8*%
X138000000Y-40500000D03*
%TD*%
%TO.C,KiKit_MB_40_2*%
X153071428Y-130000000D03*
%TD*%
%TO.C,KiKit_MB_54_1*%
X182500000Y-20000000D03*
%TD*%
%TO.C,KiKit_MB_48_7*%
X174428571Y-130000000D03*
%TD*%
%TO.C,KiKit_MB_1_7*%
X114500000Y-40928572D03*
%TD*%
%TO.C,KiKit_MB_38_2*%
X150928571Y-79000000D03*
%TD*%
%TO.C,KiKit_MB_48_3*%
X176142857Y-130000000D03*
%TD*%
%TO.C,KiKit_MB_48_6*%
X174857142Y-130000000D03*
%TD*%
%TO.C,KiKit_MB_2_5*%
X114500000Y-58785714D03*
%TD*%
%TO.C,KiKit_MB_5_3*%
X120857143Y-25000000D03*
%TD*%
%TO.C,KiKit_MB_1_3*%
X114500000Y-42642858D03*
%TD*%
%TO.C,KiKit_MB_22_7*%
X176571428Y-25000000D03*
%TD*%
%TO.C,KiKit_MB_17_5*%
X161500000Y-41785715D03*
%TD*%
%TO.C,KiKit_MB_40_6*%
X151357142Y-130000000D03*
%TD*%
%TO.C,KiKit_MB_42_3*%
X161500000Y-113642857D03*
%TD*%
%TO.C,KiKit_MB_42_6*%
X161500000Y-112357142D03*
%TD*%
%TO.C,KiKit_MB_44_7*%
X182500000Y-114071428D03*
%TD*%
%TO.C,KiKit_MB_28_8*%
X135500000Y-114500000D03*
%TD*%
%TO.C,KiKit_MB_4_2*%
X135500000Y-57928571D03*
%TD*%
%TO.C,KiKit_MB_46_4*%
X175285714Y-79000000D03*
%TD*%
%TO.C,KiKit_MB_46_8*%
X177000000Y-79000000D03*
%TD*%
D12*
%TO.C,J1*%
X114470000Y-26490000D03*
D13*
X116170000Y-26490000D03*
D12*
X114470000Y-29030000D03*
D14*
X116170000Y-29030000D03*
D12*
X114470000Y-31570000D03*
D15*
X116170000Y-31570000D03*
D12*
X114470000Y-34110000D03*
D14*
X116170000Y-34110000D03*
D12*
X114470000Y-36650000D03*
D14*
X116170000Y-36650000D03*
D12*
X114470000Y-39190000D03*
D14*
X116170000Y-39190000D03*
D12*
X114460000Y-41730000D03*
D14*
X116170000Y-41730000D03*
D12*
X114470000Y-44270000D03*
D15*
X116170000Y-44270000D03*
D12*
X114470000Y-46810000D03*
D14*
X116170000Y-46810000D03*
D12*
X114470000Y-49350000D03*
D14*
X116170000Y-49350000D03*
D12*
X114470000Y-51890000D03*
D14*
X116170000Y-51890000D03*
D12*
X114480000Y-54430000D03*
D14*
X116170000Y-54430000D03*
D12*
X114470000Y-56970000D03*
D15*
X116170000Y-56970000D03*
D12*
X114470000Y-59510000D03*
D14*
X116170000Y-59510000D03*
D12*
X114470000Y-62050000D03*
D14*
X116170000Y-62050000D03*
D12*
X114470000Y-64590000D03*
D14*
X116170000Y-64590000D03*
D12*
X114470000Y-67140000D03*
D14*
X116170000Y-67130000D03*
D12*
X114470000Y-69670000D03*
D15*
X116170000Y-69670000D03*
D12*
X114470000Y-72220000D03*
D14*
X116170000Y-72210000D03*
D12*
X114470000Y-74750000D03*
D14*
X116170000Y-74750000D03*
%TD*%
D11*
%TO.C,KiKit_MB_47_4*%
X168714285Y-130000000D03*
%TD*%
D16*
%TO.C,J4*%
X127850000Y-31350000D03*
X122070000Y-31350000D03*
D17*
X129280000Y-31880000D03*
D18*
X129280000Y-27700000D03*
D17*
X120640000Y-31880000D03*
D18*
X120640000Y-27700000D03*
%TD*%
D11*
%TO.C,KiKit_MB_1_4*%
X114500000Y-42214286D03*
%TD*%
%TO.C,KiKit_MB_28_4*%
X135500000Y-112785714D03*
%TD*%
%TO.C,KiKit_MB_17_6*%
X161500000Y-41357143D03*
%TD*%
%TO.C,KiKit_MB_8_2*%
X129571428Y-76000000D03*
%TD*%
%TO.C,KiKit_MB_10_8*%
X138000000Y-57500000D03*
%TD*%
%TO.C,KiKit_MB_42_4*%
X161500000Y-113214285D03*
%TD*%
%TO.C,KiKit_MB_4_7*%
X135500000Y-60071428D03*
%TD*%
D12*
%TO.C,J1*%
X161470000Y-80490000D03*
D13*
X163170000Y-80490000D03*
D12*
X161470000Y-83030000D03*
D14*
X163170000Y-83030000D03*
D12*
X161470000Y-85570000D03*
D15*
X163170000Y-85570000D03*
D12*
X161470000Y-88110000D03*
D14*
X163170000Y-88110000D03*
D12*
X161470000Y-90650000D03*
D14*
X163170000Y-90650000D03*
D12*
X161470000Y-93190000D03*
D14*
X163170000Y-93190000D03*
D12*
X161460000Y-95730000D03*
D14*
X163170000Y-95730000D03*
D12*
X161470000Y-98270000D03*
D15*
X163170000Y-98270000D03*
D12*
X161470000Y-100810000D03*
D14*
X163170000Y-100810000D03*
D12*
X161470000Y-103350000D03*
D14*
X163170000Y-103350000D03*
D12*
X161470000Y-105890000D03*
D14*
X163170000Y-105890000D03*
D12*
X161480000Y-108430000D03*
D14*
X163170000Y-108430000D03*
D12*
X161470000Y-110970000D03*
D15*
X163170000Y-110970000D03*
D12*
X161470000Y-113510000D03*
D14*
X163170000Y-113510000D03*
D12*
X161470000Y-116050000D03*
D14*
X163170000Y-116050000D03*
D12*
X161470000Y-118590000D03*
D14*
X163170000Y-118590000D03*
D12*
X161470000Y-121140000D03*
D14*
X163170000Y-121130000D03*
D12*
X161470000Y-123670000D03*
D15*
X163170000Y-123670000D03*
D12*
X161470000Y-126220000D03*
D14*
X163170000Y-126210000D03*
D12*
X161470000Y-128750000D03*
D14*
X163170000Y-128750000D03*
%TD*%
D11*
%TO.C,KiKit_MB_51_5*%
X114500000Y-78100000D03*
%TD*%
%TO.C,KiKit_MB_7_2*%
X122571429Y-76000000D03*
%TD*%
%TO.C,KiKit_MB_11_6*%
X159000000Y-42642858D03*
%TD*%
%TO.C,KiKit_MB_6_3*%
X127857142Y-25000000D03*
%TD*%
%TO.C,KiKit_MB_22_8*%
X177000000Y-25000000D03*
%TD*%
%TO.C,KiKit_MB_44_8*%
X182500000Y-114500000D03*
%TD*%
%TO.C,KiKit_MB_29_8*%
X123000000Y-79000000D03*
%TD*%
%TO.C,KiKit_MB_59_2*%
X184916666Y-25000000D03*
%TD*%
%TO.C,KiKit_MB_27_3*%
X135500000Y-95357142D03*
%TD*%
%TO.C,KiKit_MB_12_2*%
X159000000Y-57928571D03*
%TD*%
%TO.C,KiKit_MB_54_2*%
X182500000Y-20416667D03*
%TD*%
%TO.C,KiKit_MB_43_6*%
X182500000Y-96642857D03*
%TD*%
%TO.C,KiKit_MB_11_1*%
X159000000Y-40500000D03*
%TD*%
%TO.C,KiKit_MB_54_4*%
X182500000Y-21250000D03*
%TD*%
%TO.C,KiKit_MB_24_1*%
X177000000Y-76000000D03*
%TD*%
%TO.C,KiKit_MB_11_7*%
X159000000Y-43071429D03*
%TD*%
%TO.C,KiKit_MB_17_4*%
X161500000Y-42214286D03*
%TD*%
%TO.C,KiKit_MB_54_3*%
X182500000Y-20833334D03*
%TD*%
D14*
%TO.C,J3*%
X122525000Y-74470000D03*
D19*
X125065000Y-74470000D03*
D14*
X127605000Y-74470000D03*
%TD*%
D11*
%TO.C,KiKit_MB_19_3*%
X182500000Y-41357143D03*
%TD*%
%TO.C,KiKit_MB_4_5*%
X135500000Y-59214285D03*
%TD*%
%TO.C,KiKit_MB_57_6*%
X112083334Y-25000000D03*
%TD*%
%TO.C,KiKit_MB_14_5*%
X152214285Y-25000000D03*
%TD*%
%TO.C,KiKit_MB_46_2*%
X174428571Y-79000000D03*
%TD*%
%TO.C,KiKit_MB_19_6*%
X182500000Y-42642858D03*
%TD*%
%TO.C,KiKit_MB_36_4*%
X159000000Y-112785714D03*
%TD*%
%TO.C,KiKit_MB_16_3*%
X152642857Y-76000000D03*
%TD*%
%TO.C,KiKit_MB_51_2*%
X114500000Y-76900000D03*
%TD*%
%TO.C,KiKit_MB_4_1*%
X135500000Y-57500000D03*
%TD*%
%TO.C,KiKit_MB_37_6*%
X145642857Y-79000000D03*
%TD*%
%TO.C,KiKit_MB_56_1*%
X182500000Y-132500000D03*
%TD*%
%TO.C,KiKit_MB_37_5*%
X145214285Y-79000000D03*
%TD*%
%TO.C,KiKit_MB_45_2*%
X167428571Y-79000000D03*
%TD*%
%TO.C,KiKit_MB_4_8*%
X135500000Y-60500000D03*
%TD*%
%TO.C,KiKit_MB_46_3*%
X174857142Y-79000000D03*
%TD*%
%TO.C,KiKit_MB_14_3*%
X151357142Y-25000000D03*
%TD*%
%TO.C,KiKit_MB_56_3*%
X182500000Y-133333333D03*
%TD*%
%TO.C,KiKit_MB_57_5*%
X111666667Y-25000000D03*
%TD*%
%TO.C,KiKit_MB_51_4*%
X114500000Y-77700000D03*
%TD*%
%TO.C,KiKit_MB_17_2*%
X161500000Y-43071429D03*
%TD*%
%TO.C,KiKit_MB_8_7*%
X127428571Y-76000000D03*
%TD*%
%TO.C,KiKit_MB_40_4*%
X152214285Y-130000000D03*
%TD*%
%TO.C,KiKit_MB_10_3*%
X138000000Y-59642857D03*
%TD*%
%TO.C,KiKit_MB_11_4*%
X159000000Y-41785715D03*
%TD*%
%TO.C,KiKit_MB_52_3*%
X182500000Y-77300000D03*
%TD*%
%TO.C,KiKit_MB_53_7*%
X114500000Y-22500000D03*
%TD*%
%TO.C,KiKit_MB_57_3*%
X110833334Y-25000000D03*
%TD*%
%TO.C,KiKit_MB_9_1*%
X138000000Y-43500000D03*
%TD*%
%TO.C,KiKit_MB_23_4*%
X168714285Y-76000000D03*
%TD*%
%TO.C,KiKit_MB_54_5*%
X182500000Y-21666667D03*
%TD*%
%TO.C,KiKit_MB_47_7*%
X167428571Y-130000000D03*
%TD*%
%TO.C,KiKit_MB_38_7*%
X153071428Y-79000000D03*
%TD*%
%TO.C,KiKit_MB_10_2*%
X138000000Y-60071428D03*
%TD*%
%TO.C,KiKit_MB_44_2*%
X182500000Y-111928571D03*
%TD*%
%TO.C,KiKit_MB_37_3*%
X144357142Y-79000000D03*
%TD*%
%TO.C,KiKit_MB_56_5*%
X182500000Y-134166666D03*
%TD*%
%TO.C,KiKit_MB_47_6*%
X167857142Y-130000000D03*
%TD*%
%TO.C,KiKit_MB_13_6*%
X145642857Y-25000000D03*
%TD*%
%TO.C,KiKit_MB_50_4*%
X160250000Y-77700000D03*
%TD*%
%TO.C,KiKit_MB_12_5*%
X159000000Y-59214285D03*
%TD*%
%TO.C,KiKit_MB_24_6*%
X174857142Y-76000000D03*
%TD*%
D16*
%TO.C,J4*%
X151350000Y-31350000D03*
X145570000Y-31350000D03*
D17*
X152780000Y-31880000D03*
D18*
X152780000Y-27700000D03*
D17*
X144140000Y-31880000D03*
D18*
X144140000Y-27700000D03*
%TD*%
D11*
%TO.C,KiKit_MB_25_2*%
X114500000Y-97071428D03*
%TD*%
%TO.C,KiKit_MB_41_5*%
X161500000Y-95785714D03*
%TD*%
%TO.C,KiKit_MB_13_3*%
X144357142Y-25000000D03*
%TD*%
%TO.C,KiKit_MB_9_7*%
X138000000Y-40928572D03*
%TD*%
%TO.C,KiKit_MB_45_4*%
X168285714Y-79000000D03*
%TD*%
D12*
%TO.C,J1*%
X161470000Y-26490000D03*
D13*
X163170000Y-26490000D03*
D12*
X161470000Y-29030000D03*
D14*
X163170000Y-29030000D03*
D12*
X161470000Y-31570000D03*
D15*
X163170000Y-31570000D03*
D12*
X161470000Y-34110000D03*
D14*
X163170000Y-34110000D03*
D12*
X161470000Y-36650000D03*
D14*
X163170000Y-36650000D03*
D12*
X161470000Y-39190000D03*
D14*
X163170000Y-39190000D03*
D12*
X161460000Y-41730000D03*
D14*
X163170000Y-41730000D03*
D12*
X161470000Y-44270000D03*
D15*
X163170000Y-44270000D03*
D12*
X161470000Y-46810000D03*
D14*
X163170000Y-46810000D03*
D12*
X161470000Y-49350000D03*
D14*
X163170000Y-49350000D03*
D12*
X161470000Y-51890000D03*
D14*
X163170000Y-51890000D03*
D12*
X161480000Y-54430000D03*
D14*
X163170000Y-54430000D03*
D12*
X161470000Y-56970000D03*
D15*
X163170000Y-56970000D03*
D12*
X161470000Y-59510000D03*
D14*
X163170000Y-59510000D03*
D12*
X161470000Y-62050000D03*
D14*
X163170000Y-62050000D03*
D12*
X161470000Y-64590000D03*
D14*
X163170000Y-64590000D03*
D12*
X161470000Y-67140000D03*
D14*
X163170000Y-67130000D03*
D12*
X161470000Y-69670000D03*
D15*
X163170000Y-69670000D03*
D12*
X161470000Y-72220000D03*
D14*
X163170000Y-72210000D03*
D12*
X161470000Y-74750000D03*
D14*
X163170000Y-74750000D03*
%TD*%
D11*
%TO.C,KiKit_MB_1_5*%
X114500000Y-41785715D03*
%TD*%
%TO.C,KiKit_MB_34_1*%
X138000000Y-114500000D03*
%TD*%
D14*
%TO.C,J3*%
X146025000Y-74470000D03*
D19*
X148565000Y-74470000D03*
D14*
X151105000Y-74470000D03*
%TD*%
D11*
%TO.C,KiKit_MB_7_1*%
X123000000Y-76000000D03*
%TD*%
%TO.C,KiKit_MB_20_3*%
X182500000Y-58357142D03*
%TD*%
%TO.C,KiKit_MB_24_2*%
X176571428Y-76000000D03*
%TD*%
%TO.C,KiKit_MB_2_3*%
X114500000Y-59642857D03*
%TD*%
%TO.C,KiKit_MB_22_1*%
X174000000Y-25000000D03*
%TD*%
%TO.C,KiKit_MB_53_2*%
X114500000Y-20416667D03*
%TD*%
%TO.C,KiKit_MB_31_1*%
X123000000Y-130000000D03*
%TD*%
%TO.C,KiKit_MB_43_2*%
X182500000Y-94928571D03*
%TD*%
%TO.C,KiKit_MB_43_8*%
X182500000Y-97500000D03*
%TD*%
%TO.C,KiKit_MB_53_4*%
X114500000Y-21250000D03*
%TD*%
%TO.C,KiKit_MB_52_1*%
X182500000Y-76500000D03*
%TD*%
%TO.C,KiKit_MB_26_6*%
X114500000Y-112357142D03*
%TD*%
%TO.C,KiKit_MB_40_5*%
X151785714Y-130000000D03*
%TD*%
D13*
%TO.C,J2*%
X157340000Y-80460000D03*
D12*
X159040000Y-80460000D03*
D14*
X157340000Y-83000000D03*
D12*
X159040000Y-83000000D03*
D15*
X157340000Y-85540000D03*
D12*
X159040000Y-85540000D03*
D14*
X157340000Y-88080000D03*
D12*
X159040000Y-88080000D03*
D14*
X157340000Y-90620000D03*
D12*
X159040000Y-90620000D03*
D14*
X157340000Y-93160000D03*
D12*
X159040000Y-93160000D03*
D14*
X157340000Y-95700000D03*
D12*
X159050000Y-95700000D03*
D15*
X157340000Y-98240000D03*
D12*
X159040000Y-98240000D03*
D14*
X157340000Y-100780000D03*
D12*
X159040000Y-100780000D03*
D14*
X157340000Y-103320000D03*
D12*
X159040000Y-103320000D03*
D14*
X157340000Y-105860000D03*
D12*
X159040000Y-105860000D03*
D14*
X157340000Y-108400000D03*
D12*
X159030000Y-108400000D03*
D15*
X157340000Y-110940000D03*
D12*
X159040000Y-110940000D03*
D14*
X157340000Y-113480000D03*
D12*
X159040000Y-113480000D03*
D14*
X157340000Y-116020000D03*
D12*
X159040000Y-116020000D03*
D14*
X157340000Y-118560000D03*
D12*
X159040000Y-118560000D03*
D14*
X157340000Y-121100000D03*
D12*
X159040000Y-121110000D03*
D15*
X157340000Y-123640000D03*
D12*
X159040000Y-123640000D03*
D14*
X157340000Y-126180000D03*
D12*
X159040000Y-126190000D03*
D14*
X157340000Y-128720000D03*
D12*
X159040000Y-128720000D03*
%TD*%
D11*
%TO.C,KiKit_MB_57_4*%
X111250000Y-25000000D03*
%TD*%
%TO.C,KiKit_MB_47_2*%
X169571428Y-130000000D03*
%TD*%
%TO.C,KiKit_MB_37_7*%
X146071428Y-79000000D03*
%TD*%
D14*
%TO.C,J3*%
X122525000Y-128470000D03*
D19*
X125065000Y-128470000D03*
D14*
X127605000Y-128470000D03*
%TD*%
D11*
%TO.C,KiKit_MB_22_4*%
X175285714Y-25000000D03*
%TD*%
%TO.C,KiKit_MB_27_8*%
X135500000Y-97500000D03*
%TD*%
%TO.C,KiKit_MB_15_6*%
X144357142Y-76000000D03*
%TD*%
%TO.C,KiKit_MB_38_4*%
X151785714Y-79000000D03*
%TD*%
%TO.C,KiKit_MB_36_7*%
X159000000Y-114071428D03*
%TD*%
%TO.C,KiKit_MB_24_5*%
X175285714Y-76000000D03*
%TD*%
%TO.C,KiKit_MB_36_8*%
X159000000Y-114500000D03*
%TD*%
%TO.C,KiKit_MB_25_8*%
X114500000Y-94500000D03*
%TD*%
%TO.C,KiKit_MB_41_7*%
X161500000Y-94928571D03*
%TD*%
%TO.C,KiKit_MB_29_3*%
X120857143Y-79000000D03*
%TD*%
%TO.C,KiKit_MB_7_3*%
X122142858Y-76000000D03*
%TD*%
%TO.C,KiKit_MB_41_4*%
X161500000Y-96214285D03*
%TD*%
%TO.C,KiKit_MB_54_6*%
X182500000Y-22083334D03*
%TD*%
%TO.C,KiKit_MB_39_1*%
X146500000Y-130000000D03*
%TD*%
%TO.C,KiKit_MB_58_3*%
X110833334Y-130000000D03*
%TD*%
%TO.C,KiKit_MB_7_8*%
X120000000Y-76000000D03*
%TD*%
%TO.C,KiKit_MB_58_2*%
X110416667Y-130000000D03*
%TD*%
%TO.C,KiKit_MB_3_2*%
X135500000Y-40928572D03*
%TD*%
%TO.C,KiKit_MB_34_6*%
X138000000Y-112357142D03*
%TD*%
%TO.C,KiKit_MB_5_4*%
X121285715Y-25000000D03*
%TD*%
%TO.C,KiKit_MB_14_1*%
X150500000Y-25000000D03*
%TD*%
%TO.C,KiKit_MB_12_1*%
X159000000Y-57500000D03*
%TD*%
%TO.C,KiKit_MB_46_5*%
X175714285Y-79000000D03*
%TD*%
%TO.C,KiKit_MB_55_4*%
X114500000Y-133750000D03*
%TD*%
%TO.C,KiKit_MB_48_5*%
X175285714Y-130000000D03*
%TD*%
%TO.C,KiKit_MB_33_6*%
X138000000Y-95357142D03*
%TD*%
%TO.C,KiKit_MB_4_4*%
X135500000Y-58785714D03*
%TD*%
%TO.C,KiKit_MB_56_4*%
X182500000Y-133750000D03*
%TD*%
%TO.C,KiKit_MB_58_1*%
X110000000Y-130000000D03*
%TD*%
%TO.C,KiKit_MB_17_1*%
X161500000Y-43500000D03*
%TD*%
%TO.C,KiKit_MB_14_2*%
X150928571Y-25000000D03*
%TD*%
%TO.C,KiKit_MB_56_6*%
X182500000Y-134583333D03*
%TD*%
%TO.C,KiKit_MB_30_5*%
X128714285Y-79000000D03*
%TD*%
%TO.C,KiKit_MB_53_3*%
X114500000Y-20833334D03*
%TD*%
%TO.C,KiKit_MB_50_6*%
X160250000Y-78500000D03*
%TD*%
%TO.C,KiKit_MB_13_2*%
X143928571Y-25000000D03*
%TD*%
%TO.C,KiKit_MB_41_6*%
X161500000Y-95357142D03*
%TD*%
%TO.C,KiKit_MB_49_5*%
X136750000Y-76900000D03*
%TD*%
%TO.C,KiKit_MB_23_3*%
X169142857Y-76000000D03*
%TD*%
%TO.C,KiKit_MB_35_3*%
X159000000Y-95357142D03*
%TD*%
%TO.C,KiKit_MB_46_1*%
X174000000Y-79000000D03*
%TD*%
%TO.C,KiKit_MB_31_2*%
X122571429Y-130000000D03*
%TD*%
%TO.C,KiKit_MB_55_2*%
X114500000Y-132916666D03*
%TD*%
%TO.C,KiKit_MB_21_1*%
X167000000Y-25000000D03*
%TD*%
%TO.C,KiKit_MB_28_2*%
X135500000Y-111928571D03*
%TD*%
%TO.C,KiKit_MB_23_5*%
X168285714Y-76000000D03*
%TD*%
%TO.C,KiKit_MB_3_1*%
X135500000Y-40500000D03*
%TD*%
%TO.C,KiKit_MB_44_1*%
X182500000Y-111500000D03*
%TD*%
%TO.C,KiKit_MB_5_7*%
X122571429Y-25000000D03*
%TD*%
%TO.C,KiKit_MB_5_5*%
X121714286Y-25000000D03*
%TD*%
%TO.C,KiKit_MB_36_6*%
X159000000Y-113642857D03*
%TD*%
%TO.C,KiKit_MB_8_5*%
X128285714Y-76000000D03*
%TD*%
%TO.C,KiKit_MB_24_7*%
X174428571Y-76000000D03*
%TD*%
%TO.C,KiKit_MB_50_3*%
X160250000Y-77300000D03*
%TD*%
%TO.C,KiKit_MB_25_7*%
X114500000Y-94928571D03*
%TD*%
%TO.C,KiKit_MB_9_3*%
X138000000Y-42642858D03*
%TD*%
%TO.C,KiKit_MB_29_6*%
X122142858Y-79000000D03*
%TD*%
%TO.C,KiKit_MB_44_5*%
X182500000Y-113214285D03*
%TD*%
%TO.C,KiKit_MB_1_1*%
X114500000Y-43500000D03*
%TD*%
%TO.C,KiKit_MB_57_2*%
X110416667Y-25000000D03*
%TD*%
%TO.C,KiKit_MB_38_1*%
X150500000Y-79000000D03*
%TD*%
%TO.C,KiKit_MB_1_2*%
X114500000Y-43071429D03*
%TD*%
%TO.C,KiKit_MB_12_4*%
X159000000Y-58785714D03*
%TD*%
%TO.C,KiKit_MB_22_6*%
X176142857Y-25000000D03*
%TD*%
%TO.C,KiKit_MB_38_6*%
X152642857Y-79000000D03*
%TD*%
%TO.C,KiKit_MB_34_4*%
X138000000Y-113214285D03*
%TD*%
%TO.C,KiKit_MB_8_4*%
X128714285Y-76000000D03*
%TD*%
%TO.C,KiKit_MB_11_3*%
X159000000Y-41357143D03*
%TD*%
D14*
%TO.C,J3*%
X169525000Y-74470000D03*
D19*
X172065000Y-74470000D03*
D14*
X174605000Y-74470000D03*
%TD*%
D11*
%TO.C,KiKit_MB_27_7*%
X135500000Y-97071428D03*
%TD*%
%TO.C,KiKit_MB_27_4*%
X135500000Y-95785714D03*
%TD*%
%TO.C,KiKit_MB_21_7*%
X169571428Y-25000000D03*
%TD*%
%TO.C,KiKit_MB_43_1*%
X182500000Y-94500000D03*
%TD*%
%TO.C,KiKit_MB_15_7*%
X143928571Y-76000000D03*
%TD*%
D13*
%TO.C,J2*%
X180840000Y-26460000D03*
D12*
X182540000Y-26460000D03*
D14*
X180840000Y-29000000D03*
D12*
X182540000Y-29000000D03*
D15*
X180840000Y-31540000D03*
D12*
X182540000Y-31540000D03*
D14*
X180840000Y-34080000D03*
D12*
X182540000Y-34080000D03*
D14*
X180840000Y-36620000D03*
D12*
X182540000Y-36620000D03*
D14*
X180840000Y-39160000D03*
D12*
X182540000Y-39160000D03*
D14*
X180840000Y-41700000D03*
D12*
X182550000Y-41700000D03*
D15*
X180840000Y-44240000D03*
D12*
X182540000Y-44240000D03*
D14*
X180840000Y-46780000D03*
D12*
X182540000Y-46780000D03*
D14*
X180840000Y-49320000D03*
D12*
X182540000Y-49320000D03*
D14*
X180840000Y-51860000D03*
D12*
X182540000Y-51860000D03*
D14*
X180840000Y-54400000D03*
D12*
X182530000Y-54400000D03*
D15*
X180840000Y-56940000D03*
D12*
X182540000Y-56940000D03*
D14*
X180840000Y-59480000D03*
D12*
X182540000Y-59480000D03*
D14*
X180840000Y-62020000D03*
D12*
X182540000Y-62020000D03*
D14*
X180840000Y-64560000D03*
D12*
X182540000Y-64560000D03*
D14*
X180840000Y-67100000D03*
D12*
X182540000Y-67110000D03*
D15*
X180840000Y-69640000D03*
D12*
X182540000Y-69640000D03*
D14*
X180840000Y-72180000D03*
D12*
X182540000Y-72190000D03*
D14*
X180840000Y-74720000D03*
D12*
X182540000Y-74720000D03*
%TD*%
D11*
%TO.C,KiKit_MB_28_5*%
X135500000Y-113214285D03*
%TD*%
%TO.C,KiKit_MB_25_4*%
X114500000Y-96214285D03*
%TD*%
%TO.C,KiKit_MB_31_6*%
X120857143Y-130000000D03*
%TD*%
%TO.C,KiKit_MB_20_7*%
X182500000Y-60071428D03*
%TD*%
%TO.C,KiKit_MB_33_8*%
X138000000Y-94500000D03*
%TD*%
%TO.C,KiKit_MB_60_6*%
X186583333Y-130000000D03*
%TD*%
%TO.C,KiKit_MB_29_7*%
X122571429Y-79000000D03*
%TD*%
%TO.C,KiKit_MB_42_5*%
X161500000Y-112785714D03*
%TD*%
%TO.C,KiKit_MB_12_7*%
X159000000Y-60071428D03*
%TD*%
%TO.C,KiKit_MB_36_3*%
X159000000Y-112357142D03*
%TD*%
%TO.C,KiKit_MB_14_8*%
X153500000Y-25000000D03*
%TD*%
%TO.C,KiKit_MB_19_8*%
X182500000Y-43500000D03*
%TD*%
%TO.C,KiKit_MB_49_1*%
X136750000Y-78500000D03*
%TD*%
%TO.C,KiKit_MB_22_3*%
X174857142Y-25000000D03*
%TD*%
%TO.C,KiKit_MB_53_5*%
X114500000Y-21666667D03*
%TD*%
%TO.C,KiKit_MB_26_8*%
X114500000Y-111500000D03*
%TD*%
%TO.C,KiKit_MB_10_6*%
X138000000Y-58357142D03*
%TD*%
%TO.C,KiKit_MB_9_5*%
X138000000Y-41785715D03*
%TD*%
%TO.C,KiKit_MB_35_7*%
X159000000Y-97071428D03*
%TD*%
%TO.C,KiKit_MB_48_1*%
X177000000Y-130000000D03*
%TD*%
%TO.C,KiKit_MB_18_5*%
X161500000Y-58785714D03*
%TD*%
%TO.C,KiKit_MB_11_8*%
X159000000Y-43500000D03*
%TD*%
%TO.C,KiKit_MB_18_4*%
X161500000Y-59214285D03*
%TD*%
%TO.C,KiKit_MB_58_4*%
X111250000Y-130000000D03*
%TD*%
%TO.C,KiKit_MB_6_8*%
X130000000Y-25000000D03*
%TD*%
%TO.C,KiKit_MB_33_5*%
X138000000Y-95785714D03*
%TD*%
%TO.C,KiKit_MB_6_2*%
X127428571Y-25000000D03*
%TD*%
%TO.C,KiKit_MB_15_1*%
X146500000Y-76000000D03*
%TD*%
%TO.C,KiKit_MB_8_8*%
X127000000Y-76000000D03*
%TD*%
%TO.C,KiKit_MB_9_4*%
X138000000Y-42214286D03*
%TD*%
%TO.C,KiKit_MB_28_6*%
X135500000Y-113642857D03*
%TD*%
%TO.C,KiKit_MB_23_7*%
X167428571Y-76000000D03*
%TD*%
%TO.C,KiKit_MB_5_6*%
X122142858Y-25000000D03*
%TD*%
%TO.C,KiKit_MB_41_2*%
X161500000Y-97071428D03*
%TD*%
%TO.C,KiKit_MB_31_3*%
X122142858Y-130000000D03*
%TD*%
%TO.C,KiKit_MB_19_5*%
X182500000Y-42214286D03*
%TD*%
%TO.C,KiKit_MB_12_8*%
X159000000Y-60500000D03*
%TD*%
%TO.C,KiKit_MB_20_6*%
X182500000Y-59642857D03*
%TD*%
%TO.C,KiKit_MB_52_4*%
X182500000Y-77700000D03*
%TD*%
%TO.C,KiKit_MB_16_2*%
X153071428Y-76000000D03*
%TD*%
D16*
%TO.C,J4*%
X127850000Y-85350000D03*
X122070000Y-85350000D03*
D17*
X129280000Y-85880000D03*
D18*
X129280000Y-81700000D03*
D17*
X120640000Y-85880000D03*
D18*
X120640000Y-81700000D03*
%TD*%
D11*
%TO.C,KiKit_MB_48_2*%
X176571428Y-130000000D03*
%TD*%
%TO.C,KiKit_MB_34_8*%
X138000000Y-111500000D03*
%TD*%
%TO.C,KiKit_MB_50_2*%
X160250000Y-76900000D03*
%TD*%
%TO.C,KiKit_MB_16_6*%
X151357142Y-76000000D03*
%TD*%
%TO.C,KiKit_MB_39_4*%
X145214285Y-130000000D03*
%TD*%
%TO.C,KiKit_MB_2_6*%
X114500000Y-58357142D03*
%TD*%
%TO.C,KiKit_MB_55_3*%
X114500000Y-133333333D03*
%TD*%
%TO.C,KiKit_MB_33_1*%
X138000000Y-97500000D03*
%TD*%
%TO.C,KiKit_MB_27_6*%
X135500000Y-96642857D03*
%TD*%
%TO.C,KiKit_MB_47_8*%
X167000000Y-130000000D03*
%TD*%
%TO.C,KiKit_MB_29_2*%
X120428572Y-79000000D03*
%TD*%
%TO.C,KiKit_MB_21_6*%
X169142857Y-25000000D03*
%TD*%
%TO.C,KiKit_MB_59_1*%
X184500000Y-25000000D03*
%TD*%
%TO.C,KiKit_MB_7_6*%
X120857143Y-76000000D03*
%TD*%
%TO.C,KiKit_MB_52_5*%
X182500000Y-78100000D03*
%TD*%
%TO.C,KiKit_MB_59_6*%
X186583333Y-25000000D03*
%TD*%
%TO.C,KiKit_MB_15_3*%
X145642857Y-76000000D03*
%TD*%
%TO.C,KiKit_MB_20_4*%
X182500000Y-58785714D03*
%TD*%
%TO.C,KiKit_MB_39_6*%
X144357142Y-130000000D03*
%TD*%
%TO.C,KiKit_MB_4_6*%
X135500000Y-59642857D03*
%TD*%
%TO.C,KiKit_MB_51_1*%
X114500000Y-76500000D03*
%TD*%
%TO.C,KiKit_MB_41_1*%
X161500000Y-97500000D03*
%TD*%
%TO.C,KiKit_MB_2_8*%
X114500000Y-57500000D03*
%TD*%
%TO.C,KiKit_MB_10_4*%
X138000000Y-59214285D03*
%TD*%
%TO.C,KiKit_MB_39_3*%
X145642857Y-130000000D03*
%TD*%
%TO.C,KiKit_MB_37_8*%
X146500000Y-79000000D03*
%TD*%
%TO.C,KiKit_MB_14_4*%
X151785714Y-25000000D03*
%TD*%
%TO.C,KiKit_MB_50_1*%
X160250000Y-76500000D03*
%TD*%
%TO.C,KiKit_MB_21_3*%
X167857142Y-25000000D03*
%TD*%
%TO.C,KiKit_MB_45_5*%
X168714285Y-79000000D03*
%TD*%
%TO.C,KiKit_MB_18_1*%
X161500000Y-60500000D03*
%TD*%
%TO.C,KiKit_MB_32_6*%
X127857142Y-130000000D03*
%TD*%
%TO.C,KiKit_MB_37_1*%
X143500000Y-79000000D03*
%TD*%
%TO.C,KiKit_MB_57_1*%
X110000000Y-25000000D03*
%TD*%
%TO.C,KiKit_MB_3_7*%
X135500000Y-43071429D03*
%TD*%
%TO.C,KiKit_MB_24_8*%
X174000000Y-76000000D03*
%TD*%
%TO.C,KiKit_MB_56_7*%
X182500000Y-135000000D03*
%TD*%
%TO.C,KiKit_MB_23_1*%
X170000000Y-76000000D03*
%TD*%
%TO.C,KiKit_MB_25_6*%
X114500000Y-95357142D03*
%TD*%
%TO.C,KiKit_MB_52_2*%
X182500000Y-76900000D03*
%TD*%
%TO.C,KiKit_MB_32_7*%
X127428571Y-130000000D03*
%TD*%
%TO.C,KiKit_MB_2_4*%
X114500000Y-59214285D03*
%TD*%
D14*
%TO.C,J3*%
X146025000Y-128470000D03*
D19*
X148565000Y-128470000D03*
D14*
X151105000Y-128470000D03*
%TD*%
D11*
%TO.C,KiKit_MB_14_6*%
X152642857Y-25000000D03*
%TD*%
%TO.C,KiKit_MB_23_6*%
X167857142Y-76000000D03*
%TD*%
%TO.C,KiKit_MB_24_4*%
X175714285Y-76000000D03*
%TD*%
%TO.C,KiKit_MB_35_2*%
X159000000Y-94928571D03*
%TD*%
%TO.C,KiKit_MB_53_1*%
X114500000Y-20000000D03*
%TD*%
%TO.C,KiKit_MB_42_7*%
X161500000Y-111928571D03*
%TD*%
%TO.C,KiKit_MB_19_1*%
X182500000Y-40500000D03*
%TD*%
%TO.C,KiKit_MB_59_4*%
X185750000Y-25000000D03*
%TD*%
%TO.C,KiKit_MB_6_7*%
X129571428Y-25000000D03*
%TD*%
%TO.C,KiKit_MB_16_7*%
X150928571Y-76000000D03*
%TD*%
%TO.C,KiKit_MB_6_6*%
X129142857Y-25000000D03*
%TD*%
%TO.C,KiKit_MB_43_3*%
X182500000Y-95357142D03*
%TD*%
%TO.C,KiKit_MB_6_4*%
X128285714Y-25000000D03*
%TD*%
%TO.C,KiKit_MB_12_3*%
X159000000Y-58357142D03*
%TD*%
%TO.C,KiKit_MB_9_6*%
X138000000Y-41357143D03*
%TD*%
D16*
%TO.C,J4*%
X174850000Y-31350000D03*
X169070000Y-31350000D03*
D17*
X176280000Y-31880000D03*
D18*
X176280000Y-27700000D03*
D17*
X167640000Y-31880000D03*
D18*
X167640000Y-27700000D03*
%TD*%
D11*
%TO.C,KiKit_MB_1_6*%
X114500000Y-41357143D03*
%TD*%
D16*
%TO.C,J4*%
X151350000Y-85350000D03*
X145570000Y-85350000D03*
D17*
X152780000Y-85880000D03*
D18*
X152780000Y-81700000D03*
D17*
X144140000Y-85880000D03*
D18*
X144140000Y-81700000D03*
%TD*%
D11*
%TO.C,KiKit_MB_45_6*%
X169142857Y-79000000D03*
%TD*%
%TO.C,KiKit_MB_55_1*%
X114500000Y-132500000D03*
%TD*%
%TO.C,KiKit_MB_50_5*%
X160250000Y-78100000D03*
%TD*%
D12*
%TO.C,J1*%
X114470000Y-80490000D03*
D13*
X116170000Y-80490000D03*
D12*
X114470000Y-83030000D03*
D14*
X116170000Y-83030000D03*
D12*
X114470000Y-85570000D03*
D15*
X116170000Y-85570000D03*
D12*
X114470000Y-88110000D03*
D14*
X116170000Y-88110000D03*
D12*
X114470000Y-90650000D03*
D14*
X116170000Y-90650000D03*
D12*
X114470000Y-93190000D03*
D14*
X116170000Y-93190000D03*
D12*
X114460000Y-95730000D03*
D14*
X116170000Y-95730000D03*
D12*
X114470000Y-98270000D03*
D15*
X116170000Y-98270000D03*
D12*
X114470000Y-100810000D03*
D14*
X116170000Y-100810000D03*
D12*
X114470000Y-103350000D03*
D14*
X116170000Y-103350000D03*
D12*
X114470000Y-105890000D03*
D14*
X116170000Y-105890000D03*
D12*
X114480000Y-108430000D03*
D14*
X116170000Y-108430000D03*
D12*
X114470000Y-110970000D03*
D15*
X116170000Y-110970000D03*
D12*
X114470000Y-113510000D03*
D14*
X116170000Y-113510000D03*
D12*
X114470000Y-116050000D03*
D14*
X116170000Y-116050000D03*
D12*
X114470000Y-118590000D03*
D14*
X116170000Y-118590000D03*
D12*
X114470000Y-121140000D03*
D14*
X116170000Y-121130000D03*
D12*
X114470000Y-123670000D03*
D15*
X116170000Y-123670000D03*
D12*
X114470000Y-126220000D03*
D14*
X116170000Y-126210000D03*
D12*
X114470000Y-128750000D03*
D14*
X116170000Y-128750000D03*
%TD*%
D11*
%TO.C,KiKit_MB_15_2*%
X146071428Y-76000000D03*
%TD*%
%TO.C,KiKit_MB_8_6*%
X127857142Y-76000000D03*
%TD*%
%TO.C,KiKit_MB_24_3*%
X176142857Y-76000000D03*
%TD*%
%TO.C,KiKit_MB_17_3*%
X161500000Y-42642858D03*
%TD*%
%TO.C,KiKit_MB_13_5*%
X145214285Y-25000000D03*
%TD*%
%TO.C,KiKit_MB_56_2*%
X182500000Y-132916666D03*
%TD*%
%TO.C,KiKit_MB_53_6*%
X114500000Y-22083334D03*
%TD*%
D14*
%TO.C,J3*%
X169525000Y-128470000D03*
D19*
X172065000Y-128470000D03*
D14*
X174605000Y-128470000D03*
%TD*%
D11*
%TO.C,KiKit_MB_38_3*%
X151357142Y-79000000D03*
%TD*%
%TO.C,KiKit_MB_31_8*%
X120000000Y-130000000D03*
%TD*%
%TO.C,KiKit_MB_43_4*%
X182500000Y-95785714D03*
%TD*%
%TO.C,KiKit_MB_27_2*%
X135500000Y-94928571D03*
%TD*%
%TO.C,KiKit_MB_47_5*%
X168285714Y-130000000D03*
%TD*%
%TO.C,KiKit_MB_42_1*%
X161500000Y-114500000D03*
%TD*%
%TO.C,KiKit_MB_21_4*%
X168285714Y-25000000D03*
%TD*%
%TO.C,KiKit_MB_60_1*%
X184500000Y-130000000D03*
%TD*%
%TO.C,KiKit_MB_27_1*%
X135500000Y-94500000D03*
%TD*%
%TO.C,KiKit_MB_60_4*%
X185750000Y-130000000D03*
%TD*%
%TO.C,KiKit_MB_43_5*%
X182500000Y-96214285D03*
%TD*%
%TO.C,KiKit_MB_45_7*%
X169571428Y-79000000D03*
%TD*%
%TO.C,KiKit_MB_30_4*%
X128285714Y-79000000D03*
%TD*%
%TO.C,KiKit_MB_28_1*%
X135500000Y-111500000D03*
%TD*%
%TO.C,KiKit_MB_20_1*%
X182500000Y-57500000D03*
%TD*%
%TO.C,KiKit_MB_51_3*%
X114500000Y-77300000D03*
%TD*%
%TO.C,KiKit_MB_31_4*%
X121714286Y-130000000D03*
%TD*%
%TO.C,KiKit_MB_7_4*%
X121714286Y-76000000D03*
%TD*%
%TO.C,KiKit_MB_60_7*%
X187000000Y-130000000D03*
%TD*%
%TO.C,KiKit_MB_16_5*%
X151785714Y-76000000D03*
%TD*%
%TO.C,KiKit_MB_39_2*%
X146071428Y-130000000D03*
%TD*%
%TO.C,KiKit_MB_30_2*%
X127428571Y-79000000D03*
%TD*%
%TO.C,KiKit_MB_40_8*%
X150500000Y-130000000D03*
%TD*%
%TO.C,KiKit_MB_16_4*%
X152214285Y-76000000D03*
%TD*%
%TO.C,KiKit_MB_59_3*%
X185333333Y-25000000D03*
%TD*%
%TO.C,KiKit_MB_26_3*%
X114500000Y-113642857D03*
%TD*%
%TO.C,KiKit_MB_18_8*%
X161500000Y-57500000D03*
%TD*%
%TO.C,KiKit_MB_17_8*%
X161500000Y-40500000D03*
%TD*%
%TO.C,KiKit_MB_35_5*%
X159000000Y-96214285D03*
%TD*%
%TO.C,KiKit_MB_18_3*%
X161500000Y-59642857D03*
%TD*%
%TO.C,KiKit_MB_60_2*%
X184916666Y-130000000D03*
%TD*%
%TO.C,KiKit_MB_36_5*%
X159000000Y-113214285D03*
%TD*%
M02*
