%TF.GenerationSoftware,KiCad,Pcbnew,7.0.9*%
%TF.CreationDate,2024-05-10T15:51:33-04:00*%
%TF.ProjectId,panel,70616e65-6c2e-46b6-9963-61645f706362,rev?*%
%TF.SameCoordinates,Original*%
%TF.FileFunction,Soldermask,Top*%
%TF.FilePolarity,Negative*%
%FSLAX46Y46*%
G04 Gerber Fmt 4.6, Leading zero omitted, Abs format (unit mm)*
G04 Created by KiCad (PCBNEW 7.0.9) date 2024-05-10 15:51:33*
%MOMM*%
%LPD*%
G01*
G04 APERTURE LIST*
G04 Aperture macros list*
%AMRoundRect*
0 Rectangle with rounded corners*
0 $1 Rounding radius*
0 $2 $3 $4 $5 $6 $7 $8 $9 X,Y pos of 4 corners*
0 Add a 4 corners polygon primitive as box body*
4,1,4,$2,$3,$4,$5,$6,$7,$8,$9,$2,$3,0*
0 Add four circle primitives for the rounded corners*
1,1,$1+$1,$2,$3*
1,1,$1+$1,$4,$5*
1,1,$1+$1,$6,$7*
1,1,$1+$1,$8,$9*
0 Add four rect primitives between the rounded corners*
20,1,$1+$1,$2,$3,$4,$5,0*
20,1,$1+$1,$4,$5,$6,$7,0*
20,1,$1+$1,$6,$7,$8,$9,0*
20,1,$1+$1,$8,$9,$2,$3,0*%
G04 Aperture macros list end*
%ADD10RoundRect,0.140000X-0.140000X-0.170000X0.140000X-0.170000X0.140000X0.170000X-0.140000X0.170000X0*%
%ADD11C,0.200000*%
%ADD12RoundRect,0.140000X0.170000X-0.140000X0.170000X0.140000X-0.170000X0.140000X-0.170000X-0.140000X0*%
%ADD13RoundRect,0.140000X-0.170000X0.140000X-0.170000X-0.140000X0.170000X-0.140000X0.170000X0.140000X0*%
%ADD14RoundRect,0.135000X0.135000X0.185000X-0.135000X0.185000X-0.135000X-0.185000X0.135000X-0.185000X0*%
%ADD15R,3.500000X1.700000*%
%ADD16C,1.700000*%
%ADD17O,1.700000X1.700000*%
%ADD18R,1.700000X1.700000*%
%ADD19R,1.400000X1.200000*%
%ADD20RoundRect,0.135000X-0.135000X-0.185000X0.135000X-0.185000X0.135000X0.185000X-0.135000X0.185000X0*%
%ADD21RoundRect,0.140000X0.140000X0.170000X-0.140000X0.170000X-0.140000X-0.170000X0.140000X-0.170000X0*%
%ADD22RoundRect,0.147500X0.147500X0.172500X-0.147500X0.172500X-0.147500X-0.172500X0.147500X-0.172500X0*%
%ADD23RoundRect,0.162500X0.162500X-0.362500X0.162500X0.362500X-0.162500X0.362500X-0.162500X-0.362500X0*%
%ADD24RoundRect,0.243750X-0.456250X0.243750X-0.456250X-0.243750X0.456250X-0.243750X0.456250X0.243750X0*%
%ADD25RoundRect,0.135000X-0.185000X0.135000X-0.185000X-0.135000X0.185000X-0.135000X0.185000X0.135000X0*%
%ADD26RoundRect,0.087500X-0.175000X-0.087500X0.175000X-0.087500X0.175000X0.087500X-0.175000X0.087500X0*%
%ADD27R,1.400000X1.600000*%
%ADD28RoundRect,0.050000X-0.387500X-0.050000X0.387500X-0.050000X0.387500X0.050000X-0.387500X0.050000X0*%
%ADD29RoundRect,0.050000X-0.050000X-0.387500X0.050000X-0.387500X0.050000X0.387500X-0.050000X0.387500X0*%
%ADD30RoundRect,0.144000X-1.456000X-1.456000X1.456000X-1.456000X1.456000X1.456000X-1.456000X1.456000X0*%
%ADD31C,0.650000*%
%ADD32R,0.600000X1.450000*%
%ADD33R,0.300000X1.450000*%
%ADD34O,1.000000X2.100000*%
%ADD35O,1.000000X1.600000*%
%ADD36RoundRect,0.225000X0.375000X-0.225000X0.375000X0.225000X-0.375000X0.225000X-0.375000X-0.225000X0*%
%ADD37RoundRect,0.150000X0.150000X-0.512500X0.150000X0.512500X-0.150000X0.512500X-0.150000X-0.512500X0*%
%ADD38RoundRect,0.135000X0.185000X-0.135000X0.185000X0.135000X-0.185000X0.135000X-0.185000X-0.135000X0*%
%ADD39RoundRect,0.162500X0.362500X0.162500X-0.362500X0.162500X-0.362500X-0.162500X0.362500X-0.162500X0*%
%ADD40RoundRect,0.425000X0.425000X-0.425000X0.425000X0.425000X-0.425000X0.425000X-0.425000X-0.425000X0*%
%ADD41RoundRect,0.147500X-0.172500X0.147500X-0.172500X-0.147500X0.172500X-0.147500X0.172500X0.147500X0*%
%ADD42RoundRect,0.150000X-0.150000X0.512500X-0.150000X-0.512500X0.150000X-0.512500X0.150000X0.512500X0*%
G04 APERTURE END LIST*
D10*
%TO.C,C4*%
X129540000Y-49840000D03*
X130500000Y-49840000D03*
%TD*%
D11*
%TO.C,KiKit_MB_10_5*%
X138000000Y-58785714D03*
%TD*%
D12*
%TO.C,C12*%
X176580000Y-102780000D03*
X176580000Y-101820000D03*
%TD*%
D11*
%TO.C,KiKit_MB_3_5*%
X135500000Y-42214286D03*
%TD*%
%TO.C,KiKit_MB_29_5*%
X121714286Y-79000000D03*
%TD*%
%TO.C,KiKit_MB_58_6*%
X112083334Y-130000000D03*
%TD*%
%TO.C,KiKit_MB_35_8*%
X159000000Y-97500000D03*
%TD*%
D13*
%TO.C,C2*%
X172210000Y-112980000D03*
X172210000Y-113940000D03*
%TD*%
D11*
%TO.C,KiKit_MB_25_1*%
X114500000Y-97500000D03*
%TD*%
%TO.C,KiKit_MB_30_8*%
X130000000Y-79000000D03*
%TD*%
%TO.C,KiKit_MB_14_7*%
X153071428Y-25000000D03*
%TD*%
%TO.C,KiKit_MB_35_4*%
X159000000Y-95785714D03*
%TD*%
D14*
%TO.C,R7*%
X125080000Y-114870000D03*
X124060000Y-114870000D03*
%TD*%
D11*
%TO.C,KiKit_MB_43_7*%
X182500000Y-97071428D03*
%TD*%
%TO.C,KiKit_MB_31_7*%
X120428572Y-130000000D03*
%TD*%
%TO.C,KiKit_MB_9_2*%
X138000000Y-43071429D03*
%TD*%
%TO.C,KiKit_MB_28_3*%
X135500000Y-112357142D03*
%TD*%
%TO.C,KiKit_MB_32_4*%
X128714285Y-130000000D03*
%TD*%
%TO.C,KiKit_MB_16_8*%
X150500000Y-76000000D03*
%TD*%
%TO.C,KiKit_MB_41_3*%
X161500000Y-96642857D03*
%TD*%
%TO.C,KiKit_MB_5_1*%
X120000000Y-25000000D03*
%TD*%
D15*
%TO.C,J1*%
X137970000Y-26490000D03*
D16*
X139670000Y-26490000D03*
D15*
X137970000Y-29030000D03*
D17*
X139670000Y-29030000D03*
D15*
X137970000Y-31570000D03*
D18*
X139670000Y-31570000D03*
D15*
X137970000Y-34110000D03*
D17*
X139670000Y-34110000D03*
D15*
X137970000Y-36650000D03*
D17*
X139670000Y-36650000D03*
D15*
X137970000Y-39190000D03*
D17*
X139670000Y-39190000D03*
D15*
X137960000Y-41730000D03*
D17*
X139670000Y-41730000D03*
D15*
X137970000Y-44270000D03*
D18*
X139670000Y-44270000D03*
D15*
X137970000Y-46810000D03*
D17*
X139670000Y-46810000D03*
D15*
X137970000Y-49350000D03*
D17*
X139670000Y-49350000D03*
D15*
X137970000Y-51890000D03*
D17*
X139670000Y-51890000D03*
D15*
X137980000Y-54430000D03*
D17*
X139670000Y-54430000D03*
D15*
X137970000Y-56970000D03*
D18*
X139670000Y-56970000D03*
D15*
X137970000Y-59510000D03*
D17*
X139670000Y-59510000D03*
D15*
X137970000Y-62050000D03*
D17*
X139670000Y-62050000D03*
D15*
X137970000Y-64590000D03*
D17*
X139670000Y-64590000D03*
D15*
X137970000Y-67140000D03*
D17*
X139670000Y-67130000D03*
D15*
X137970000Y-69670000D03*
D18*
X139670000Y-69670000D03*
D15*
X137970000Y-72220000D03*
D17*
X139670000Y-72210000D03*
D15*
X137970000Y-74750000D03*
D17*
X139670000Y-74750000D03*
%TD*%
D19*
%TO.C,Y1*%
X170810000Y-116260000D03*
X168610000Y-116260000D03*
X168610000Y-117960000D03*
X170810000Y-117960000D03*
%TD*%
D12*
%TO.C,C1*%
X171390000Y-101000000D03*
X171390000Y-100040000D03*
%TD*%
D11*
%TO.C,KiKit_MB_17_7*%
X161500000Y-40928572D03*
%TD*%
D12*
%TO.C,C19*%
X170980000Y-99100000D03*
X170980000Y-98140000D03*
%TD*%
D11*
%TO.C,KiKit_MB_26_1*%
X114500000Y-114500000D03*
%TD*%
D20*
%TO.C,R6*%
X119000000Y-88650000D03*
X120020000Y-88650000D03*
%TD*%
D21*
%TO.C,C16*%
X169760000Y-98260000D03*
X168800000Y-98260000D03*
%TD*%
D11*
%TO.C,KiKit_MB_7_5*%
X121285715Y-76000000D03*
%TD*%
D22*
%TO.C,D2*%
X168965000Y-88650000D03*
X167995000Y-88650000D03*
%TD*%
D11*
%TO.C,KiKit_MB_10_1*%
X138000000Y-60500000D03*
%TD*%
D23*
%TO.C,SW1*%
X150822500Y-119542500D03*
X150822500Y-115452500D03*
X152922500Y-119542500D03*
X152922500Y-115452500D03*
%TD*%
D12*
%TO.C,C3*%
X174470000Y-102290000D03*
X174470000Y-101330000D03*
%TD*%
D11*
%TO.C,KiKit_MB_13_7*%
X146071428Y-25000000D03*
%TD*%
%TO.C,KiKit_MB_49_4*%
X136750000Y-77300000D03*
%TD*%
D12*
%TO.C,C3*%
X127470000Y-102290000D03*
X127470000Y-101330000D03*
%TD*%
%TO.C,C11*%
X128530000Y-48330000D03*
X128530000Y-47370000D03*
%TD*%
D11*
%TO.C,KiKit_MB_39_7*%
X143928571Y-130000000D03*
%TD*%
%TO.C,KiKit_MB_41_8*%
X161500000Y-94500000D03*
%TD*%
D24*
%TO.C,F1*%
X131140000Y-85832500D03*
X131140000Y-87707500D03*
%TD*%
D11*
%TO.C,KiKit_MB_39_5*%
X144785714Y-130000000D03*
%TD*%
D13*
%TO.C,C6*%
X124240000Y-112970000D03*
X124240000Y-113930000D03*
%TD*%
D25*
%TO.C,R3*%
X131380000Y-39960000D03*
X131380000Y-40980000D03*
%TD*%
D11*
%TO.C,KiKit_MB_44_4*%
X182500000Y-112785714D03*
%TD*%
%TO.C,KiKit_MB_54_7*%
X182500000Y-22500000D03*
%TD*%
D20*
%TO.C,R8*%
X146500000Y-39520000D03*
X147520000Y-39520000D03*
%TD*%
D11*
%TO.C,KiKit_MB_32_5*%
X128285714Y-130000000D03*
%TD*%
D12*
%TO.C,C12*%
X129580000Y-102780000D03*
X129580000Y-101820000D03*
%TD*%
D11*
%TO.C,KiKit_MB_2_2*%
X114500000Y-60071428D03*
%TD*%
%TO.C,KiKit_MB_16_1*%
X153500000Y-76000000D03*
%TD*%
D25*
%TO.C,R3*%
X178380000Y-93960000D03*
X178380000Y-94980000D03*
%TD*%
D12*
%TO.C,C1*%
X124390000Y-47000000D03*
X124390000Y-46040000D03*
%TD*%
D11*
%TO.C,KiKit_MB_3_3*%
X135500000Y-41357143D03*
%TD*%
D13*
%TO.C,C14*%
X172370000Y-61830000D03*
X172370000Y-62790000D03*
%TD*%
D11*
%TO.C,KiKit_MB_4_3*%
X135500000Y-58357142D03*
%TD*%
D16*
%TO.C,J2*%
X180840000Y-80460000D03*
D15*
X182540000Y-80460000D03*
D17*
X180840000Y-83000000D03*
D15*
X182540000Y-83000000D03*
D18*
X180840000Y-85540000D03*
D15*
X182540000Y-85540000D03*
D17*
X180840000Y-88080000D03*
D15*
X182540000Y-88080000D03*
D17*
X180840000Y-90620000D03*
D15*
X182540000Y-90620000D03*
D17*
X180840000Y-93160000D03*
D15*
X182540000Y-93160000D03*
D17*
X180840000Y-95700000D03*
D15*
X182550000Y-95700000D03*
D18*
X180840000Y-98240000D03*
D15*
X182540000Y-98240000D03*
D17*
X180840000Y-100780000D03*
D15*
X182540000Y-100780000D03*
D17*
X180840000Y-103320000D03*
D15*
X182540000Y-103320000D03*
D17*
X180840000Y-105860000D03*
D15*
X182540000Y-105860000D03*
D17*
X180840000Y-108400000D03*
D15*
X182530000Y-108400000D03*
D18*
X180840000Y-110940000D03*
D15*
X182540000Y-110940000D03*
D17*
X180840000Y-113480000D03*
D15*
X182540000Y-113480000D03*
D17*
X180840000Y-116020000D03*
D15*
X182540000Y-116020000D03*
D17*
X180840000Y-118560000D03*
D15*
X182540000Y-118560000D03*
D17*
X180840000Y-121100000D03*
D15*
X182540000Y-121110000D03*
D18*
X180840000Y-123640000D03*
D15*
X182540000Y-123640000D03*
D17*
X180840000Y-126180000D03*
D15*
X182540000Y-126190000D03*
D17*
X180840000Y-128720000D03*
D15*
X182540000Y-128720000D03*
%TD*%
D11*
%TO.C,KiKit_MB_10_7*%
X138000000Y-57928571D03*
%TD*%
%TO.C,KiKit_MB_5_8*%
X123000000Y-25000000D03*
%TD*%
%TO.C,KiKit_MB_44_6*%
X182500000Y-113642857D03*
%TD*%
%TO.C,KiKit_MB_21_8*%
X170000000Y-25000000D03*
%TD*%
%TO.C,KiKit_MB_13_4*%
X144785714Y-25000000D03*
%TD*%
D26*
%TO.C,U2*%
X143842500Y-45450000D03*
X143842500Y-45950000D03*
X143842500Y-46450000D03*
X143842500Y-46950000D03*
X146417500Y-46950000D03*
X146417500Y-46450000D03*
X146417500Y-45950000D03*
X146417500Y-45450000D03*
D27*
X145130000Y-46200000D03*
%TD*%
D11*
%TO.C,KiKit_MB_59_5*%
X186166666Y-25000000D03*
%TD*%
%TO.C,KiKit_MB_22_5*%
X175714285Y-25000000D03*
%TD*%
D21*
%TO.C,C16*%
X146260000Y-98260000D03*
X145300000Y-98260000D03*
%TD*%
D11*
%TO.C,KiKit_MB_21_5*%
X168714285Y-25000000D03*
%TD*%
D16*
%TO.C,J2*%
X133840000Y-80460000D03*
D15*
X135540000Y-80460000D03*
D17*
X133840000Y-83000000D03*
D15*
X135540000Y-83000000D03*
D18*
X133840000Y-85540000D03*
D15*
X135540000Y-85540000D03*
D17*
X133840000Y-88080000D03*
D15*
X135540000Y-88080000D03*
D17*
X133840000Y-90620000D03*
D15*
X135540000Y-90620000D03*
D17*
X133840000Y-93160000D03*
D15*
X135540000Y-93160000D03*
D17*
X133840000Y-95700000D03*
D15*
X135550000Y-95700000D03*
D18*
X133840000Y-98240000D03*
D15*
X135540000Y-98240000D03*
D17*
X133840000Y-100780000D03*
D15*
X135540000Y-100780000D03*
D17*
X133840000Y-103320000D03*
D15*
X135540000Y-103320000D03*
D17*
X133840000Y-105860000D03*
D15*
X135540000Y-105860000D03*
D17*
X133840000Y-108400000D03*
D15*
X135530000Y-108400000D03*
D18*
X133840000Y-110940000D03*
D15*
X135540000Y-110940000D03*
D17*
X133840000Y-113480000D03*
D15*
X135540000Y-113480000D03*
D17*
X133840000Y-116020000D03*
D15*
X135540000Y-116020000D03*
D17*
X133840000Y-118560000D03*
D15*
X135540000Y-118560000D03*
D17*
X133840000Y-121100000D03*
D15*
X135540000Y-121110000D03*
D18*
X133840000Y-123640000D03*
D15*
X135540000Y-123640000D03*
D17*
X133840000Y-126180000D03*
D15*
X135540000Y-126190000D03*
D17*
X133840000Y-128720000D03*
D15*
X135540000Y-128720000D03*
%TD*%
D11*
%TO.C,KiKit_MB_39_8*%
X143500000Y-130000000D03*
%TD*%
%TO.C,KiKit_MB_20_5*%
X182500000Y-59214285D03*
%TD*%
D21*
%TO.C,C9*%
X167370000Y-48760000D03*
X166410000Y-48760000D03*
%TD*%
D11*
%TO.C,KiKit_MB_26_7*%
X114500000Y-111928571D03*
%TD*%
%TO.C,KiKit_MB_20_8*%
X182500000Y-60500000D03*
%TD*%
D20*
%TO.C,R8*%
X170000000Y-93520000D03*
X171020000Y-93520000D03*
%TD*%
D10*
%TO.C,C15*%
X121430000Y-114830000D03*
X122390000Y-114830000D03*
%TD*%
D11*
%TO.C,KiKit_MB_45_8*%
X170000000Y-79000000D03*
%TD*%
D28*
%TO.C,U1*%
X144987500Y-50410000D03*
X144987500Y-50810000D03*
X144987500Y-51210000D03*
X144987500Y-51610000D03*
X144987500Y-52010000D03*
X144987500Y-52410000D03*
X144987500Y-52810000D03*
X144987500Y-53210000D03*
X144987500Y-53610000D03*
X144987500Y-54010000D03*
X144987500Y-54410000D03*
X144987500Y-54810000D03*
X144987500Y-55210000D03*
X144987500Y-55610000D03*
D29*
X145825000Y-56447500D03*
X146225000Y-56447500D03*
X146625000Y-56447500D03*
X147025000Y-56447500D03*
X147425000Y-56447500D03*
X147825000Y-56447500D03*
X148225000Y-56447500D03*
X148625000Y-56447500D03*
X149025000Y-56447500D03*
X149425000Y-56447500D03*
X149825000Y-56447500D03*
X150225000Y-56447500D03*
X150625000Y-56447500D03*
X151025000Y-56447500D03*
D28*
X151862500Y-55610000D03*
X151862500Y-55210000D03*
X151862500Y-54810000D03*
X151862500Y-54410000D03*
X151862500Y-54010000D03*
X151862500Y-53610000D03*
X151862500Y-53210000D03*
X151862500Y-52810000D03*
X151862500Y-52410000D03*
X151862500Y-52010000D03*
X151862500Y-51610000D03*
X151862500Y-51210000D03*
X151862500Y-50810000D03*
X151862500Y-50410000D03*
D29*
X151025000Y-49572500D03*
X150625000Y-49572500D03*
X150225000Y-49572500D03*
X149825000Y-49572500D03*
X149425000Y-49572500D03*
X149025000Y-49572500D03*
X148625000Y-49572500D03*
X148225000Y-49572500D03*
X147825000Y-49572500D03*
X147425000Y-49572500D03*
X147025000Y-49572500D03*
X146625000Y-49572500D03*
X146225000Y-49572500D03*
X145825000Y-49572500D03*
D30*
X148425000Y-53010000D03*
%TD*%
D11*
%TO.C,KiKit_MB_6_5*%
X128714285Y-25000000D03*
%TD*%
%TO.C,KiKit_MB_1_8*%
X114500000Y-40500000D03*
%TD*%
%TO.C,KiKit_MB_57_7*%
X112500000Y-25000000D03*
%TD*%
D31*
%TO.C,J4*%
X174850000Y-85350000D03*
X169070000Y-85350000D03*
D32*
X175210000Y-86795000D03*
X174410000Y-86795000D03*
D33*
X173210000Y-86795000D03*
X172210000Y-86795000D03*
X171710000Y-86795000D03*
X170710000Y-86795000D03*
D32*
X169510000Y-86795000D03*
X168710000Y-86795000D03*
X168710000Y-86795000D03*
X169510000Y-86795000D03*
D33*
X170210000Y-86795000D03*
X171210000Y-86795000D03*
X172710000Y-86795000D03*
X173710000Y-86795000D03*
D32*
X174410000Y-86795000D03*
X175210000Y-86795000D03*
D34*
X176280000Y-85880000D03*
D35*
X176280000Y-81700000D03*
D34*
X167640000Y-85880000D03*
D35*
X167640000Y-81700000D03*
%TD*%
D12*
%TO.C,C10*%
X178470000Y-48450000D03*
X178470000Y-47490000D03*
%TD*%
D23*
%TO.C,SW1*%
X174322500Y-65542500D03*
X174322500Y-61452500D03*
X176422500Y-65542500D03*
X176422500Y-61452500D03*
%TD*%
D11*
%TO.C,KiKit_MB_21_2*%
X167428571Y-25000000D03*
%TD*%
%TO.C,KiKit_MB_20_2*%
X182500000Y-57928571D03*
%TD*%
D12*
%TO.C,C3*%
X150970000Y-48290000D03*
X150970000Y-47330000D03*
%TD*%
D11*
%TO.C,KiKit_MB_15_8*%
X143500000Y-76000000D03*
%TD*%
D36*
%TO.C,D3*%
X131150000Y-30227500D03*
X131150000Y-26927500D03*
%TD*%
D11*
%TO.C,KiKit_MB_46_6*%
X176142857Y-79000000D03*
%TD*%
%TO.C,KiKit_MB_34_3*%
X138000000Y-113642857D03*
%TD*%
D20*
%TO.C,R6*%
X142500000Y-88650000D03*
X143520000Y-88650000D03*
%TD*%
D11*
%TO.C,KiKit_MB_23_2*%
X169571428Y-76000000D03*
%TD*%
D14*
%TO.C,R7*%
X148580000Y-114870000D03*
X147560000Y-114870000D03*
%TD*%
%TO.C,R4*%
X154960000Y-96160000D03*
X153940000Y-96160000D03*
%TD*%
D11*
%TO.C,KiKit_MB_45_1*%
X167000000Y-79000000D03*
%TD*%
D28*
%TO.C,U1*%
X144987500Y-104410000D03*
X144987500Y-104810000D03*
X144987500Y-105210000D03*
X144987500Y-105610000D03*
X144987500Y-106010000D03*
X144987500Y-106410000D03*
X144987500Y-106810000D03*
X144987500Y-107210000D03*
X144987500Y-107610000D03*
X144987500Y-108010000D03*
X144987500Y-108410000D03*
X144987500Y-108810000D03*
X144987500Y-109210000D03*
X144987500Y-109610000D03*
D29*
X145825000Y-110447500D03*
X146225000Y-110447500D03*
X146625000Y-110447500D03*
X147025000Y-110447500D03*
X147425000Y-110447500D03*
X147825000Y-110447500D03*
X148225000Y-110447500D03*
X148625000Y-110447500D03*
X149025000Y-110447500D03*
X149425000Y-110447500D03*
X149825000Y-110447500D03*
X150225000Y-110447500D03*
X150625000Y-110447500D03*
X151025000Y-110447500D03*
D28*
X151862500Y-109610000D03*
X151862500Y-109210000D03*
X151862500Y-108810000D03*
X151862500Y-108410000D03*
X151862500Y-108010000D03*
X151862500Y-107610000D03*
X151862500Y-107210000D03*
X151862500Y-106810000D03*
X151862500Y-106410000D03*
X151862500Y-106010000D03*
X151862500Y-105610000D03*
X151862500Y-105210000D03*
X151862500Y-104810000D03*
X151862500Y-104410000D03*
D29*
X151025000Y-103572500D03*
X150625000Y-103572500D03*
X150225000Y-103572500D03*
X149825000Y-103572500D03*
X149425000Y-103572500D03*
X149025000Y-103572500D03*
X148625000Y-103572500D03*
X148225000Y-103572500D03*
X147825000Y-103572500D03*
X147425000Y-103572500D03*
X147025000Y-103572500D03*
X146625000Y-103572500D03*
X146225000Y-103572500D03*
X145825000Y-103572500D03*
D30*
X148425000Y-107010000D03*
%TD*%
D11*
%TO.C,KiKit_MB_8_3*%
X129142857Y-76000000D03*
%TD*%
%TO.C,KiKit_MB_30_3*%
X127857142Y-79000000D03*
%TD*%
D13*
%TO.C,C7*%
X178090000Y-110080000D03*
X178090000Y-111040000D03*
%TD*%
D11*
%TO.C,KiKit_MB_7_7*%
X120428572Y-76000000D03*
%TD*%
%TO.C,KiKit_MB_18_2*%
X161500000Y-60071428D03*
%TD*%
%TO.C,KiKit_MB_58_7*%
X112500000Y-130000000D03*
%TD*%
%TO.C,KiKit_MB_40_7*%
X150928571Y-130000000D03*
%TD*%
D26*
%TO.C,U2*%
X167342500Y-99450000D03*
X167342500Y-99950000D03*
X167342500Y-100450000D03*
X167342500Y-100950000D03*
X169917500Y-100950000D03*
X169917500Y-100450000D03*
X169917500Y-99950000D03*
X169917500Y-99450000D03*
D27*
X168630000Y-100200000D03*
%TD*%
D21*
%TO.C,C13*%
X142930000Y-54420000D03*
X141970000Y-54420000D03*
%TD*%
D11*
%TO.C,KiKit_MB_3_4*%
X135500000Y-41785715D03*
%TD*%
%TO.C,KiKit_MB_34_2*%
X138000000Y-114071428D03*
%TD*%
%TO.C,KiKit_MB_26_2*%
X114500000Y-114071428D03*
%TD*%
%TO.C,KiKit_MB_49_2*%
X136750000Y-78100000D03*
%TD*%
%TO.C,KiKit_MB_2_7*%
X114500000Y-57928571D03*
%TD*%
%TO.C,KiKit_MB_19_7*%
X182500000Y-43071429D03*
%TD*%
%TO.C,KiKit_MB_30_6*%
X129142857Y-79000000D03*
%TD*%
%TO.C,KiKit_MB_49_6*%
X136750000Y-76500000D03*
%TD*%
%TO.C,KiKit_MB_11_5*%
X159000000Y-42214286D03*
%TD*%
%TO.C,KiKit_MB_48_4*%
X175714285Y-130000000D03*
%TD*%
%TO.C,KiKit_MB_30_7*%
X129571428Y-79000000D03*
%TD*%
D12*
%TO.C,C11*%
X152030000Y-48330000D03*
X152030000Y-47370000D03*
%TD*%
D11*
%TO.C,KiKit_MB_38_5*%
X152214285Y-79000000D03*
%TD*%
%TO.C,KiKit_MB_37_4*%
X144785714Y-79000000D03*
%TD*%
%TO.C,KiKit_MB_19_2*%
X182500000Y-40928572D03*
%TD*%
D12*
%TO.C,C5*%
X172660000Y-100060000D03*
X172660000Y-99100000D03*
%TD*%
D25*
%TO.C,R14*%
X170970000Y-89110000D03*
X170970000Y-90130000D03*
%TD*%
D11*
%TO.C,KiKit_MB_26_5*%
X114500000Y-112785714D03*
%TD*%
D14*
%TO.C,R15*%
X155100000Y-34960000D03*
X154080000Y-34960000D03*
%TD*%
D11*
%TO.C,KiKit_MB_46_7*%
X176571428Y-79000000D03*
%TD*%
D12*
%TO.C,C1*%
X147890000Y-47000000D03*
X147890000Y-46040000D03*
%TD*%
D11*
%TO.C,KiKit_MB_31_5*%
X121285715Y-130000000D03*
%TD*%
D20*
%TO.C,FB1*%
X127250000Y-35310000D03*
X128270000Y-35310000D03*
%TD*%
D16*
%TO.C,J2*%
X133840000Y-26460000D03*
D15*
X135540000Y-26460000D03*
D17*
X133840000Y-29000000D03*
D15*
X135540000Y-29000000D03*
D18*
X133840000Y-31540000D03*
D15*
X135540000Y-31540000D03*
D17*
X133840000Y-34080000D03*
D15*
X135540000Y-34080000D03*
D17*
X133840000Y-36620000D03*
D15*
X135540000Y-36620000D03*
D17*
X133840000Y-39160000D03*
D15*
X135540000Y-39160000D03*
D17*
X133840000Y-41700000D03*
D15*
X135550000Y-41700000D03*
D18*
X133840000Y-44240000D03*
D15*
X135540000Y-44240000D03*
D17*
X133840000Y-46780000D03*
D15*
X135540000Y-46780000D03*
D17*
X133840000Y-49320000D03*
D15*
X135540000Y-49320000D03*
D17*
X133840000Y-51860000D03*
D15*
X135540000Y-51860000D03*
D17*
X133840000Y-54400000D03*
D15*
X135530000Y-54400000D03*
D18*
X133840000Y-56940000D03*
D15*
X135540000Y-56940000D03*
D17*
X133840000Y-59480000D03*
D15*
X135540000Y-59480000D03*
D17*
X133840000Y-62020000D03*
D15*
X135540000Y-62020000D03*
D17*
X133840000Y-64560000D03*
D15*
X135540000Y-64560000D03*
D17*
X133840000Y-67100000D03*
D15*
X135540000Y-67110000D03*
D18*
X133840000Y-69640000D03*
D15*
X135540000Y-69640000D03*
D17*
X133840000Y-72180000D03*
D15*
X135540000Y-72190000D03*
D17*
X133840000Y-74720000D03*
D15*
X135540000Y-74720000D03*
%TD*%
D11*
%TO.C,KiKit_MB_49_3*%
X136750000Y-77700000D03*
%TD*%
%TO.C,KiKit_MB_38_8*%
X153500000Y-79000000D03*
%TD*%
%TO.C,KiKit_MB_13_8*%
X146500000Y-25000000D03*
%TD*%
%TO.C,KiKit_MB_35_6*%
X159000000Y-96642857D03*
%TD*%
%TO.C,KiKit_MB_12_6*%
X159000000Y-59642857D03*
%TD*%
D20*
%TO.C,R9*%
X166750000Y-44260000D03*
X167770000Y-44260000D03*
%TD*%
D11*
%TO.C,KiKit_MB_2_1*%
X114500000Y-60500000D03*
%TD*%
D12*
%TO.C,C1*%
X147890000Y-101000000D03*
X147890000Y-100040000D03*
%TD*%
D24*
%TO.C,F1*%
X154640000Y-85832500D03*
X154640000Y-87707500D03*
%TD*%
D11*
%TO.C,KiKit_MB_59_7*%
X187000000Y-25000000D03*
%TD*%
%TO.C,KiKit_MB_60_5*%
X186166666Y-130000000D03*
%TD*%
%TO.C,KiKit_MB_25_5*%
X114500000Y-95785714D03*
%TD*%
D21*
%TO.C,C16*%
X169760000Y-44260000D03*
X168800000Y-44260000D03*
%TD*%
D11*
%TO.C,KiKit_MB_18_7*%
X161500000Y-57928571D03*
%TD*%
D12*
%TO.C,C10*%
X131470000Y-102450000D03*
X131470000Y-101490000D03*
%TD*%
D11*
%TO.C,KiKit_MB_51_6*%
X114500000Y-78500000D03*
%TD*%
%TO.C,KiKit_MB_18_6*%
X161500000Y-58357142D03*
%TD*%
%TO.C,KiKit_MB_55_6*%
X114500000Y-134583333D03*
%TD*%
%TO.C,KiKit_MB_23_8*%
X167000000Y-76000000D03*
%TD*%
%TO.C,KiKit_MB_29_1*%
X120000000Y-79000000D03*
%TD*%
%TO.C,KiKit_MB_25_3*%
X114500000Y-96642857D03*
%TD*%
%TO.C,KiKit_MB_30_1*%
X127000000Y-79000000D03*
%TD*%
D10*
%TO.C,C4*%
X153040000Y-103840000D03*
X154000000Y-103840000D03*
%TD*%
D11*
%TO.C,KiKit_MB_13_1*%
X143500000Y-25000000D03*
%TD*%
%TO.C,KiKit_MB_27_5*%
X135500000Y-96214285D03*
%TD*%
D15*
%TO.C,J1*%
X137970000Y-80490000D03*
D16*
X139670000Y-80490000D03*
D15*
X137970000Y-83030000D03*
D17*
X139670000Y-83030000D03*
D15*
X137970000Y-85570000D03*
D18*
X139670000Y-85570000D03*
D15*
X137970000Y-88110000D03*
D17*
X139670000Y-88110000D03*
D15*
X137970000Y-90650000D03*
D17*
X139670000Y-90650000D03*
D15*
X137970000Y-93190000D03*
D17*
X139670000Y-93190000D03*
D15*
X137960000Y-95730000D03*
D17*
X139670000Y-95730000D03*
D15*
X137970000Y-98270000D03*
D18*
X139670000Y-98270000D03*
D15*
X137970000Y-100810000D03*
D17*
X139670000Y-100810000D03*
D15*
X137970000Y-103350000D03*
D17*
X139670000Y-103350000D03*
D15*
X137970000Y-105890000D03*
D17*
X139670000Y-105890000D03*
D15*
X137980000Y-108430000D03*
D17*
X139670000Y-108430000D03*
D15*
X137970000Y-110970000D03*
D18*
X139670000Y-110970000D03*
D15*
X137970000Y-113510000D03*
D17*
X139670000Y-113510000D03*
D15*
X137970000Y-116050000D03*
D17*
X139670000Y-116050000D03*
D15*
X137970000Y-118590000D03*
D17*
X139670000Y-118590000D03*
D15*
X137970000Y-121140000D03*
D17*
X139670000Y-121130000D03*
D15*
X137970000Y-123670000D03*
D18*
X139670000Y-123670000D03*
D15*
X137970000Y-126220000D03*
D17*
X139670000Y-126210000D03*
D15*
X137970000Y-128750000D03*
D17*
X139670000Y-128750000D03*
%TD*%
D11*
%TO.C,KiKit_MB_32_2*%
X129571428Y-130000000D03*
%TD*%
%TO.C,KiKit_MB_45_3*%
X167857142Y-79000000D03*
%TD*%
%TO.C,KiKit_MB_33_2*%
X138000000Y-97071428D03*
%TD*%
%TO.C,KiKit_MB_3_6*%
X135500000Y-42642858D03*
%TD*%
%TO.C,KiKit_MB_34_5*%
X138000000Y-112785714D03*
%TD*%
D12*
%TO.C,C19*%
X170980000Y-45100000D03*
X170980000Y-44140000D03*
%TD*%
D37*
%TO.C,Q1*%
X166670000Y-93177500D03*
X168570000Y-93177500D03*
X167620000Y-90902500D03*
%TD*%
D25*
%TO.C,R11*%
X149760000Y-88520000D03*
X149760000Y-89540000D03*
%TD*%
D12*
%TO.C,C3*%
X174470000Y-48290000D03*
X174470000Y-47330000D03*
%TD*%
D11*
%TO.C,KiKit_MB_33_4*%
X138000000Y-96214285D03*
%TD*%
D38*
%TO.C,R2*%
X150370000Y-99320000D03*
X150370000Y-98300000D03*
%TD*%
D16*
%TO.C,J2*%
X157340000Y-26460000D03*
D15*
X159040000Y-26460000D03*
D17*
X157340000Y-29000000D03*
D15*
X159040000Y-29000000D03*
D18*
X157340000Y-31540000D03*
D15*
X159040000Y-31540000D03*
D17*
X157340000Y-34080000D03*
D15*
X159040000Y-34080000D03*
D17*
X157340000Y-36620000D03*
D15*
X159040000Y-36620000D03*
D17*
X157340000Y-39160000D03*
D15*
X159040000Y-39160000D03*
D17*
X157340000Y-41700000D03*
D15*
X159050000Y-41700000D03*
D18*
X157340000Y-44240000D03*
D15*
X159040000Y-44240000D03*
D17*
X157340000Y-46780000D03*
D15*
X159040000Y-46780000D03*
D17*
X157340000Y-49320000D03*
D15*
X159040000Y-49320000D03*
D17*
X157340000Y-51860000D03*
D15*
X159040000Y-51860000D03*
D17*
X157340000Y-54400000D03*
D15*
X159030000Y-54400000D03*
D18*
X157340000Y-56940000D03*
D15*
X159040000Y-56940000D03*
D17*
X157340000Y-59480000D03*
D15*
X159040000Y-59480000D03*
D17*
X157340000Y-62020000D03*
D15*
X159040000Y-62020000D03*
D17*
X157340000Y-64560000D03*
D15*
X159040000Y-64560000D03*
D17*
X157340000Y-67100000D03*
D15*
X159040000Y-67110000D03*
D18*
X157340000Y-69640000D03*
D15*
X159040000Y-69640000D03*
D17*
X157340000Y-72180000D03*
D15*
X159040000Y-72190000D03*
D17*
X157340000Y-74720000D03*
D15*
X159040000Y-74720000D03*
%TD*%
D11*
%TO.C,KiKit_MB_11_2*%
X159000000Y-40928572D03*
%TD*%
D25*
%TO.C,R5*%
X176040000Y-97730000D03*
X176040000Y-98750000D03*
%TD*%
D11*
%TO.C,KiKit_MB_28_7*%
X135500000Y-114071428D03*
%TD*%
D28*
%TO.C,U1*%
X168487500Y-50410000D03*
X168487500Y-50810000D03*
X168487500Y-51210000D03*
X168487500Y-51610000D03*
X168487500Y-52010000D03*
X168487500Y-52410000D03*
X168487500Y-52810000D03*
X168487500Y-53210000D03*
X168487500Y-53610000D03*
X168487500Y-54010000D03*
X168487500Y-54410000D03*
X168487500Y-54810000D03*
X168487500Y-55210000D03*
X168487500Y-55610000D03*
D29*
X169325000Y-56447500D03*
X169725000Y-56447500D03*
X170125000Y-56447500D03*
X170525000Y-56447500D03*
X170925000Y-56447500D03*
X171325000Y-56447500D03*
X171725000Y-56447500D03*
X172125000Y-56447500D03*
X172525000Y-56447500D03*
X172925000Y-56447500D03*
X173325000Y-56447500D03*
X173725000Y-56447500D03*
X174125000Y-56447500D03*
X174525000Y-56447500D03*
D28*
X175362500Y-55610000D03*
X175362500Y-55210000D03*
X175362500Y-54810000D03*
X175362500Y-54410000D03*
X175362500Y-54010000D03*
X175362500Y-53610000D03*
X175362500Y-53210000D03*
X175362500Y-52810000D03*
X175362500Y-52410000D03*
X175362500Y-52010000D03*
X175362500Y-51610000D03*
X175362500Y-51210000D03*
X175362500Y-50810000D03*
X175362500Y-50410000D03*
D29*
X174525000Y-49572500D03*
X174125000Y-49572500D03*
X173725000Y-49572500D03*
X173325000Y-49572500D03*
X172925000Y-49572500D03*
X172525000Y-49572500D03*
X172125000Y-49572500D03*
X171725000Y-49572500D03*
X171325000Y-49572500D03*
X170925000Y-49572500D03*
X170525000Y-49572500D03*
X170125000Y-49572500D03*
X169725000Y-49572500D03*
X169325000Y-49572500D03*
D30*
X171925000Y-53010000D03*
%TD*%
D19*
%TO.C,Y1*%
X123810000Y-116260000D03*
X121610000Y-116260000D03*
X121610000Y-117960000D03*
X123810000Y-117960000D03*
%TD*%
D14*
%TO.C,R4*%
X178460000Y-42160000D03*
X177440000Y-42160000D03*
%TD*%
D23*
%TO.C,SW1*%
X150822500Y-65542500D03*
X150822500Y-61452500D03*
X152922500Y-65542500D03*
X152922500Y-61452500D03*
%TD*%
D11*
%TO.C,KiKit_MB_22_2*%
X174428571Y-25000000D03*
%TD*%
%TO.C,KiKit_MB_6_1*%
X127000000Y-25000000D03*
%TD*%
%TO.C,KiKit_MB_15_5*%
X144785714Y-76000000D03*
%TD*%
%TO.C,KiKit_MB_48_8*%
X174000000Y-130000000D03*
%TD*%
%TO.C,KiKit_MB_26_4*%
X114500000Y-113214285D03*
%TD*%
D38*
%TO.C,R10*%
X142460000Y-31900000D03*
X142460000Y-30880000D03*
%TD*%
D23*
%TO.C,SW1*%
X174322500Y-119542500D03*
X174322500Y-115452500D03*
X176422500Y-119542500D03*
X176422500Y-115452500D03*
%TD*%
D11*
%TO.C,KiKit_MB_33_3*%
X138000000Y-96642857D03*
%TD*%
%TO.C,KiKit_MB_34_7*%
X138000000Y-111928571D03*
%TD*%
%TO.C,KiKit_MB_35_1*%
X159000000Y-94500000D03*
%TD*%
D25*
%TO.C,R12*%
X165960000Y-82880000D03*
X165960000Y-83900000D03*
%TD*%
D23*
%TO.C,SW1*%
X127322500Y-65542500D03*
X127322500Y-61452500D03*
X129422500Y-65542500D03*
X129422500Y-61452500D03*
%TD*%
D11*
%TO.C,KiKit_MB_36_2*%
X159000000Y-111928571D03*
%TD*%
%TO.C,KiKit_MB_32_8*%
X127000000Y-130000000D03*
%TD*%
D20*
%TO.C,R8*%
X123000000Y-39520000D03*
X124020000Y-39520000D03*
%TD*%
D11*
%TO.C,KiKit_MB_47_1*%
X170000000Y-130000000D03*
%TD*%
%TO.C,KiKit_MB_44_3*%
X182500000Y-112357142D03*
%TD*%
%TO.C,KiKit_MB_32_3*%
X129142857Y-130000000D03*
%TD*%
D26*
%TO.C,U2*%
X143842500Y-99450000D03*
X143842500Y-99950000D03*
X143842500Y-100450000D03*
X143842500Y-100950000D03*
X146417500Y-100950000D03*
X146417500Y-100450000D03*
X146417500Y-99950000D03*
X146417500Y-99450000D03*
D27*
X145130000Y-100200000D03*
%TD*%
D11*
%TO.C,KiKit_MB_37_2*%
X143928571Y-79000000D03*
%TD*%
%TO.C,KiKit_MB_15_4*%
X145214285Y-76000000D03*
%TD*%
D12*
%TO.C,C1*%
X124390000Y-101000000D03*
X124390000Y-100040000D03*
%TD*%
D11*
%TO.C,KiKit_MB_33_7*%
X138000000Y-94928571D03*
%TD*%
%TO.C,KiKit_MB_40_1*%
X153500000Y-130000000D03*
%TD*%
%TO.C,KiKit_MB_36_1*%
X159000000Y-111500000D03*
%TD*%
%TO.C,KiKit_MB_58_5*%
X111666667Y-130000000D03*
%TD*%
%TO.C,KiKit_MB_29_4*%
X121285715Y-79000000D03*
%TD*%
%TO.C,KiKit_MB_55_5*%
X114500000Y-134166666D03*
%TD*%
%TO.C,KiKit_MB_40_3*%
X152642857Y-130000000D03*
%TD*%
D22*
%TO.C,D2*%
X145465000Y-34650000D03*
X144495000Y-34650000D03*
%TD*%
D11*
%TO.C,KiKit_MB_42_8*%
X161500000Y-111500000D03*
%TD*%
D13*
%TO.C,C2*%
X172210000Y-58980000D03*
X172210000Y-59940000D03*
%TD*%
D11*
%TO.C,KiKit_MB_32_1*%
X130000000Y-130000000D03*
%TD*%
D25*
%TO.C,R14*%
X147470000Y-89110000D03*
X147470000Y-90130000D03*
%TD*%
D11*
%TO.C,KiKit_MB_8_1*%
X130000000Y-76000000D03*
%TD*%
D36*
%TO.C,D3*%
X131150000Y-84227500D03*
X131150000Y-80927500D03*
%TD*%
D20*
%TO.C,R6*%
X166000000Y-88650000D03*
X167020000Y-88650000D03*
%TD*%
D11*
%TO.C,KiKit_MB_3_8*%
X135500000Y-43500000D03*
%TD*%
D38*
%TO.C,R13*%
X170000000Y-90130000D03*
X170000000Y-89110000D03*
%TD*%
D11*
%TO.C,KiKit_MB_42_2*%
X161500000Y-114071428D03*
%TD*%
%TO.C,KiKit_MB_55_7*%
X114500000Y-135000000D03*
%TD*%
%TO.C,KiKit_MB_60_3*%
X185333333Y-130000000D03*
%TD*%
%TO.C,KiKit_MB_52_6*%
X182500000Y-78500000D03*
%TD*%
%TO.C,KiKit_MB_5_2*%
X120428572Y-25000000D03*
%TD*%
%TO.C,KiKit_MB_47_3*%
X169142857Y-130000000D03*
%TD*%
D38*
%TO.C,R1*%
X149180000Y-98030000D03*
X149180000Y-97010000D03*
%TD*%
D13*
%TO.C,C6*%
X171240000Y-112970000D03*
X171240000Y-113930000D03*
%TD*%
D11*
%TO.C,KiKit_MB_19_4*%
X182500000Y-41785715D03*
%TD*%
D12*
%TO.C,C10*%
X131470000Y-48450000D03*
X131470000Y-47490000D03*
%TD*%
D11*
%TO.C,KiKit_MB_9_8*%
X138000000Y-40500000D03*
%TD*%
D19*
%TO.C,Y1*%
X123810000Y-62260000D03*
X121610000Y-62260000D03*
X121610000Y-63960000D03*
X123810000Y-63960000D03*
%TD*%
D11*
%TO.C,KiKit_MB_40_2*%
X153071428Y-130000000D03*
%TD*%
D13*
%TO.C,C14*%
X172370000Y-115830000D03*
X172370000Y-116790000D03*
%TD*%
D11*
%TO.C,KiKit_MB_54_1*%
X182500000Y-20000000D03*
%TD*%
D25*
%TO.C,R5*%
X152540000Y-97730000D03*
X152540000Y-98750000D03*
%TD*%
D19*
%TO.C,Y1*%
X147310000Y-116260000D03*
X145110000Y-116260000D03*
X145110000Y-117960000D03*
X147310000Y-117960000D03*
%TD*%
D11*
%TO.C,KiKit_MB_48_7*%
X174428571Y-130000000D03*
%TD*%
%TO.C,KiKit_MB_1_7*%
X114500000Y-40928572D03*
%TD*%
%TO.C,KiKit_MB_38_2*%
X150928571Y-79000000D03*
%TD*%
D10*
%TO.C,C15*%
X144930000Y-114830000D03*
X145890000Y-114830000D03*
%TD*%
D38*
%TO.C,R10*%
X165960000Y-31900000D03*
X165960000Y-30880000D03*
%TD*%
D39*
%TO.C,SW2*%
X170980000Y-97060000D03*
X166890000Y-97060000D03*
X170980000Y-94960000D03*
X166890000Y-94960000D03*
%TD*%
D11*
%TO.C,KiKit_MB_48_3*%
X176142857Y-130000000D03*
%TD*%
D20*
%TO.C,R6*%
X166000000Y-34650000D03*
X167020000Y-34650000D03*
%TD*%
D11*
%TO.C,KiKit_MB_48_6*%
X174857142Y-130000000D03*
%TD*%
%TO.C,KiKit_MB_2_5*%
X114500000Y-58785714D03*
%TD*%
%TO.C,KiKit_MB_5_3*%
X120857143Y-25000000D03*
%TD*%
D10*
%TO.C,C15*%
X144930000Y-60830000D03*
X145890000Y-60830000D03*
%TD*%
D13*
%TO.C,C6*%
X171240000Y-58970000D03*
X171240000Y-59930000D03*
%TD*%
D11*
%TO.C,KiKit_MB_1_3*%
X114500000Y-42642858D03*
%TD*%
%TO.C,KiKit_MB_22_7*%
X176571428Y-25000000D03*
%TD*%
D39*
%TO.C,SW2*%
X147480000Y-97060000D03*
X143390000Y-97060000D03*
X147480000Y-94960000D03*
X143390000Y-94960000D03*
%TD*%
D11*
%TO.C,KiKit_MB_17_5*%
X161500000Y-41785715D03*
%TD*%
D24*
%TO.C,F1*%
X178140000Y-31832500D03*
X178140000Y-33707500D03*
%TD*%
D11*
%TO.C,KiKit_MB_40_6*%
X151357142Y-130000000D03*
%TD*%
D14*
%TO.C,R15*%
X131600000Y-88960000D03*
X130580000Y-88960000D03*
%TD*%
D11*
%TO.C,KiKit_MB_42_3*%
X161500000Y-113642857D03*
%TD*%
%TO.C,KiKit_MB_42_6*%
X161500000Y-112357142D03*
%TD*%
D38*
%TO.C,R13*%
X170000000Y-36130000D03*
X170000000Y-35110000D03*
%TD*%
D12*
%TO.C,C12*%
X129580000Y-48780000D03*
X129580000Y-47820000D03*
%TD*%
D11*
%TO.C,KiKit_MB_44_7*%
X182500000Y-114071428D03*
%TD*%
%TO.C,KiKit_MB_28_8*%
X135500000Y-114500000D03*
%TD*%
%TO.C,KiKit_MB_4_2*%
X135500000Y-57928571D03*
%TD*%
D12*
%TO.C,C3*%
X150970000Y-102290000D03*
X150970000Y-101330000D03*
%TD*%
D11*
%TO.C,KiKit_MB_46_4*%
X175285714Y-79000000D03*
%TD*%
%TO.C,KiKit_MB_46_8*%
X177000000Y-79000000D03*
%TD*%
D13*
%TO.C,C7*%
X178090000Y-56080000D03*
X178090000Y-57040000D03*
%TD*%
D15*
%TO.C,J1*%
X114470000Y-26490000D03*
D16*
X116170000Y-26490000D03*
D15*
X114470000Y-29030000D03*
D17*
X116170000Y-29030000D03*
D15*
X114470000Y-31570000D03*
D18*
X116170000Y-31570000D03*
D15*
X114470000Y-34110000D03*
D17*
X116170000Y-34110000D03*
D15*
X114470000Y-36650000D03*
D17*
X116170000Y-36650000D03*
D15*
X114470000Y-39190000D03*
D17*
X116170000Y-39190000D03*
D15*
X114460000Y-41730000D03*
D17*
X116170000Y-41730000D03*
D15*
X114470000Y-44270000D03*
D18*
X116170000Y-44270000D03*
D15*
X114470000Y-46810000D03*
D17*
X116170000Y-46810000D03*
D15*
X114470000Y-49350000D03*
D17*
X116170000Y-49350000D03*
D15*
X114470000Y-51890000D03*
D17*
X116170000Y-51890000D03*
D15*
X114480000Y-54430000D03*
D17*
X116170000Y-54430000D03*
D15*
X114470000Y-56970000D03*
D18*
X116170000Y-56970000D03*
D15*
X114470000Y-59510000D03*
D17*
X116170000Y-59510000D03*
D15*
X114470000Y-62050000D03*
D17*
X116170000Y-62050000D03*
D15*
X114470000Y-64590000D03*
D17*
X116170000Y-64590000D03*
D15*
X114470000Y-67140000D03*
D17*
X116170000Y-67130000D03*
D15*
X114470000Y-69670000D03*
D18*
X116170000Y-69670000D03*
D15*
X114470000Y-72220000D03*
D17*
X116170000Y-72210000D03*
D15*
X114470000Y-74750000D03*
D17*
X116170000Y-74750000D03*
%TD*%
D11*
%TO.C,KiKit_MB_47_4*%
X168714285Y-130000000D03*
%TD*%
D31*
%TO.C,J4*%
X127850000Y-31350000D03*
X122070000Y-31350000D03*
D32*
X128210000Y-32795000D03*
X127410000Y-32795000D03*
D33*
X126210000Y-32795000D03*
X125210000Y-32795000D03*
X124710000Y-32795000D03*
X123710000Y-32795000D03*
D32*
X122510000Y-32795000D03*
X121710000Y-32795000D03*
X121710000Y-32795000D03*
X122510000Y-32795000D03*
D33*
X123210000Y-32795000D03*
X124210000Y-32795000D03*
X125710000Y-32795000D03*
X126710000Y-32795000D03*
D32*
X127410000Y-32795000D03*
X128210000Y-32795000D03*
D34*
X129280000Y-31880000D03*
D35*
X129280000Y-27700000D03*
D34*
X120640000Y-31880000D03*
D35*
X120640000Y-27700000D03*
%TD*%
D11*
%TO.C,KiKit_MB_1_4*%
X114500000Y-42214286D03*
%TD*%
D13*
%TO.C,C7*%
X154590000Y-110080000D03*
X154590000Y-111040000D03*
%TD*%
D25*
%TO.C,R14*%
X123970000Y-89110000D03*
X123970000Y-90130000D03*
%TD*%
D11*
%TO.C,KiKit_MB_28_4*%
X135500000Y-112785714D03*
%TD*%
%TO.C,KiKit_MB_17_6*%
X161500000Y-41357143D03*
%TD*%
D10*
%TO.C,C15*%
X168430000Y-114830000D03*
X169390000Y-114830000D03*
%TD*%
D11*
%TO.C,KiKit_MB_8_2*%
X129571428Y-76000000D03*
%TD*%
%TO.C,KiKit_MB_10_8*%
X138000000Y-57500000D03*
%TD*%
D20*
%TO.C,R8*%
X146500000Y-93520000D03*
X147520000Y-93520000D03*
%TD*%
D11*
%TO.C,KiKit_MB_42_4*%
X161500000Y-113214285D03*
%TD*%
%TO.C,KiKit_MB_4_7*%
X135500000Y-60071428D03*
%TD*%
D15*
%TO.C,J1*%
X161470000Y-80490000D03*
D16*
X163170000Y-80490000D03*
D15*
X161470000Y-83030000D03*
D17*
X163170000Y-83030000D03*
D15*
X161470000Y-85570000D03*
D18*
X163170000Y-85570000D03*
D15*
X161470000Y-88110000D03*
D17*
X163170000Y-88110000D03*
D15*
X161470000Y-90650000D03*
D17*
X163170000Y-90650000D03*
D15*
X161470000Y-93190000D03*
D17*
X163170000Y-93190000D03*
D15*
X161460000Y-95730000D03*
D17*
X163170000Y-95730000D03*
D15*
X161470000Y-98270000D03*
D18*
X163170000Y-98270000D03*
D15*
X161470000Y-100810000D03*
D17*
X163170000Y-100810000D03*
D15*
X161470000Y-103350000D03*
D17*
X163170000Y-103350000D03*
D15*
X161470000Y-105890000D03*
D17*
X163170000Y-105890000D03*
D15*
X161480000Y-108430000D03*
D17*
X163170000Y-108430000D03*
D15*
X161470000Y-110970000D03*
D18*
X163170000Y-110970000D03*
D15*
X161470000Y-113510000D03*
D17*
X163170000Y-113510000D03*
D15*
X161470000Y-116050000D03*
D17*
X163170000Y-116050000D03*
D15*
X161470000Y-118590000D03*
D17*
X163170000Y-118590000D03*
D15*
X161470000Y-121140000D03*
D17*
X163170000Y-121130000D03*
D15*
X161470000Y-123670000D03*
D18*
X163170000Y-123670000D03*
D15*
X161470000Y-126220000D03*
D17*
X163170000Y-126210000D03*
D15*
X161470000Y-128750000D03*
D17*
X163170000Y-128750000D03*
%TD*%
D11*
%TO.C,KiKit_MB_51_5*%
X114500000Y-78100000D03*
%TD*%
%TO.C,KiKit_MB_7_2*%
X122571429Y-76000000D03*
%TD*%
D38*
%TO.C,R2*%
X173870000Y-99320000D03*
X173870000Y-98300000D03*
%TD*%
D13*
%TO.C,C6*%
X124240000Y-58970000D03*
X124240000Y-59930000D03*
%TD*%
D11*
%TO.C,KiKit_MB_11_6*%
X159000000Y-42642858D03*
%TD*%
%TO.C,KiKit_MB_6_3*%
X127857142Y-25000000D03*
%TD*%
%TO.C,KiKit_MB_22_8*%
X177000000Y-25000000D03*
%TD*%
%TO.C,KiKit_MB_44_8*%
X182500000Y-114500000D03*
%TD*%
%TO.C,KiKit_MB_29_8*%
X123000000Y-79000000D03*
%TD*%
%TO.C,KiKit_MB_59_2*%
X184916666Y-25000000D03*
%TD*%
%TO.C,KiKit_MB_27_3*%
X135500000Y-95357142D03*
%TD*%
%TO.C,KiKit_MB_12_2*%
X159000000Y-57928571D03*
%TD*%
%TO.C,KiKit_MB_54_2*%
X182500000Y-20416667D03*
%TD*%
%TO.C,KiKit_MB_43_6*%
X182500000Y-96642857D03*
%TD*%
%TO.C,KiKit_MB_11_1*%
X159000000Y-40500000D03*
%TD*%
D26*
%TO.C,U2*%
X120342500Y-45450000D03*
X120342500Y-45950000D03*
X120342500Y-46450000D03*
X120342500Y-46950000D03*
X122917500Y-46950000D03*
X122917500Y-46450000D03*
X122917500Y-45950000D03*
X122917500Y-45450000D03*
D27*
X121630000Y-46200000D03*
%TD*%
D21*
%TO.C,C13*%
X166430000Y-54420000D03*
X165470000Y-54420000D03*
%TD*%
D11*
%TO.C,KiKit_MB_54_4*%
X182500000Y-21250000D03*
%TD*%
%TO.C,KiKit_MB_24_1*%
X177000000Y-76000000D03*
%TD*%
%TO.C,KiKit_MB_11_7*%
X159000000Y-43071429D03*
%TD*%
D25*
%TO.C,R5*%
X176040000Y-43730000D03*
X176040000Y-44750000D03*
%TD*%
D11*
%TO.C,KiKit_MB_17_4*%
X161500000Y-42214286D03*
%TD*%
%TO.C,KiKit_MB_54_3*%
X182500000Y-20833334D03*
%TD*%
D17*
%TO.C,J3*%
X122525000Y-74470000D03*
D40*
X125065000Y-74470000D03*
D17*
X127605000Y-74470000D03*
%TD*%
D13*
%TO.C,C2*%
X125210000Y-58980000D03*
X125210000Y-59940000D03*
%TD*%
D11*
%TO.C,KiKit_MB_19_3*%
X182500000Y-41357143D03*
%TD*%
D25*
%TO.C,R11*%
X126260000Y-34520000D03*
X126260000Y-35540000D03*
%TD*%
D11*
%TO.C,KiKit_MB_4_5*%
X135500000Y-59214285D03*
%TD*%
D39*
%TO.C,SW2*%
X123980000Y-97060000D03*
X119890000Y-97060000D03*
X123980000Y-94960000D03*
X119890000Y-94960000D03*
%TD*%
D11*
%TO.C,KiKit_MB_57_6*%
X112083334Y-25000000D03*
%TD*%
%TO.C,KiKit_MB_14_5*%
X152214285Y-25000000D03*
%TD*%
%TO.C,KiKit_MB_46_2*%
X174428571Y-79000000D03*
%TD*%
D26*
%TO.C,U2*%
X167342500Y-45450000D03*
X167342500Y-45950000D03*
X167342500Y-46450000D03*
X167342500Y-46950000D03*
X169917500Y-46950000D03*
X169917500Y-46450000D03*
X169917500Y-45950000D03*
X169917500Y-45450000D03*
D27*
X168630000Y-46200000D03*
%TD*%
D11*
%TO.C,KiKit_MB_19_6*%
X182500000Y-42642858D03*
%TD*%
%TO.C,KiKit_MB_36_4*%
X159000000Y-112785714D03*
%TD*%
D21*
%TO.C,C16*%
X122760000Y-98260000D03*
X121800000Y-98260000D03*
%TD*%
D11*
%TO.C,KiKit_MB_16_3*%
X152642857Y-76000000D03*
%TD*%
%TO.C,KiKit_MB_51_2*%
X114500000Y-76900000D03*
%TD*%
D28*
%TO.C,U1*%
X121487500Y-104410000D03*
X121487500Y-104810000D03*
X121487500Y-105210000D03*
X121487500Y-105610000D03*
X121487500Y-106010000D03*
X121487500Y-106410000D03*
X121487500Y-106810000D03*
X121487500Y-107210000D03*
X121487500Y-107610000D03*
X121487500Y-108010000D03*
X121487500Y-108410000D03*
X121487500Y-108810000D03*
X121487500Y-109210000D03*
X121487500Y-109610000D03*
D29*
X122325000Y-110447500D03*
X122725000Y-110447500D03*
X123125000Y-110447500D03*
X123525000Y-110447500D03*
X123925000Y-110447500D03*
X124325000Y-110447500D03*
X124725000Y-110447500D03*
X125125000Y-110447500D03*
X125525000Y-110447500D03*
X125925000Y-110447500D03*
X126325000Y-110447500D03*
X126725000Y-110447500D03*
X127125000Y-110447500D03*
X127525000Y-110447500D03*
D28*
X128362500Y-109610000D03*
X128362500Y-109210000D03*
X128362500Y-108810000D03*
X128362500Y-108410000D03*
X128362500Y-108010000D03*
X128362500Y-107610000D03*
X128362500Y-107210000D03*
X128362500Y-106810000D03*
X128362500Y-106410000D03*
X128362500Y-106010000D03*
X128362500Y-105610000D03*
X128362500Y-105210000D03*
X128362500Y-104810000D03*
X128362500Y-104410000D03*
D29*
X127525000Y-103572500D03*
X127125000Y-103572500D03*
X126725000Y-103572500D03*
X126325000Y-103572500D03*
X125925000Y-103572500D03*
X125525000Y-103572500D03*
X125125000Y-103572500D03*
X124725000Y-103572500D03*
X124325000Y-103572500D03*
X123925000Y-103572500D03*
X123525000Y-103572500D03*
X123125000Y-103572500D03*
X122725000Y-103572500D03*
X122325000Y-103572500D03*
D30*
X124925000Y-107010000D03*
%TD*%
D11*
%TO.C,KiKit_MB_4_1*%
X135500000Y-57500000D03*
%TD*%
%TO.C,KiKit_MB_37_6*%
X145642857Y-79000000D03*
%TD*%
%TO.C,KiKit_MB_56_1*%
X182500000Y-132500000D03*
%TD*%
D20*
%TO.C,FB1*%
X174250000Y-89310000D03*
X175270000Y-89310000D03*
%TD*%
D25*
%TO.C,R3*%
X154880000Y-93960000D03*
X154880000Y-94980000D03*
%TD*%
D12*
%TO.C,C12*%
X153080000Y-48780000D03*
X153080000Y-47820000D03*
%TD*%
D14*
%TO.C,R7*%
X125080000Y-60870000D03*
X124060000Y-60870000D03*
%TD*%
D25*
%TO.C,R11*%
X149760000Y-34520000D03*
X149760000Y-35540000D03*
%TD*%
D36*
%TO.C,D3*%
X178150000Y-30227500D03*
X178150000Y-26927500D03*
%TD*%
D14*
%TO.C,R15*%
X155100000Y-88960000D03*
X154080000Y-88960000D03*
%TD*%
D11*
%TO.C,KiKit_MB_37_5*%
X145214285Y-79000000D03*
%TD*%
%TO.C,KiKit_MB_45_2*%
X167428571Y-79000000D03*
%TD*%
%TO.C,KiKit_MB_4_8*%
X135500000Y-60500000D03*
%TD*%
%TO.C,KiKit_MB_46_3*%
X174857142Y-79000000D03*
%TD*%
%TO.C,KiKit_MB_14_3*%
X151357142Y-25000000D03*
%TD*%
%TO.C,KiKit_MB_56_3*%
X182500000Y-133333333D03*
%TD*%
%TO.C,KiKit_MB_57_5*%
X111666667Y-25000000D03*
%TD*%
%TO.C,KiKit_MB_51_4*%
X114500000Y-77700000D03*
%TD*%
D39*
%TO.C,SW2*%
X147480000Y-43060000D03*
X143390000Y-43060000D03*
X147480000Y-40960000D03*
X143390000Y-40960000D03*
%TD*%
D11*
%TO.C,KiKit_MB_17_2*%
X161500000Y-43071429D03*
%TD*%
D37*
%TO.C,Q1*%
X119670000Y-93177500D03*
X121570000Y-93177500D03*
X120620000Y-90902500D03*
%TD*%
%TO.C,Q1*%
X143170000Y-39177500D03*
X145070000Y-39177500D03*
X144120000Y-36902500D03*
%TD*%
D25*
%TO.C,R3*%
X178380000Y-39960000D03*
X178380000Y-40980000D03*
%TD*%
D38*
%TO.C,R1*%
X172680000Y-44030000D03*
X172680000Y-43010000D03*
%TD*%
D11*
%TO.C,KiKit_MB_8_7*%
X127428571Y-76000000D03*
%TD*%
D13*
%TO.C,C2*%
X125210000Y-112980000D03*
X125210000Y-113940000D03*
%TD*%
D41*
%TO.C,D1*%
X153650000Y-43765000D03*
X153650000Y-44735000D03*
%TD*%
D11*
%TO.C,KiKit_MB_40_4*%
X152214285Y-130000000D03*
%TD*%
%TO.C,KiKit_MB_10_3*%
X138000000Y-59642857D03*
%TD*%
%TO.C,KiKit_MB_11_4*%
X159000000Y-41785715D03*
%TD*%
%TO.C,KiKit_MB_52_3*%
X182500000Y-77300000D03*
%TD*%
%TO.C,KiKit_MB_53_7*%
X114500000Y-22500000D03*
%TD*%
%TO.C,KiKit_MB_57_3*%
X110833334Y-25000000D03*
%TD*%
D25*
%TO.C,R12*%
X165960000Y-28880000D03*
X165960000Y-29900000D03*
%TD*%
D38*
%TO.C,R2*%
X126870000Y-99320000D03*
X126870000Y-98300000D03*
%TD*%
D11*
%TO.C,KiKit_MB_9_1*%
X138000000Y-43500000D03*
%TD*%
%TO.C,KiKit_MB_23_4*%
X168714285Y-76000000D03*
%TD*%
%TO.C,KiKit_MB_54_5*%
X182500000Y-21666667D03*
%TD*%
D13*
%TO.C,C7*%
X131090000Y-56080000D03*
X131090000Y-57040000D03*
%TD*%
D42*
%TO.C,U3*%
X129870000Y-37402500D03*
X128920000Y-37402500D03*
X127970000Y-37402500D03*
X127970000Y-39677500D03*
X129870000Y-39677500D03*
%TD*%
D11*
%TO.C,KiKit_MB_47_7*%
X167428571Y-130000000D03*
%TD*%
%TO.C,KiKit_MB_38_7*%
X153071428Y-79000000D03*
%TD*%
D25*
%TO.C,R5*%
X129040000Y-97730000D03*
X129040000Y-98750000D03*
%TD*%
D11*
%TO.C,KiKit_MB_10_2*%
X138000000Y-60071428D03*
%TD*%
D37*
%TO.C,Q1*%
X119670000Y-39177500D03*
X121570000Y-39177500D03*
X120620000Y-36902500D03*
%TD*%
D11*
%TO.C,KiKit_MB_44_2*%
X182500000Y-111928571D03*
%TD*%
%TO.C,KiKit_MB_37_3*%
X144357142Y-79000000D03*
%TD*%
%TO.C,KiKit_MB_56_5*%
X182500000Y-134166666D03*
%TD*%
D14*
%TO.C,R7*%
X148580000Y-60870000D03*
X147560000Y-60870000D03*
%TD*%
D38*
%TO.C,R1*%
X149180000Y-44030000D03*
X149180000Y-43010000D03*
%TD*%
D24*
%TO.C,F1*%
X178140000Y-85832500D03*
X178140000Y-87707500D03*
%TD*%
D12*
%TO.C,C17*%
X165940000Y-27880000D03*
X165940000Y-26920000D03*
%TD*%
D25*
%TO.C,R12*%
X118960000Y-28880000D03*
X118960000Y-29900000D03*
%TD*%
D11*
%TO.C,KiKit_MB_47_6*%
X167857142Y-130000000D03*
%TD*%
%TO.C,KiKit_MB_13_6*%
X145642857Y-25000000D03*
%TD*%
D21*
%TO.C,C8*%
X142930000Y-55400000D03*
X141970000Y-55400000D03*
%TD*%
%TO.C,C13*%
X142930000Y-108420000D03*
X141970000Y-108420000D03*
%TD*%
D20*
%TO.C,R9*%
X166750000Y-98260000D03*
X167770000Y-98260000D03*
%TD*%
D11*
%TO.C,KiKit_MB_50_4*%
X160250000Y-77700000D03*
%TD*%
D41*
%TO.C,D1*%
X177150000Y-97765000D03*
X177150000Y-98735000D03*
%TD*%
D11*
%TO.C,KiKit_MB_12_5*%
X159000000Y-59214285D03*
%TD*%
%TO.C,KiKit_MB_24_6*%
X174857142Y-76000000D03*
%TD*%
D31*
%TO.C,J4*%
X151350000Y-31350000D03*
X145570000Y-31350000D03*
D32*
X151710000Y-32795000D03*
X150910000Y-32795000D03*
D33*
X149710000Y-32795000D03*
X148710000Y-32795000D03*
X148210000Y-32795000D03*
X147210000Y-32795000D03*
D32*
X146010000Y-32795000D03*
X145210000Y-32795000D03*
X145210000Y-32795000D03*
X146010000Y-32795000D03*
D33*
X146710000Y-32795000D03*
X147710000Y-32795000D03*
X149210000Y-32795000D03*
X150210000Y-32795000D03*
D32*
X150910000Y-32795000D03*
X151710000Y-32795000D03*
D34*
X152780000Y-31880000D03*
D35*
X152780000Y-27700000D03*
D34*
X144140000Y-31880000D03*
D35*
X144140000Y-27700000D03*
%TD*%
D11*
%TO.C,KiKit_MB_25_2*%
X114500000Y-97071428D03*
%TD*%
%TO.C,KiKit_MB_41_5*%
X161500000Y-95785714D03*
%TD*%
%TO.C,KiKit_MB_13_3*%
X144357142Y-25000000D03*
%TD*%
%TO.C,KiKit_MB_9_7*%
X138000000Y-40928572D03*
%TD*%
%TO.C,KiKit_MB_45_4*%
X168285714Y-79000000D03*
%TD*%
D21*
%TO.C,C9*%
X143870000Y-48760000D03*
X142910000Y-48760000D03*
%TD*%
D15*
%TO.C,J1*%
X161470000Y-26490000D03*
D16*
X163170000Y-26490000D03*
D15*
X161470000Y-29030000D03*
D17*
X163170000Y-29030000D03*
D15*
X161470000Y-31570000D03*
D18*
X163170000Y-31570000D03*
D15*
X161470000Y-34110000D03*
D17*
X163170000Y-34110000D03*
D15*
X161470000Y-36650000D03*
D17*
X163170000Y-36650000D03*
D15*
X161470000Y-39190000D03*
D17*
X163170000Y-39190000D03*
D15*
X161460000Y-41730000D03*
D17*
X163170000Y-41730000D03*
D15*
X161470000Y-44270000D03*
D18*
X163170000Y-44270000D03*
D15*
X161470000Y-46810000D03*
D17*
X163170000Y-46810000D03*
D15*
X161470000Y-49350000D03*
D17*
X163170000Y-49350000D03*
D15*
X161470000Y-51890000D03*
D17*
X163170000Y-51890000D03*
D15*
X161480000Y-54430000D03*
D17*
X163170000Y-54430000D03*
D15*
X161470000Y-56970000D03*
D18*
X163170000Y-56970000D03*
D15*
X161470000Y-59510000D03*
D17*
X163170000Y-59510000D03*
D15*
X161470000Y-62050000D03*
D17*
X163170000Y-62050000D03*
D15*
X161470000Y-64590000D03*
D17*
X163170000Y-64590000D03*
D15*
X161470000Y-67140000D03*
D17*
X163170000Y-67130000D03*
D15*
X161470000Y-69670000D03*
D18*
X163170000Y-69670000D03*
D15*
X161470000Y-72220000D03*
D17*
X163170000Y-72210000D03*
D15*
X161470000Y-74750000D03*
D17*
X163170000Y-74750000D03*
%TD*%
D11*
%TO.C,KiKit_MB_1_5*%
X114500000Y-41785715D03*
%TD*%
%TO.C,KiKit_MB_34_1*%
X138000000Y-114500000D03*
%TD*%
D17*
%TO.C,J3*%
X146025000Y-74470000D03*
D40*
X148565000Y-74470000D03*
D17*
X151105000Y-74470000D03*
%TD*%
D12*
%TO.C,C11*%
X175530000Y-48330000D03*
X175530000Y-47370000D03*
%TD*%
D11*
%TO.C,KiKit_MB_7_1*%
X123000000Y-76000000D03*
%TD*%
%TO.C,KiKit_MB_20_3*%
X182500000Y-58357142D03*
%TD*%
D42*
%TO.C,U3*%
X176870000Y-37402500D03*
X175920000Y-37402500D03*
X174970000Y-37402500D03*
X174970000Y-39677500D03*
X176870000Y-39677500D03*
%TD*%
D11*
%TO.C,KiKit_MB_24_2*%
X176571428Y-76000000D03*
%TD*%
D14*
%TO.C,R15*%
X178600000Y-34960000D03*
X177580000Y-34960000D03*
%TD*%
D12*
%TO.C,C17*%
X142440000Y-27880000D03*
X142440000Y-26920000D03*
%TD*%
D11*
%TO.C,KiKit_MB_2_3*%
X114500000Y-59642857D03*
%TD*%
%TO.C,KiKit_MB_22_1*%
X174000000Y-25000000D03*
%TD*%
%TO.C,KiKit_MB_53_2*%
X114500000Y-20416667D03*
%TD*%
%TO.C,KiKit_MB_31_1*%
X123000000Y-130000000D03*
%TD*%
%TO.C,KiKit_MB_43_2*%
X182500000Y-94928571D03*
%TD*%
D28*
%TO.C,U1*%
X168487500Y-104410000D03*
X168487500Y-104810000D03*
X168487500Y-105210000D03*
X168487500Y-105610000D03*
X168487500Y-106010000D03*
X168487500Y-106410000D03*
X168487500Y-106810000D03*
X168487500Y-107210000D03*
X168487500Y-107610000D03*
X168487500Y-108010000D03*
X168487500Y-108410000D03*
X168487500Y-108810000D03*
X168487500Y-109210000D03*
X168487500Y-109610000D03*
D29*
X169325000Y-110447500D03*
X169725000Y-110447500D03*
X170125000Y-110447500D03*
X170525000Y-110447500D03*
X170925000Y-110447500D03*
X171325000Y-110447500D03*
X171725000Y-110447500D03*
X172125000Y-110447500D03*
X172525000Y-110447500D03*
X172925000Y-110447500D03*
X173325000Y-110447500D03*
X173725000Y-110447500D03*
X174125000Y-110447500D03*
X174525000Y-110447500D03*
D28*
X175362500Y-109610000D03*
X175362500Y-109210000D03*
X175362500Y-108810000D03*
X175362500Y-108410000D03*
X175362500Y-108010000D03*
X175362500Y-107610000D03*
X175362500Y-107210000D03*
X175362500Y-106810000D03*
X175362500Y-106410000D03*
X175362500Y-106010000D03*
X175362500Y-105610000D03*
X175362500Y-105210000D03*
X175362500Y-104810000D03*
X175362500Y-104410000D03*
D29*
X174525000Y-103572500D03*
X174125000Y-103572500D03*
X173725000Y-103572500D03*
X173325000Y-103572500D03*
X172925000Y-103572500D03*
X172525000Y-103572500D03*
X172125000Y-103572500D03*
X171725000Y-103572500D03*
X171325000Y-103572500D03*
X170925000Y-103572500D03*
X170525000Y-103572500D03*
X170125000Y-103572500D03*
X169725000Y-103572500D03*
X169325000Y-103572500D03*
D30*
X171925000Y-107010000D03*
%TD*%
D11*
%TO.C,KiKit_MB_43_8*%
X182500000Y-97500000D03*
%TD*%
%TO.C,KiKit_MB_53_4*%
X114500000Y-21250000D03*
%TD*%
%TO.C,KiKit_MB_52_1*%
X182500000Y-76500000D03*
%TD*%
%TO.C,KiKit_MB_26_6*%
X114500000Y-112357142D03*
%TD*%
%TO.C,KiKit_MB_40_5*%
X151785714Y-130000000D03*
%TD*%
D41*
%TO.C,D1*%
X130150000Y-43765000D03*
X130150000Y-44735000D03*
%TD*%
D25*
%TO.C,R14*%
X170970000Y-35110000D03*
X170970000Y-36130000D03*
%TD*%
D16*
%TO.C,J2*%
X157340000Y-80460000D03*
D15*
X159040000Y-80460000D03*
D17*
X157340000Y-83000000D03*
D15*
X159040000Y-83000000D03*
D18*
X157340000Y-85540000D03*
D15*
X159040000Y-85540000D03*
D17*
X157340000Y-88080000D03*
D15*
X159040000Y-88080000D03*
D17*
X157340000Y-90620000D03*
D15*
X159040000Y-90620000D03*
D17*
X157340000Y-93160000D03*
D15*
X159040000Y-93160000D03*
D17*
X157340000Y-95700000D03*
D15*
X159050000Y-95700000D03*
D18*
X157340000Y-98240000D03*
D15*
X159040000Y-98240000D03*
D17*
X157340000Y-100780000D03*
D15*
X159040000Y-100780000D03*
D17*
X157340000Y-103320000D03*
D15*
X159040000Y-103320000D03*
D17*
X157340000Y-105860000D03*
D15*
X159040000Y-105860000D03*
D17*
X157340000Y-108400000D03*
D15*
X159030000Y-108400000D03*
D18*
X157340000Y-110940000D03*
D15*
X159040000Y-110940000D03*
D17*
X157340000Y-113480000D03*
D15*
X159040000Y-113480000D03*
D17*
X157340000Y-116020000D03*
D15*
X159040000Y-116020000D03*
D17*
X157340000Y-118560000D03*
D15*
X159040000Y-118560000D03*
D17*
X157340000Y-121100000D03*
D15*
X159040000Y-121110000D03*
D18*
X157340000Y-123640000D03*
D15*
X159040000Y-123640000D03*
D17*
X157340000Y-126180000D03*
D15*
X159040000Y-126190000D03*
D17*
X157340000Y-128720000D03*
D15*
X159040000Y-128720000D03*
%TD*%
D10*
%TO.C,C4*%
X176540000Y-49840000D03*
X177500000Y-49840000D03*
%TD*%
%TO.C,C4*%
X129540000Y-103840000D03*
X130500000Y-103840000D03*
%TD*%
D11*
%TO.C,KiKit_MB_57_4*%
X111250000Y-25000000D03*
%TD*%
%TO.C,KiKit_MB_47_2*%
X169571428Y-130000000D03*
%TD*%
%TO.C,KiKit_MB_37_7*%
X146071428Y-79000000D03*
%TD*%
D17*
%TO.C,J3*%
X122525000Y-128470000D03*
D40*
X125065000Y-128470000D03*
D17*
X127605000Y-128470000D03*
%TD*%
D11*
%TO.C,KiKit_MB_22_4*%
X175285714Y-25000000D03*
%TD*%
%TO.C,KiKit_MB_27_8*%
X135500000Y-97500000D03*
%TD*%
D12*
%TO.C,C1*%
X171390000Y-47000000D03*
X171390000Y-46040000D03*
%TD*%
D20*
%TO.C,R9*%
X143250000Y-98260000D03*
X144270000Y-98260000D03*
%TD*%
D11*
%TO.C,KiKit_MB_15_6*%
X144357142Y-76000000D03*
%TD*%
%TO.C,KiKit_MB_38_4*%
X151785714Y-79000000D03*
%TD*%
D12*
%TO.C,C17*%
X118940000Y-81880000D03*
X118940000Y-80920000D03*
%TD*%
D11*
%TO.C,KiKit_MB_36_7*%
X159000000Y-114071428D03*
%TD*%
D38*
%TO.C,R13*%
X123000000Y-90130000D03*
X123000000Y-89110000D03*
%TD*%
D11*
%TO.C,KiKit_MB_24_5*%
X175285714Y-76000000D03*
%TD*%
D19*
%TO.C,Y1*%
X170810000Y-62260000D03*
X168610000Y-62260000D03*
X168610000Y-63960000D03*
X170810000Y-63960000D03*
%TD*%
D11*
%TO.C,KiKit_MB_36_8*%
X159000000Y-114500000D03*
%TD*%
%TO.C,KiKit_MB_25_8*%
X114500000Y-94500000D03*
%TD*%
%TO.C,KiKit_MB_41_7*%
X161500000Y-94928571D03*
%TD*%
%TO.C,KiKit_MB_29_3*%
X120857143Y-79000000D03*
%TD*%
%TO.C,KiKit_MB_7_3*%
X122142858Y-76000000D03*
%TD*%
%TO.C,KiKit_MB_41_4*%
X161500000Y-96214285D03*
%TD*%
%TO.C,KiKit_MB_54_6*%
X182500000Y-22083334D03*
%TD*%
%TO.C,KiKit_MB_39_1*%
X146500000Y-130000000D03*
%TD*%
%TO.C,KiKit_MB_58_3*%
X110833334Y-130000000D03*
%TD*%
D14*
%TO.C,R7*%
X172080000Y-60870000D03*
X171060000Y-60870000D03*
%TD*%
D11*
%TO.C,KiKit_MB_7_8*%
X120000000Y-76000000D03*
%TD*%
%TO.C,KiKit_MB_58_2*%
X110416667Y-130000000D03*
%TD*%
%TO.C,KiKit_MB_3_2*%
X135500000Y-40928572D03*
%TD*%
D20*
%TO.C,R6*%
X142500000Y-34650000D03*
X143520000Y-34650000D03*
%TD*%
D11*
%TO.C,KiKit_MB_34_6*%
X138000000Y-112357142D03*
%TD*%
D38*
%TO.C,R2*%
X126870000Y-45320000D03*
X126870000Y-44300000D03*
%TD*%
D11*
%TO.C,KiKit_MB_5_4*%
X121285715Y-25000000D03*
%TD*%
D38*
%TO.C,R1*%
X125680000Y-44030000D03*
X125680000Y-43010000D03*
%TD*%
D11*
%TO.C,KiKit_MB_14_1*%
X150500000Y-25000000D03*
%TD*%
%TO.C,KiKit_MB_12_1*%
X159000000Y-57500000D03*
%TD*%
D37*
%TO.C,Q1*%
X143170000Y-93177500D03*
X145070000Y-93177500D03*
X144120000Y-90902500D03*
%TD*%
D11*
%TO.C,KiKit_MB_46_5*%
X175714285Y-79000000D03*
%TD*%
D39*
%TO.C,SW2*%
X170980000Y-43060000D03*
X166890000Y-43060000D03*
X170980000Y-40960000D03*
X166890000Y-40960000D03*
%TD*%
D11*
%TO.C,KiKit_MB_55_4*%
X114500000Y-133750000D03*
%TD*%
%TO.C,KiKit_MB_48_5*%
X175285714Y-130000000D03*
%TD*%
%TO.C,KiKit_MB_33_6*%
X138000000Y-95357142D03*
%TD*%
%TO.C,KiKit_MB_4_4*%
X135500000Y-58785714D03*
%TD*%
%TO.C,KiKit_MB_56_4*%
X182500000Y-133750000D03*
%TD*%
%TO.C,KiKit_MB_58_1*%
X110000000Y-130000000D03*
%TD*%
%TO.C,KiKit_MB_17_1*%
X161500000Y-43500000D03*
%TD*%
%TO.C,KiKit_MB_14_2*%
X150928571Y-25000000D03*
%TD*%
%TO.C,KiKit_MB_56_6*%
X182500000Y-134583333D03*
%TD*%
D21*
%TO.C,C9*%
X120370000Y-102760000D03*
X119410000Y-102760000D03*
%TD*%
D12*
%TO.C,C5*%
X125660000Y-46060000D03*
X125660000Y-45100000D03*
%TD*%
D11*
%TO.C,KiKit_MB_30_5*%
X128714285Y-79000000D03*
%TD*%
%TO.C,KiKit_MB_53_3*%
X114500000Y-20833334D03*
%TD*%
D21*
%TO.C,C9*%
X120370000Y-48760000D03*
X119410000Y-48760000D03*
%TD*%
D14*
%TO.C,R7*%
X172080000Y-114870000D03*
X171060000Y-114870000D03*
%TD*%
D12*
%TO.C,C19*%
X123980000Y-99100000D03*
X123980000Y-98140000D03*
%TD*%
D20*
%TO.C,R8*%
X170000000Y-39520000D03*
X171020000Y-39520000D03*
%TD*%
D13*
%TO.C,C6*%
X147740000Y-58970000D03*
X147740000Y-59930000D03*
%TD*%
D11*
%TO.C,KiKit_MB_50_6*%
X160250000Y-78500000D03*
%TD*%
%TO.C,KiKit_MB_13_2*%
X143928571Y-25000000D03*
%TD*%
%TO.C,KiKit_MB_41_6*%
X161500000Y-95357142D03*
%TD*%
%TO.C,KiKit_MB_49_5*%
X136750000Y-76900000D03*
%TD*%
%TO.C,KiKit_MB_23_3*%
X169142857Y-76000000D03*
%TD*%
%TO.C,KiKit_MB_35_3*%
X159000000Y-95357142D03*
%TD*%
%TO.C,KiKit_MB_46_1*%
X174000000Y-79000000D03*
%TD*%
%TO.C,KiKit_MB_31_2*%
X122571429Y-130000000D03*
%TD*%
%TO.C,KiKit_MB_55_2*%
X114500000Y-132916666D03*
%TD*%
%TO.C,KiKit_MB_21_1*%
X167000000Y-25000000D03*
%TD*%
%TO.C,KiKit_MB_28_2*%
X135500000Y-111928571D03*
%TD*%
%TO.C,KiKit_MB_23_5*%
X168285714Y-76000000D03*
%TD*%
%TO.C,KiKit_MB_3_1*%
X135500000Y-40500000D03*
%TD*%
%TO.C,KiKit_MB_44_1*%
X182500000Y-111500000D03*
%TD*%
D12*
%TO.C,C19*%
X123980000Y-45100000D03*
X123980000Y-44140000D03*
%TD*%
D11*
%TO.C,KiKit_MB_5_7*%
X122571429Y-25000000D03*
%TD*%
%TO.C,KiKit_MB_5_5*%
X121714286Y-25000000D03*
%TD*%
D12*
%TO.C,C11*%
X128530000Y-102330000D03*
X128530000Y-101370000D03*
%TD*%
D11*
%TO.C,KiKit_MB_36_6*%
X159000000Y-113642857D03*
%TD*%
D25*
%TO.C,R12*%
X118960000Y-82880000D03*
X118960000Y-83900000D03*
%TD*%
D11*
%TO.C,KiKit_MB_8_5*%
X128285714Y-76000000D03*
%TD*%
%TO.C,KiKit_MB_24_7*%
X174428571Y-76000000D03*
%TD*%
%TO.C,KiKit_MB_50_3*%
X160250000Y-77300000D03*
%TD*%
%TO.C,KiKit_MB_25_7*%
X114500000Y-94928571D03*
%TD*%
D38*
%TO.C,R10*%
X165960000Y-85900000D03*
X165960000Y-84880000D03*
%TD*%
D11*
%TO.C,KiKit_MB_9_3*%
X138000000Y-42642858D03*
%TD*%
D38*
%TO.C,R2*%
X173870000Y-45320000D03*
X173870000Y-44300000D03*
%TD*%
D11*
%TO.C,KiKit_MB_29_6*%
X122142858Y-79000000D03*
%TD*%
D10*
%TO.C,C15*%
X168430000Y-60830000D03*
X169390000Y-60830000D03*
%TD*%
D21*
%TO.C,C16*%
X146260000Y-44260000D03*
X145300000Y-44260000D03*
%TD*%
D12*
%TO.C,C12*%
X176580000Y-48780000D03*
X176580000Y-47820000D03*
%TD*%
D38*
%TO.C,R10*%
X142460000Y-85900000D03*
X142460000Y-84880000D03*
%TD*%
D11*
%TO.C,KiKit_MB_44_5*%
X182500000Y-113214285D03*
%TD*%
%TO.C,KiKit_MB_1_1*%
X114500000Y-43500000D03*
%TD*%
%TO.C,KiKit_MB_57_2*%
X110416667Y-25000000D03*
%TD*%
D13*
%TO.C,C7*%
X131090000Y-110080000D03*
X131090000Y-111040000D03*
%TD*%
D11*
%TO.C,KiKit_MB_38_1*%
X150500000Y-79000000D03*
%TD*%
%TO.C,KiKit_MB_1_2*%
X114500000Y-43071429D03*
%TD*%
%TO.C,KiKit_MB_12_4*%
X159000000Y-58785714D03*
%TD*%
%TO.C,KiKit_MB_22_6*%
X176142857Y-25000000D03*
%TD*%
%TO.C,KiKit_MB_38_6*%
X152642857Y-79000000D03*
%TD*%
D12*
%TO.C,C19*%
X147480000Y-99100000D03*
X147480000Y-98140000D03*
%TD*%
D41*
%TO.C,D1*%
X153650000Y-97765000D03*
X153650000Y-98735000D03*
%TD*%
D11*
%TO.C,KiKit_MB_34_4*%
X138000000Y-113214285D03*
%TD*%
%TO.C,KiKit_MB_8_4*%
X128714285Y-76000000D03*
%TD*%
%TO.C,KiKit_MB_11_3*%
X159000000Y-41357143D03*
%TD*%
D17*
%TO.C,J3*%
X169525000Y-74470000D03*
D40*
X172065000Y-74470000D03*
D17*
X174605000Y-74470000D03*
%TD*%
D12*
%TO.C,C5*%
X125660000Y-100060000D03*
X125660000Y-99100000D03*
%TD*%
D11*
%TO.C,KiKit_MB_27_7*%
X135500000Y-97071428D03*
%TD*%
%TO.C,KiKit_MB_27_4*%
X135500000Y-95785714D03*
%TD*%
%TO.C,KiKit_MB_21_7*%
X169571428Y-25000000D03*
%TD*%
%TO.C,KiKit_MB_43_1*%
X182500000Y-94500000D03*
%TD*%
%TO.C,KiKit_MB_15_7*%
X143928571Y-76000000D03*
%TD*%
D16*
%TO.C,J2*%
X180840000Y-26460000D03*
D15*
X182540000Y-26460000D03*
D17*
X180840000Y-29000000D03*
D15*
X182540000Y-29000000D03*
D18*
X180840000Y-31540000D03*
D15*
X182540000Y-31540000D03*
D17*
X180840000Y-34080000D03*
D15*
X182540000Y-34080000D03*
D17*
X180840000Y-36620000D03*
D15*
X182540000Y-36620000D03*
D17*
X180840000Y-39160000D03*
D15*
X182540000Y-39160000D03*
D17*
X180840000Y-41700000D03*
D15*
X182550000Y-41700000D03*
D18*
X180840000Y-44240000D03*
D15*
X182540000Y-44240000D03*
D17*
X180840000Y-46780000D03*
D15*
X182540000Y-46780000D03*
D17*
X180840000Y-49320000D03*
D15*
X182540000Y-49320000D03*
D17*
X180840000Y-51860000D03*
D15*
X182540000Y-51860000D03*
D17*
X180840000Y-54400000D03*
D15*
X182530000Y-54400000D03*
D18*
X180840000Y-56940000D03*
D15*
X182540000Y-56940000D03*
D17*
X180840000Y-59480000D03*
D15*
X182540000Y-59480000D03*
D17*
X180840000Y-62020000D03*
D15*
X182540000Y-62020000D03*
D17*
X180840000Y-64560000D03*
D15*
X182540000Y-64560000D03*
D17*
X180840000Y-67100000D03*
D15*
X182540000Y-67110000D03*
D18*
X180840000Y-69640000D03*
D15*
X182540000Y-69640000D03*
D17*
X180840000Y-72180000D03*
D15*
X182540000Y-72190000D03*
D17*
X180840000Y-74720000D03*
D15*
X182540000Y-74720000D03*
%TD*%
D11*
%TO.C,KiKit_MB_28_5*%
X135500000Y-113214285D03*
%TD*%
D13*
%TO.C,C6*%
X147740000Y-112970000D03*
X147740000Y-113930000D03*
%TD*%
D25*
%TO.C,R3*%
X131380000Y-93960000D03*
X131380000Y-94980000D03*
%TD*%
D21*
%TO.C,C8*%
X119430000Y-109400000D03*
X118470000Y-109400000D03*
%TD*%
D11*
%TO.C,KiKit_MB_25_4*%
X114500000Y-96214285D03*
%TD*%
%TO.C,KiKit_MB_31_6*%
X120857143Y-130000000D03*
%TD*%
%TO.C,KiKit_MB_20_7*%
X182500000Y-60071428D03*
%TD*%
D42*
%TO.C,U3*%
X129870000Y-91402500D03*
X128920000Y-91402500D03*
X127970000Y-91402500D03*
X127970000Y-93677500D03*
X129870000Y-93677500D03*
%TD*%
D21*
%TO.C,C8*%
X119430000Y-55400000D03*
X118470000Y-55400000D03*
%TD*%
D11*
%TO.C,KiKit_MB_33_8*%
X138000000Y-94500000D03*
%TD*%
D10*
%TO.C,C4*%
X176540000Y-103840000D03*
X177500000Y-103840000D03*
%TD*%
D11*
%TO.C,KiKit_MB_60_6*%
X186583333Y-130000000D03*
%TD*%
D20*
%TO.C,FB1*%
X127250000Y-89310000D03*
X128270000Y-89310000D03*
%TD*%
D11*
%TO.C,KiKit_MB_29_7*%
X122571429Y-79000000D03*
%TD*%
D24*
%TO.C,F1*%
X154640000Y-31832500D03*
X154640000Y-33707500D03*
%TD*%
D22*
%TO.C,D2*%
X121965000Y-88650000D03*
X120995000Y-88650000D03*
%TD*%
D38*
%TO.C,R1*%
X125680000Y-98030000D03*
X125680000Y-97010000D03*
%TD*%
%TO.C,R13*%
X146500000Y-90130000D03*
X146500000Y-89110000D03*
%TD*%
D11*
%TO.C,KiKit_MB_42_5*%
X161500000Y-112785714D03*
%TD*%
%TO.C,KiKit_MB_12_7*%
X159000000Y-60071428D03*
%TD*%
D22*
%TO.C,D2*%
X145465000Y-88650000D03*
X144495000Y-88650000D03*
%TD*%
D11*
%TO.C,KiKit_MB_36_3*%
X159000000Y-112357142D03*
%TD*%
%TO.C,KiKit_MB_14_8*%
X153500000Y-25000000D03*
%TD*%
%TO.C,KiKit_MB_19_8*%
X182500000Y-43500000D03*
%TD*%
D38*
%TO.C,R13*%
X146500000Y-36130000D03*
X146500000Y-35110000D03*
%TD*%
D20*
%TO.C,FB1*%
X150750000Y-89310000D03*
X151770000Y-89310000D03*
%TD*%
D38*
%TO.C,R10*%
X118960000Y-31900000D03*
X118960000Y-30880000D03*
%TD*%
D11*
%TO.C,KiKit_MB_49_1*%
X136750000Y-78500000D03*
%TD*%
D20*
%TO.C,FB1*%
X150750000Y-35310000D03*
X151770000Y-35310000D03*
%TD*%
D11*
%TO.C,KiKit_MB_22_3*%
X174857142Y-25000000D03*
%TD*%
%TO.C,KiKit_MB_53_5*%
X114500000Y-21666667D03*
%TD*%
%TO.C,KiKit_MB_26_8*%
X114500000Y-111500000D03*
%TD*%
%TO.C,KiKit_MB_10_6*%
X138000000Y-58357142D03*
%TD*%
%TO.C,KiKit_MB_9_5*%
X138000000Y-41785715D03*
%TD*%
%TO.C,KiKit_MB_35_7*%
X159000000Y-97071428D03*
%TD*%
%TO.C,KiKit_MB_48_1*%
X177000000Y-130000000D03*
%TD*%
%TO.C,KiKit_MB_18_5*%
X161500000Y-58785714D03*
%TD*%
%TO.C,KiKit_MB_11_8*%
X159000000Y-43500000D03*
%TD*%
%TO.C,KiKit_MB_18_4*%
X161500000Y-59214285D03*
%TD*%
D12*
%TO.C,C10*%
X178470000Y-102450000D03*
X178470000Y-101490000D03*
%TD*%
D11*
%TO.C,KiKit_MB_58_4*%
X111250000Y-130000000D03*
%TD*%
%TO.C,KiKit_MB_6_8*%
X130000000Y-25000000D03*
%TD*%
%TO.C,KiKit_MB_33_5*%
X138000000Y-95785714D03*
%TD*%
D41*
%TO.C,D1*%
X130150000Y-97765000D03*
X130150000Y-98735000D03*
%TD*%
D11*
%TO.C,KiKit_MB_6_2*%
X127428571Y-25000000D03*
%TD*%
%TO.C,KiKit_MB_15_1*%
X146500000Y-76000000D03*
%TD*%
%TO.C,KiKit_MB_8_8*%
X127000000Y-76000000D03*
%TD*%
%TO.C,KiKit_MB_9_4*%
X138000000Y-42214286D03*
%TD*%
%TO.C,KiKit_MB_28_6*%
X135500000Y-113642857D03*
%TD*%
%TO.C,KiKit_MB_23_7*%
X167428571Y-76000000D03*
%TD*%
%TO.C,KiKit_MB_5_6*%
X122142858Y-25000000D03*
%TD*%
%TO.C,KiKit_MB_41_2*%
X161500000Y-97071428D03*
%TD*%
%TO.C,KiKit_MB_31_3*%
X122142858Y-130000000D03*
%TD*%
D13*
%TO.C,C2*%
X148710000Y-58980000D03*
X148710000Y-59940000D03*
%TD*%
D11*
%TO.C,KiKit_MB_19_5*%
X182500000Y-42214286D03*
%TD*%
D25*
%TO.C,R12*%
X142460000Y-28880000D03*
X142460000Y-29900000D03*
%TD*%
%TO.C,R11*%
X173260000Y-88520000D03*
X173260000Y-89540000D03*
%TD*%
D39*
%TO.C,SW2*%
X123980000Y-43060000D03*
X119890000Y-43060000D03*
X123980000Y-40960000D03*
X119890000Y-40960000D03*
%TD*%
D11*
%TO.C,KiKit_MB_12_8*%
X159000000Y-60500000D03*
%TD*%
%TO.C,KiKit_MB_20_6*%
X182500000Y-59642857D03*
%TD*%
%TO.C,KiKit_MB_52_4*%
X182500000Y-77700000D03*
%TD*%
%TO.C,KiKit_MB_16_2*%
X153071428Y-76000000D03*
%TD*%
D31*
%TO.C,J4*%
X127850000Y-85350000D03*
X122070000Y-85350000D03*
D32*
X128210000Y-86795000D03*
X127410000Y-86795000D03*
D33*
X126210000Y-86795000D03*
X125210000Y-86795000D03*
X124710000Y-86795000D03*
X123710000Y-86795000D03*
D32*
X122510000Y-86795000D03*
X121710000Y-86795000D03*
X121710000Y-86795000D03*
X122510000Y-86795000D03*
D33*
X123210000Y-86795000D03*
X124210000Y-86795000D03*
X125710000Y-86795000D03*
X126710000Y-86795000D03*
D32*
X127410000Y-86795000D03*
X128210000Y-86795000D03*
D34*
X129280000Y-85880000D03*
D35*
X129280000Y-81700000D03*
D34*
X120640000Y-85880000D03*
D35*
X120640000Y-81700000D03*
%TD*%
D38*
%TO.C,R1*%
X172680000Y-98030000D03*
X172680000Y-97010000D03*
%TD*%
D11*
%TO.C,KiKit_MB_48_2*%
X176571428Y-130000000D03*
%TD*%
D20*
%TO.C,R8*%
X123000000Y-93520000D03*
X124020000Y-93520000D03*
%TD*%
D11*
%TO.C,KiKit_MB_34_8*%
X138000000Y-111500000D03*
%TD*%
%TO.C,KiKit_MB_50_2*%
X160250000Y-76900000D03*
%TD*%
D42*
%TO.C,U3*%
X176870000Y-91402500D03*
X175920000Y-91402500D03*
X174970000Y-91402500D03*
X174970000Y-93677500D03*
X176870000Y-93677500D03*
%TD*%
D12*
%TO.C,C5*%
X149160000Y-100060000D03*
X149160000Y-99100000D03*
%TD*%
D11*
%TO.C,KiKit_MB_16_6*%
X151357142Y-76000000D03*
%TD*%
D28*
%TO.C,U1*%
X121487500Y-50410000D03*
X121487500Y-50810000D03*
X121487500Y-51210000D03*
X121487500Y-51610000D03*
X121487500Y-52010000D03*
X121487500Y-52410000D03*
X121487500Y-52810000D03*
X121487500Y-53210000D03*
X121487500Y-53610000D03*
X121487500Y-54010000D03*
X121487500Y-54410000D03*
X121487500Y-54810000D03*
X121487500Y-55210000D03*
X121487500Y-55610000D03*
D29*
X122325000Y-56447500D03*
X122725000Y-56447500D03*
X123125000Y-56447500D03*
X123525000Y-56447500D03*
X123925000Y-56447500D03*
X124325000Y-56447500D03*
X124725000Y-56447500D03*
X125125000Y-56447500D03*
X125525000Y-56447500D03*
X125925000Y-56447500D03*
X126325000Y-56447500D03*
X126725000Y-56447500D03*
X127125000Y-56447500D03*
X127525000Y-56447500D03*
D28*
X128362500Y-55610000D03*
X128362500Y-55210000D03*
X128362500Y-54810000D03*
X128362500Y-54410000D03*
X128362500Y-54010000D03*
X128362500Y-53610000D03*
X128362500Y-53210000D03*
X128362500Y-52810000D03*
X128362500Y-52410000D03*
X128362500Y-52010000D03*
X128362500Y-51610000D03*
X128362500Y-51210000D03*
X128362500Y-50810000D03*
X128362500Y-50410000D03*
D29*
X127525000Y-49572500D03*
X127125000Y-49572500D03*
X126725000Y-49572500D03*
X126325000Y-49572500D03*
X125925000Y-49572500D03*
X125525000Y-49572500D03*
X125125000Y-49572500D03*
X124725000Y-49572500D03*
X124325000Y-49572500D03*
X123925000Y-49572500D03*
X123525000Y-49572500D03*
X123125000Y-49572500D03*
X122725000Y-49572500D03*
X122325000Y-49572500D03*
D30*
X124925000Y-53010000D03*
%TD*%
D11*
%TO.C,KiKit_MB_39_4*%
X145214285Y-130000000D03*
%TD*%
%TO.C,KiKit_MB_2_6*%
X114500000Y-58357142D03*
%TD*%
D21*
%TO.C,C16*%
X122760000Y-44260000D03*
X121800000Y-44260000D03*
%TD*%
D11*
%TO.C,KiKit_MB_55_3*%
X114500000Y-133333333D03*
%TD*%
D12*
%TO.C,C5*%
X172660000Y-46060000D03*
X172660000Y-45100000D03*
%TD*%
D25*
%TO.C,R5*%
X129040000Y-43730000D03*
X129040000Y-44750000D03*
%TD*%
D13*
%TO.C,C14*%
X148870000Y-61830000D03*
X148870000Y-62790000D03*
%TD*%
D19*
%TO.C,Y1*%
X147310000Y-62260000D03*
X145110000Y-62260000D03*
X145110000Y-63960000D03*
X147310000Y-63960000D03*
%TD*%
D11*
%TO.C,KiKit_MB_33_1*%
X138000000Y-97500000D03*
%TD*%
%TO.C,KiKit_MB_27_6*%
X135500000Y-96642857D03*
%TD*%
%TO.C,KiKit_MB_47_8*%
X167000000Y-130000000D03*
%TD*%
D13*
%TO.C,C14*%
X125370000Y-61830000D03*
X125370000Y-62790000D03*
%TD*%
D11*
%TO.C,KiKit_MB_29_2*%
X120428572Y-79000000D03*
%TD*%
D20*
%TO.C,R9*%
X119750000Y-98260000D03*
X120770000Y-98260000D03*
%TD*%
D11*
%TO.C,KiKit_MB_21_6*%
X169142857Y-25000000D03*
%TD*%
D12*
%TO.C,C10*%
X154970000Y-48450000D03*
X154970000Y-47490000D03*
%TD*%
D11*
%TO.C,KiKit_MB_59_1*%
X184500000Y-25000000D03*
%TD*%
%TO.C,KiKit_MB_7_6*%
X120857143Y-76000000D03*
%TD*%
D36*
%TO.C,D3*%
X154650000Y-84227500D03*
X154650000Y-80927500D03*
%TD*%
D21*
%TO.C,C8*%
X166430000Y-109400000D03*
X165470000Y-109400000D03*
%TD*%
D10*
%TO.C,C4*%
X153040000Y-49840000D03*
X154000000Y-49840000D03*
%TD*%
D12*
%TO.C,C17*%
X165940000Y-81880000D03*
X165940000Y-80920000D03*
%TD*%
D11*
%TO.C,KiKit_MB_52_5*%
X182500000Y-78100000D03*
%TD*%
%TO.C,KiKit_MB_59_6*%
X186583333Y-25000000D03*
%TD*%
%TO.C,KiKit_MB_15_3*%
X145642857Y-76000000D03*
%TD*%
%TO.C,KiKit_MB_20_4*%
X182500000Y-58785714D03*
%TD*%
%TO.C,KiKit_MB_39_6*%
X144357142Y-130000000D03*
%TD*%
D21*
%TO.C,C9*%
X167370000Y-102760000D03*
X166410000Y-102760000D03*
%TD*%
D20*
%TO.C,R9*%
X143250000Y-44260000D03*
X144270000Y-44260000D03*
%TD*%
D11*
%TO.C,KiKit_MB_4_6*%
X135500000Y-59642857D03*
%TD*%
D14*
%TO.C,R4*%
X131460000Y-42160000D03*
X130440000Y-42160000D03*
%TD*%
D11*
%TO.C,KiKit_MB_51_1*%
X114500000Y-76500000D03*
%TD*%
D12*
%TO.C,C5*%
X149160000Y-46060000D03*
X149160000Y-45100000D03*
%TD*%
D11*
%TO.C,KiKit_MB_41_1*%
X161500000Y-97500000D03*
%TD*%
D21*
%TO.C,C9*%
X143870000Y-102760000D03*
X142910000Y-102760000D03*
%TD*%
D11*
%TO.C,KiKit_MB_2_8*%
X114500000Y-57500000D03*
%TD*%
D21*
%TO.C,C13*%
X166430000Y-108420000D03*
X165470000Y-108420000D03*
%TD*%
D12*
%TO.C,C10*%
X154970000Y-102450000D03*
X154970000Y-101490000D03*
%TD*%
D10*
%TO.C,C15*%
X121430000Y-60830000D03*
X122390000Y-60830000D03*
%TD*%
D25*
%TO.C,R5*%
X152540000Y-43730000D03*
X152540000Y-44750000D03*
%TD*%
D12*
%TO.C,C3*%
X127470000Y-48290000D03*
X127470000Y-47330000D03*
%TD*%
D11*
%TO.C,KiKit_MB_10_4*%
X138000000Y-59214285D03*
%TD*%
%TO.C,KiKit_MB_39_3*%
X145642857Y-130000000D03*
%TD*%
%TO.C,KiKit_MB_37_8*%
X146500000Y-79000000D03*
%TD*%
%TO.C,KiKit_MB_14_4*%
X151785714Y-25000000D03*
%TD*%
D21*
%TO.C,C8*%
X142930000Y-109400000D03*
X141970000Y-109400000D03*
%TD*%
D11*
%TO.C,KiKit_MB_50_1*%
X160250000Y-76500000D03*
%TD*%
D21*
%TO.C,C13*%
X119430000Y-54420000D03*
X118470000Y-54420000D03*
%TD*%
D11*
%TO.C,KiKit_MB_21_3*%
X167857142Y-25000000D03*
%TD*%
%TO.C,KiKit_MB_45_5*%
X168714285Y-79000000D03*
%TD*%
D12*
%TO.C,C17*%
X118940000Y-27880000D03*
X118940000Y-26920000D03*
%TD*%
D25*
%TO.C,R11*%
X126260000Y-88520000D03*
X126260000Y-89540000D03*
%TD*%
D11*
%TO.C,KiKit_MB_18_1*%
X161500000Y-60500000D03*
%TD*%
%TO.C,KiKit_MB_32_6*%
X127857142Y-130000000D03*
%TD*%
%TO.C,KiKit_MB_37_1*%
X143500000Y-79000000D03*
%TD*%
%TO.C,KiKit_MB_57_1*%
X110000000Y-25000000D03*
%TD*%
D20*
%TO.C,R6*%
X119000000Y-34650000D03*
X120020000Y-34650000D03*
%TD*%
D11*
%TO.C,KiKit_MB_3_7*%
X135500000Y-43071429D03*
%TD*%
%TO.C,KiKit_MB_24_8*%
X174000000Y-76000000D03*
%TD*%
%TO.C,KiKit_MB_56_7*%
X182500000Y-135000000D03*
%TD*%
%TO.C,KiKit_MB_23_1*%
X170000000Y-76000000D03*
%TD*%
%TO.C,KiKit_MB_25_6*%
X114500000Y-95357142D03*
%TD*%
%TO.C,KiKit_MB_52_2*%
X182500000Y-76900000D03*
%TD*%
%TO.C,KiKit_MB_32_7*%
X127428571Y-130000000D03*
%TD*%
%TO.C,KiKit_MB_2_4*%
X114500000Y-59214285D03*
%TD*%
D38*
%TO.C,R10*%
X118960000Y-85900000D03*
X118960000Y-84880000D03*
%TD*%
D17*
%TO.C,J3*%
X146025000Y-128470000D03*
D40*
X148565000Y-128470000D03*
D17*
X151105000Y-128470000D03*
%TD*%
D11*
%TO.C,KiKit_MB_14_6*%
X152642857Y-25000000D03*
%TD*%
%TO.C,KiKit_MB_23_6*%
X167857142Y-76000000D03*
%TD*%
%TO.C,KiKit_MB_24_4*%
X175714285Y-76000000D03*
%TD*%
D14*
%TO.C,R4*%
X178460000Y-96160000D03*
X177440000Y-96160000D03*
%TD*%
D13*
%TO.C,C7*%
X154590000Y-56080000D03*
X154590000Y-57040000D03*
%TD*%
D11*
%TO.C,KiKit_MB_35_2*%
X159000000Y-94928571D03*
%TD*%
%TO.C,KiKit_MB_53_1*%
X114500000Y-20000000D03*
%TD*%
%TO.C,KiKit_MB_42_7*%
X161500000Y-111928571D03*
%TD*%
%TO.C,KiKit_MB_19_1*%
X182500000Y-40500000D03*
%TD*%
%TO.C,KiKit_MB_59_4*%
X185750000Y-25000000D03*
%TD*%
%TO.C,KiKit_MB_6_7*%
X129571428Y-25000000D03*
%TD*%
%TO.C,KiKit_MB_16_7*%
X150928571Y-76000000D03*
%TD*%
%TO.C,KiKit_MB_6_6*%
X129142857Y-25000000D03*
%TD*%
%TO.C,KiKit_MB_43_3*%
X182500000Y-95357142D03*
%TD*%
%TO.C,KiKit_MB_6_4*%
X128285714Y-25000000D03*
%TD*%
%TO.C,KiKit_MB_12_3*%
X159000000Y-58357142D03*
%TD*%
D41*
%TO.C,D1*%
X177150000Y-43765000D03*
X177150000Y-44735000D03*
%TD*%
D11*
%TO.C,KiKit_MB_9_6*%
X138000000Y-41357143D03*
%TD*%
D31*
%TO.C,J4*%
X174850000Y-31350000D03*
X169070000Y-31350000D03*
D32*
X175210000Y-32795000D03*
X174410000Y-32795000D03*
D33*
X173210000Y-32795000D03*
X172210000Y-32795000D03*
X171710000Y-32795000D03*
X170710000Y-32795000D03*
D32*
X169510000Y-32795000D03*
X168710000Y-32795000D03*
X168710000Y-32795000D03*
X169510000Y-32795000D03*
D33*
X170210000Y-32795000D03*
X171210000Y-32795000D03*
X172710000Y-32795000D03*
X173710000Y-32795000D03*
D32*
X174410000Y-32795000D03*
X175210000Y-32795000D03*
D34*
X176280000Y-31880000D03*
D35*
X176280000Y-27700000D03*
D34*
X167640000Y-31880000D03*
D35*
X167640000Y-27700000D03*
%TD*%
D23*
%TO.C,SW1*%
X127322500Y-119542500D03*
X127322500Y-115452500D03*
X129422500Y-119542500D03*
X129422500Y-115452500D03*
%TD*%
D11*
%TO.C,KiKit_MB_1_6*%
X114500000Y-41357143D03*
%TD*%
D31*
%TO.C,J4*%
X151350000Y-85350000D03*
X145570000Y-85350000D03*
D32*
X151710000Y-86795000D03*
X150910000Y-86795000D03*
D33*
X149710000Y-86795000D03*
X148710000Y-86795000D03*
X148210000Y-86795000D03*
X147210000Y-86795000D03*
D32*
X146010000Y-86795000D03*
X145210000Y-86795000D03*
X145210000Y-86795000D03*
X146010000Y-86795000D03*
D33*
X146710000Y-86795000D03*
X147710000Y-86795000D03*
X149210000Y-86795000D03*
X150210000Y-86795000D03*
D32*
X150910000Y-86795000D03*
X151710000Y-86795000D03*
D34*
X152780000Y-85880000D03*
D35*
X152780000Y-81700000D03*
D34*
X144140000Y-85880000D03*
D35*
X144140000Y-81700000D03*
%TD*%
D22*
%TO.C,D2*%
X168965000Y-34650000D03*
X167995000Y-34650000D03*
%TD*%
D11*
%TO.C,KiKit_MB_45_6*%
X169142857Y-79000000D03*
%TD*%
D25*
%TO.C,R3*%
X154880000Y-39960000D03*
X154880000Y-40980000D03*
%TD*%
D11*
%TO.C,KiKit_MB_55_1*%
X114500000Y-132500000D03*
%TD*%
D36*
%TO.C,D3*%
X178150000Y-84227500D03*
X178150000Y-80927500D03*
%TD*%
D11*
%TO.C,KiKit_MB_50_5*%
X160250000Y-78100000D03*
%TD*%
D15*
%TO.C,J1*%
X114470000Y-80490000D03*
D16*
X116170000Y-80490000D03*
D15*
X114470000Y-83030000D03*
D17*
X116170000Y-83030000D03*
D15*
X114470000Y-85570000D03*
D18*
X116170000Y-85570000D03*
D15*
X114470000Y-88110000D03*
D17*
X116170000Y-88110000D03*
D15*
X114470000Y-90650000D03*
D17*
X116170000Y-90650000D03*
D15*
X114470000Y-93190000D03*
D17*
X116170000Y-93190000D03*
D15*
X114460000Y-95730000D03*
D17*
X116170000Y-95730000D03*
D15*
X114470000Y-98270000D03*
D18*
X116170000Y-98270000D03*
D15*
X114470000Y-100810000D03*
D17*
X116170000Y-100810000D03*
D15*
X114470000Y-103350000D03*
D17*
X116170000Y-103350000D03*
D15*
X114470000Y-105890000D03*
D17*
X116170000Y-105890000D03*
D15*
X114480000Y-108430000D03*
D17*
X116170000Y-108430000D03*
D15*
X114470000Y-110970000D03*
D18*
X116170000Y-110970000D03*
D15*
X114470000Y-113510000D03*
D17*
X116170000Y-113510000D03*
D15*
X114470000Y-116050000D03*
D17*
X116170000Y-116050000D03*
D15*
X114470000Y-118590000D03*
D17*
X116170000Y-118590000D03*
D15*
X114470000Y-121140000D03*
D17*
X116170000Y-121130000D03*
D15*
X114470000Y-123670000D03*
D18*
X116170000Y-123670000D03*
D15*
X114470000Y-126220000D03*
D17*
X116170000Y-126210000D03*
D15*
X114470000Y-128750000D03*
D17*
X116170000Y-128750000D03*
%TD*%
D20*
%TO.C,FB1*%
X174250000Y-35310000D03*
X175270000Y-35310000D03*
%TD*%
D21*
%TO.C,C8*%
X166430000Y-55400000D03*
X165470000Y-55400000D03*
%TD*%
D11*
%TO.C,KiKit_MB_15_2*%
X146071428Y-76000000D03*
%TD*%
D25*
%TO.C,R11*%
X173260000Y-34520000D03*
X173260000Y-35540000D03*
%TD*%
D11*
%TO.C,KiKit_MB_8_6*%
X127857142Y-76000000D03*
%TD*%
%TO.C,KiKit_MB_24_3*%
X176142857Y-76000000D03*
%TD*%
%TO.C,KiKit_MB_17_3*%
X161500000Y-42642858D03*
%TD*%
%TO.C,KiKit_MB_13_5*%
X145214285Y-25000000D03*
%TD*%
D12*
%TO.C,C17*%
X142440000Y-81880000D03*
X142440000Y-80920000D03*
%TD*%
D11*
%TO.C,KiKit_MB_56_2*%
X182500000Y-132916666D03*
%TD*%
%TO.C,KiKit_MB_53_6*%
X114500000Y-22083334D03*
%TD*%
D25*
%TO.C,R12*%
X142460000Y-82880000D03*
X142460000Y-83900000D03*
%TD*%
D17*
%TO.C,J3*%
X169525000Y-128470000D03*
D40*
X172065000Y-128470000D03*
D17*
X174605000Y-128470000D03*
%TD*%
D11*
%TO.C,KiKit_MB_38_3*%
X151357142Y-79000000D03*
%TD*%
%TO.C,KiKit_MB_31_8*%
X120000000Y-130000000D03*
%TD*%
%TO.C,KiKit_MB_43_4*%
X182500000Y-95785714D03*
%TD*%
D12*
%TO.C,C11*%
X175530000Y-102330000D03*
X175530000Y-101370000D03*
%TD*%
D11*
%TO.C,KiKit_MB_27_2*%
X135500000Y-94928571D03*
%TD*%
%TO.C,KiKit_MB_47_5*%
X168285714Y-130000000D03*
%TD*%
%TO.C,KiKit_MB_42_1*%
X161500000Y-114500000D03*
%TD*%
%TO.C,KiKit_MB_21_4*%
X168285714Y-25000000D03*
%TD*%
D12*
%TO.C,C12*%
X153080000Y-102780000D03*
X153080000Y-101820000D03*
%TD*%
D25*
%TO.C,R14*%
X147470000Y-35110000D03*
X147470000Y-36130000D03*
%TD*%
D11*
%TO.C,KiKit_MB_60_1*%
X184500000Y-130000000D03*
%TD*%
D13*
%TO.C,C14*%
X148870000Y-115830000D03*
X148870000Y-116790000D03*
%TD*%
D11*
%TO.C,KiKit_MB_27_1*%
X135500000Y-94500000D03*
%TD*%
D38*
%TO.C,R2*%
X150370000Y-45320000D03*
X150370000Y-44300000D03*
%TD*%
D11*
%TO.C,KiKit_MB_60_4*%
X185750000Y-130000000D03*
%TD*%
D42*
%TO.C,U3*%
X153370000Y-37402500D03*
X152420000Y-37402500D03*
X151470000Y-37402500D03*
X151470000Y-39677500D03*
X153370000Y-39677500D03*
%TD*%
D14*
%TO.C,R15*%
X131600000Y-34960000D03*
X130580000Y-34960000D03*
%TD*%
D11*
%TO.C,KiKit_MB_43_5*%
X182500000Y-96214285D03*
%TD*%
D12*
%TO.C,C19*%
X147480000Y-45100000D03*
X147480000Y-44140000D03*
%TD*%
D11*
%TO.C,KiKit_MB_45_7*%
X169571428Y-79000000D03*
%TD*%
%TO.C,KiKit_MB_30_4*%
X128285714Y-79000000D03*
%TD*%
D21*
%TO.C,C13*%
X119430000Y-108420000D03*
X118470000Y-108420000D03*
%TD*%
D11*
%TO.C,KiKit_MB_28_1*%
X135500000Y-111500000D03*
%TD*%
%TO.C,KiKit_MB_20_1*%
X182500000Y-57500000D03*
%TD*%
D37*
%TO.C,Q1*%
X166670000Y-39177500D03*
X168570000Y-39177500D03*
X167620000Y-36902500D03*
%TD*%
D14*
%TO.C,R4*%
X131460000Y-96160000D03*
X130440000Y-96160000D03*
%TD*%
D11*
%TO.C,KiKit_MB_51_3*%
X114500000Y-77300000D03*
%TD*%
D20*
%TO.C,R9*%
X119750000Y-44260000D03*
X120770000Y-44260000D03*
%TD*%
D11*
%TO.C,KiKit_MB_31_4*%
X121714286Y-130000000D03*
%TD*%
D38*
%TO.C,R13*%
X123000000Y-36130000D03*
X123000000Y-35110000D03*
%TD*%
D11*
%TO.C,KiKit_MB_7_4*%
X121714286Y-76000000D03*
%TD*%
%TO.C,KiKit_MB_60_7*%
X187000000Y-130000000D03*
%TD*%
D22*
%TO.C,D2*%
X121965000Y-34650000D03*
X120995000Y-34650000D03*
%TD*%
D13*
%TO.C,C14*%
X125370000Y-115830000D03*
X125370000Y-116790000D03*
%TD*%
D36*
%TO.C,D3*%
X154650000Y-30227500D03*
X154650000Y-26927500D03*
%TD*%
D11*
%TO.C,KiKit_MB_16_5*%
X151785714Y-76000000D03*
%TD*%
%TO.C,KiKit_MB_39_2*%
X146071428Y-130000000D03*
%TD*%
D13*
%TO.C,C2*%
X148710000Y-112980000D03*
X148710000Y-113940000D03*
%TD*%
D11*
%TO.C,KiKit_MB_30_2*%
X127428571Y-79000000D03*
%TD*%
%TO.C,KiKit_MB_40_8*%
X150500000Y-130000000D03*
%TD*%
%TO.C,KiKit_MB_16_4*%
X152214285Y-76000000D03*
%TD*%
D14*
%TO.C,R15*%
X178600000Y-88960000D03*
X177580000Y-88960000D03*
%TD*%
D11*
%TO.C,KiKit_MB_59_3*%
X185333333Y-25000000D03*
%TD*%
D42*
%TO.C,U3*%
X153370000Y-91402500D03*
X152420000Y-91402500D03*
X151470000Y-91402500D03*
X151470000Y-93677500D03*
X153370000Y-93677500D03*
%TD*%
D11*
%TO.C,KiKit_MB_26_3*%
X114500000Y-113642857D03*
%TD*%
%TO.C,KiKit_MB_18_8*%
X161500000Y-57500000D03*
%TD*%
D12*
%TO.C,C11*%
X152030000Y-102330000D03*
X152030000Y-101370000D03*
%TD*%
D14*
%TO.C,R4*%
X154960000Y-42160000D03*
X153940000Y-42160000D03*
%TD*%
D11*
%TO.C,KiKit_MB_17_8*%
X161500000Y-40500000D03*
%TD*%
D26*
%TO.C,U2*%
X120342500Y-99450000D03*
X120342500Y-99950000D03*
X120342500Y-100450000D03*
X120342500Y-100950000D03*
X122917500Y-100950000D03*
X122917500Y-100450000D03*
X122917500Y-99950000D03*
X122917500Y-99450000D03*
D27*
X121630000Y-100200000D03*
%TD*%
D24*
%TO.C,F1*%
X131140000Y-31832500D03*
X131140000Y-33707500D03*
%TD*%
D11*
%TO.C,KiKit_MB_35_5*%
X159000000Y-96214285D03*
%TD*%
%TO.C,KiKit_MB_18_3*%
X161500000Y-59642857D03*
%TD*%
D25*
%TO.C,R14*%
X123970000Y-35110000D03*
X123970000Y-36130000D03*
%TD*%
D11*
%TO.C,KiKit_MB_60_2*%
X184916666Y-130000000D03*
%TD*%
%TO.C,KiKit_MB_36_5*%
X159000000Y-113214285D03*
%TD*%
M02*
