%TF.GenerationSoftware,KiCad,Pcbnew,7.0.9*%
%TF.CreationDate,2024-05-10T15:51:33-04:00*%
%TF.ProjectId,panel,70616e65-6c2e-46b6-9963-61645f706362,rev?*%
%TF.SameCoordinates,Original*%
%TF.FileFunction,Legend,Top*%
%TF.FilePolarity,Positive*%
%FSLAX46Y46*%
G04 Gerber Fmt 4.6, Leading zero omitted, Abs format (unit mm)*
G04 Created by KiCad (PCBNEW 7.0.9) date 2024-05-10 15:51:33*
%MOMM*%
%LPD*%
G01*
G04 APERTURE LIST*
%ADD10C,0.120000*%
%ADD11C,0.100000*%
G04 APERTURE END LIST*
D10*
%TO.C,C4*%
X129912164Y-49480000D02*
X130127836Y-49480000D01*
X129912164Y-50200000D02*
X130127836Y-50200000D01*
%TO.C,C12*%
X176220000Y-102407836D02*
X176220000Y-102192164D01*
X176940000Y-102407836D02*
X176940000Y-102192164D01*
%TO.C,C2*%
X172570000Y-113352164D02*
X172570000Y-113567836D01*
X171850000Y-113352164D02*
X171850000Y-113567836D01*
%TO.C,R7*%
X124723641Y-115250000D02*
X124416359Y-115250000D01*
X124723641Y-114490000D02*
X124416359Y-114490000D01*
%TO.C,Y1*%
X171710000Y-118760000D02*
X171710000Y-115460000D01*
X171710000Y-115460000D02*
X167710000Y-115460000D01*
%TO.C,C1*%
X171030000Y-100627836D02*
X171030000Y-100412164D01*
X171750000Y-100627836D02*
X171750000Y-100412164D01*
%TO.C,C19*%
X170620000Y-98727836D02*
X170620000Y-98512164D01*
X171340000Y-98727836D02*
X171340000Y-98512164D01*
%TO.C,R6*%
X119356359Y-88270000D02*
X119663641Y-88270000D01*
X119356359Y-89030000D02*
X119663641Y-89030000D01*
%TO.C,C16*%
X169387836Y-98620000D02*
X169172164Y-98620000D01*
X169387836Y-97900000D02*
X169172164Y-97900000D01*
D11*
%TO.C,D2*%
X169620000Y-88650000D02*
G75*
G03*
X169620000Y-88650000I-50000J0D01*
G01*
D10*
%TO.C,C3*%
X174110000Y-101917836D02*
X174110000Y-101702164D01*
X174830000Y-101917836D02*
X174830000Y-101702164D01*
X127110000Y-101917836D02*
X127110000Y-101702164D01*
X127830000Y-101917836D02*
X127830000Y-101702164D01*
%TO.C,C11*%
X128170000Y-47957836D02*
X128170000Y-47742164D01*
X128890000Y-47957836D02*
X128890000Y-47742164D01*
%TO.C,F1*%
X131850000Y-86511422D02*
X131850000Y-87028578D01*
X130430000Y-86511422D02*
X130430000Y-87028578D01*
%TO.C,C6*%
X124600000Y-113342164D02*
X124600000Y-113557836D01*
X123880000Y-113342164D02*
X123880000Y-113557836D01*
%TO.C,R3*%
X131760000Y-40316359D02*
X131760000Y-40623641D01*
X131000000Y-40316359D02*
X131000000Y-40623641D01*
%TO.C,R8*%
X146856359Y-39140000D02*
X147163641Y-39140000D01*
X146856359Y-39900000D02*
X147163641Y-39900000D01*
%TO.C,C12*%
X129220000Y-102407836D02*
X129220000Y-102192164D01*
X129940000Y-102407836D02*
X129940000Y-102192164D01*
%TO.C,R3*%
X178760000Y-94316359D02*
X178760000Y-94623641D01*
X178000000Y-94316359D02*
X178000000Y-94623641D01*
%TO.C,C1*%
X124030000Y-46627836D02*
X124030000Y-46412164D01*
X124750000Y-46627836D02*
X124750000Y-46412164D01*
%TO.C,C14*%
X172730000Y-62202164D02*
X172730000Y-62417836D01*
X172010000Y-62202164D02*
X172010000Y-62417836D01*
%TO.C,U2*%
X143630000Y-47310000D02*
X146630000Y-47310000D01*
X145130000Y-45090000D02*
X146630000Y-45090000D01*
%TO.C,C16*%
X145887836Y-98620000D02*
X145672164Y-98620000D01*
X145887836Y-97900000D02*
X145672164Y-97900000D01*
%TO.C,C9*%
X166997836Y-49120000D02*
X166782164Y-49120000D01*
X166997836Y-48400000D02*
X166782164Y-48400000D01*
%TO.C,R8*%
X170356359Y-93140000D02*
X170663641Y-93140000D01*
X170356359Y-93900000D02*
X170663641Y-93900000D01*
%TO.C,C15*%
X121802164Y-114470000D02*
X122017836Y-114470000D01*
X121802164Y-115190000D02*
X122017836Y-115190000D01*
%TO.C,U1*%
X144815000Y-56620000D02*
X144815000Y-55970000D01*
X145465000Y-49400000D02*
X144815000Y-49400000D01*
X145465000Y-56620000D02*
X144815000Y-56620000D01*
X151385000Y-49400000D02*
X152035000Y-49400000D01*
X151385000Y-56620000D02*
X152035000Y-56620000D01*
X152035000Y-49400000D02*
X152035000Y-50050000D01*
X152035000Y-56620000D02*
X152035000Y-55970000D01*
%TO.C,J4*%
X176660000Y-84650000D02*
X176660000Y-82650000D01*
X176660000Y-80750000D02*
X176660000Y-78850000D01*
X176660000Y-78850000D02*
X167260000Y-78850000D01*
X167260000Y-84650000D02*
X167260000Y-82650000D01*
X167260000Y-80750000D02*
X167260000Y-78850000D01*
%TO.C,C10*%
X178110000Y-48077836D02*
X178110000Y-47862164D01*
X178830000Y-48077836D02*
X178830000Y-47862164D01*
%TO.C,C3*%
X150610000Y-47917836D02*
X150610000Y-47702164D01*
X151330000Y-47917836D02*
X151330000Y-47702164D01*
%TO.C,D3*%
X130150000Y-30937500D02*
X132150000Y-30937500D01*
X130150000Y-30937500D02*
X130150000Y-26927500D01*
X132150000Y-30937500D02*
X132150000Y-26927500D01*
%TO.C,R6*%
X142856359Y-88270000D02*
X143163641Y-88270000D01*
X142856359Y-89030000D02*
X143163641Y-89030000D01*
%TO.C,R7*%
X148223641Y-115250000D02*
X147916359Y-115250000D01*
X148223641Y-114490000D02*
X147916359Y-114490000D01*
%TO.C,R4*%
X154603641Y-96540000D02*
X154296359Y-96540000D01*
X154603641Y-95780000D02*
X154296359Y-95780000D01*
%TO.C,U1*%
X144815000Y-110620000D02*
X144815000Y-109970000D01*
X145465000Y-103400000D02*
X144815000Y-103400000D01*
X145465000Y-110620000D02*
X144815000Y-110620000D01*
X151385000Y-103400000D02*
X152035000Y-103400000D01*
X151385000Y-110620000D02*
X152035000Y-110620000D01*
X152035000Y-103400000D02*
X152035000Y-104050000D01*
X152035000Y-110620000D02*
X152035000Y-109970000D01*
%TO.C,C7*%
X178450000Y-110452164D02*
X178450000Y-110667836D01*
X177730000Y-110452164D02*
X177730000Y-110667836D01*
%TO.C,U2*%
X167130000Y-101310000D02*
X170130000Y-101310000D01*
X168630000Y-99090000D02*
X170130000Y-99090000D01*
%TO.C,C13*%
X142557836Y-54780000D02*
X142342164Y-54780000D01*
X142557836Y-54060000D02*
X142342164Y-54060000D01*
%TO.C,C11*%
X151670000Y-47957836D02*
X151670000Y-47742164D01*
X152390000Y-47957836D02*
X152390000Y-47742164D01*
%TO.C,C5*%
X172300000Y-99687836D02*
X172300000Y-99472164D01*
X173020000Y-99687836D02*
X173020000Y-99472164D01*
%TO.C,R14*%
X171350000Y-89466359D02*
X171350000Y-89773641D01*
X170590000Y-89466359D02*
X170590000Y-89773641D01*
%TO.C,R15*%
X154743641Y-35340000D02*
X154436359Y-35340000D01*
X154743641Y-34580000D02*
X154436359Y-34580000D01*
%TO.C,C1*%
X147530000Y-46627836D02*
X147530000Y-46412164D01*
X148250000Y-46627836D02*
X148250000Y-46412164D01*
%TO.C,FB1*%
X127606359Y-34930000D02*
X127913641Y-34930000D01*
X127606359Y-35690000D02*
X127913641Y-35690000D01*
%TO.C,R9*%
X167106359Y-43880000D02*
X167413641Y-43880000D01*
X167106359Y-44640000D02*
X167413641Y-44640000D01*
%TO.C,C1*%
X147530000Y-100627836D02*
X147530000Y-100412164D01*
X148250000Y-100627836D02*
X148250000Y-100412164D01*
%TO.C,F1*%
X155350000Y-86511422D02*
X155350000Y-87028578D01*
X153930000Y-86511422D02*
X153930000Y-87028578D01*
%TO.C,C16*%
X169387836Y-44620000D02*
X169172164Y-44620000D01*
X169387836Y-43900000D02*
X169172164Y-43900000D01*
%TO.C,C10*%
X131110000Y-102077836D02*
X131110000Y-101862164D01*
X131830000Y-102077836D02*
X131830000Y-101862164D01*
%TO.C,C4*%
X153412164Y-103480000D02*
X153627836Y-103480000D01*
X153412164Y-104200000D02*
X153627836Y-104200000D01*
%TO.C,C19*%
X170620000Y-44727836D02*
X170620000Y-44512164D01*
X171340000Y-44727836D02*
X171340000Y-44512164D01*
%TO.C,Q1*%
X166060000Y-92040000D02*
X166060000Y-93840000D01*
X166060000Y-92040000D02*
X166060000Y-91240000D01*
X169180000Y-92040000D02*
X169180000Y-92840000D01*
X169180000Y-92040000D02*
X169180000Y-91240000D01*
%TO.C,R11*%
X150140000Y-88876359D02*
X150140000Y-89183641D01*
X149380000Y-88876359D02*
X149380000Y-89183641D01*
%TO.C,C3*%
X174110000Y-47917836D02*
X174110000Y-47702164D01*
X174830000Y-47917836D02*
X174830000Y-47702164D01*
%TO.C,R2*%
X149990000Y-98963641D02*
X149990000Y-98656359D01*
X150750000Y-98963641D02*
X150750000Y-98656359D01*
%TO.C,R5*%
X176420000Y-98086359D02*
X176420000Y-98393641D01*
X175660000Y-98086359D02*
X175660000Y-98393641D01*
%TO.C,U1*%
X168315000Y-56620000D02*
X168315000Y-55970000D01*
X168965000Y-49400000D02*
X168315000Y-49400000D01*
X168965000Y-56620000D02*
X168315000Y-56620000D01*
X174885000Y-49400000D02*
X175535000Y-49400000D01*
X174885000Y-56620000D02*
X175535000Y-56620000D01*
X175535000Y-49400000D02*
X175535000Y-50050000D01*
X175535000Y-56620000D02*
X175535000Y-55970000D01*
%TO.C,Y1*%
X124710000Y-118760000D02*
X124710000Y-115460000D01*
X124710000Y-115460000D02*
X120710000Y-115460000D01*
%TO.C,R4*%
X178103641Y-42540000D02*
X177796359Y-42540000D01*
X178103641Y-41780000D02*
X177796359Y-41780000D01*
%TO.C,R10*%
X142080000Y-31543641D02*
X142080000Y-31236359D01*
X142840000Y-31543641D02*
X142840000Y-31236359D01*
%TO.C,R12*%
X166340000Y-83236359D02*
X166340000Y-83543641D01*
X165580000Y-83236359D02*
X165580000Y-83543641D01*
%TO.C,R8*%
X123356359Y-39140000D02*
X123663641Y-39140000D01*
X123356359Y-39900000D02*
X123663641Y-39900000D01*
%TO.C,U2*%
X143630000Y-101310000D02*
X146630000Y-101310000D01*
X145130000Y-99090000D02*
X146630000Y-99090000D01*
%TO.C,C1*%
X124030000Y-100627836D02*
X124030000Y-100412164D01*
X124750000Y-100627836D02*
X124750000Y-100412164D01*
D11*
%TO.C,D2*%
X146120000Y-34650000D02*
G75*
G03*
X146120000Y-34650000I-50000J0D01*
G01*
D10*
%TO.C,C2*%
X172570000Y-59352164D02*
X172570000Y-59567836D01*
X171850000Y-59352164D02*
X171850000Y-59567836D01*
%TO.C,R14*%
X147850000Y-89466359D02*
X147850000Y-89773641D01*
X147090000Y-89466359D02*
X147090000Y-89773641D01*
%TO.C,D3*%
X130150000Y-84937500D02*
X132150000Y-84937500D01*
X130150000Y-84937500D02*
X130150000Y-80927500D01*
X132150000Y-84937500D02*
X132150000Y-80927500D01*
%TO.C,R6*%
X166356359Y-88270000D02*
X166663641Y-88270000D01*
X166356359Y-89030000D02*
X166663641Y-89030000D01*
%TO.C,R13*%
X169620000Y-89773641D02*
X169620000Y-89466359D01*
X170380000Y-89773641D02*
X170380000Y-89466359D01*
%TO.C,R1*%
X148800000Y-97673641D02*
X148800000Y-97366359D01*
X149560000Y-97673641D02*
X149560000Y-97366359D01*
%TO.C,C6*%
X171600000Y-113342164D02*
X171600000Y-113557836D01*
X170880000Y-113342164D02*
X170880000Y-113557836D01*
%TO.C,C10*%
X131110000Y-48077836D02*
X131110000Y-47862164D01*
X131830000Y-48077836D02*
X131830000Y-47862164D01*
%TO.C,Y1*%
X124710000Y-64760000D02*
X124710000Y-61460000D01*
X124710000Y-61460000D02*
X120710000Y-61460000D01*
%TO.C,C14*%
X172730000Y-116202164D02*
X172730000Y-116417836D01*
X172010000Y-116202164D02*
X172010000Y-116417836D01*
%TO.C,R5*%
X152920000Y-98086359D02*
X152920000Y-98393641D01*
X152160000Y-98086359D02*
X152160000Y-98393641D01*
%TO.C,Y1*%
X148210000Y-118760000D02*
X148210000Y-115460000D01*
X148210000Y-115460000D02*
X144210000Y-115460000D01*
%TO.C,C15*%
X145302164Y-114470000D02*
X145517836Y-114470000D01*
X145302164Y-115190000D02*
X145517836Y-115190000D01*
%TO.C,R10*%
X165580000Y-31543641D02*
X165580000Y-31236359D01*
X166340000Y-31543641D02*
X166340000Y-31236359D01*
%TO.C,R6*%
X166356359Y-34270000D02*
X166663641Y-34270000D01*
X166356359Y-35030000D02*
X166663641Y-35030000D01*
%TO.C,C15*%
X145302164Y-60470000D02*
X145517836Y-60470000D01*
X145302164Y-61190000D02*
X145517836Y-61190000D01*
%TO.C,C6*%
X171600000Y-59342164D02*
X171600000Y-59557836D01*
X170880000Y-59342164D02*
X170880000Y-59557836D01*
%TO.C,F1*%
X178850000Y-32511422D02*
X178850000Y-33028578D01*
X177430000Y-32511422D02*
X177430000Y-33028578D01*
%TO.C,R15*%
X131243641Y-89340000D02*
X130936359Y-89340000D01*
X131243641Y-88580000D02*
X130936359Y-88580000D01*
%TO.C,R13*%
X169620000Y-35773641D02*
X169620000Y-35466359D01*
X170380000Y-35773641D02*
X170380000Y-35466359D01*
%TO.C,C12*%
X129220000Y-48407836D02*
X129220000Y-48192164D01*
X129940000Y-48407836D02*
X129940000Y-48192164D01*
%TO.C,C3*%
X150610000Y-101917836D02*
X150610000Y-101702164D01*
X151330000Y-101917836D02*
X151330000Y-101702164D01*
%TO.C,C7*%
X178450000Y-56452164D02*
X178450000Y-56667836D01*
X177730000Y-56452164D02*
X177730000Y-56667836D01*
%TO.C,J4*%
X129660000Y-30650000D02*
X129660000Y-28650000D01*
X129660000Y-26750000D02*
X129660000Y-24850000D01*
X129660000Y-24850000D02*
X120260000Y-24850000D01*
X120260000Y-30650000D02*
X120260000Y-28650000D01*
X120260000Y-26750000D02*
X120260000Y-24850000D01*
%TO.C,C7*%
X154950000Y-110452164D02*
X154950000Y-110667836D01*
X154230000Y-110452164D02*
X154230000Y-110667836D01*
%TO.C,R14*%
X124350000Y-89466359D02*
X124350000Y-89773641D01*
X123590000Y-89466359D02*
X123590000Y-89773641D01*
%TO.C,C15*%
X168802164Y-114470000D02*
X169017836Y-114470000D01*
X168802164Y-115190000D02*
X169017836Y-115190000D01*
%TO.C,R8*%
X146856359Y-93140000D02*
X147163641Y-93140000D01*
X146856359Y-93900000D02*
X147163641Y-93900000D01*
%TO.C,R2*%
X173490000Y-98963641D02*
X173490000Y-98656359D01*
X174250000Y-98963641D02*
X174250000Y-98656359D01*
%TO.C,C6*%
X124600000Y-59342164D02*
X124600000Y-59557836D01*
X123880000Y-59342164D02*
X123880000Y-59557836D01*
%TO.C,U2*%
X120130000Y-47310000D02*
X123130000Y-47310000D01*
X121630000Y-45090000D02*
X123130000Y-45090000D01*
%TO.C,C13*%
X166057836Y-54780000D02*
X165842164Y-54780000D01*
X166057836Y-54060000D02*
X165842164Y-54060000D01*
%TO.C,R5*%
X176420000Y-44086359D02*
X176420000Y-44393641D01*
X175660000Y-44086359D02*
X175660000Y-44393641D01*
%TO.C,C2*%
X125570000Y-59352164D02*
X125570000Y-59567836D01*
X124850000Y-59352164D02*
X124850000Y-59567836D01*
%TO.C,R11*%
X126640000Y-34876359D02*
X126640000Y-35183641D01*
X125880000Y-34876359D02*
X125880000Y-35183641D01*
%TO.C,U2*%
X167130000Y-47310000D02*
X170130000Y-47310000D01*
X168630000Y-45090000D02*
X170130000Y-45090000D01*
%TO.C,C16*%
X122387836Y-98620000D02*
X122172164Y-98620000D01*
X122387836Y-97900000D02*
X122172164Y-97900000D01*
%TO.C,U1*%
X121315000Y-110620000D02*
X121315000Y-109970000D01*
X121965000Y-103400000D02*
X121315000Y-103400000D01*
X121965000Y-110620000D02*
X121315000Y-110620000D01*
X127885000Y-103400000D02*
X128535000Y-103400000D01*
X127885000Y-110620000D02*
X128535000Y-110620000D01*
X128535000Y-103400000D02*
X128535000Y-104050000D01*
X128535000Y-110620000D02*
X128535000Y-109970000D01*
%TO.C,FB1*%
X174606359Y-88930000D02*
X174913641Y-88930000D01*
X174606359Y-89690000D02*
X174913641Y-89690000D01*
%TO.C,R3*%
X155260000Y-94316359D02*
X155260000Y-94623641D01*
X154500000Y-94316359D02*
X154500000Y-94623641D01*
%TO.C,C12*%
X152720000Y-48407836D02*
X152720000Y-48192164D01*
X153440000Y-48407836D02*
X153440000Y-48192164D01*
%TO.C,R7*%
X124723641Y-61250000D02*
X124416359Y-61250000D01*
X124723641Y-60490000D02*
X124416359Y-60490000D01*
%TO.C,R11*%
X150140000Y-34876359D02*
X150140000Y-35183641D01*
X149380000Y-34876359D02*
X149380000Y-35183641D01*
%TO.C,D3*%
X177150000Y-30937500D02*
X179150000Y-30937500D01*
X177150000Y-30937500D02*
X177150000Y-26927500D01*
X179150000Y-30937500D02*
X179150000Y-26927500D01*
%TO.C,R15*%
X154743641Y-89340000D02*
X154436359Y-89340000D01*
X154743641Y-88580000D02*
X154436359Y-88580000D01*
%TO.C,Q1*%
X119060000Y-92040000D02*
X119060000Y-93840000D01*
X119060000Y-92040000D02*
X119060000Y-91240000D01*
X122180000Y-92040000D02*
X122180000Y-92840000D01*
X122180000Y-92040000D02*
X122180000Y-91240000D01*
X142560000Y-38040000D02*
X142560000Y-39840000D01*
X142560000Y-38040000D02*
X142560000Y-37240000D01*
X145680000Y-38040000D02*
X145680000Y-38840000D01*
X145680000Y-38040000D02*
X145680000Y-37240000D01*
%TO.C,R3*%
X178760000Y-40316359D02*
X178760000Y-40623641D01*
X178000000Y-40316359D02*
X178000000Y-40623641D01*
%TO.C,R1*%
X172300000Y-43673641D02*
X172300000Y-43366359D01*
X173060000Y-43673641D02*
X173060000Y-43366359D01*
%TO.C,C2*%
X125570000Y-113352164D02*
X125570000Y-113567836D01*
X124850000Y-113352164D02*
X124850000Y-113567836D01*
D11*
%TO.C,D1*%
X153700000Y-43160000D02*
G75*
G03*
X153700000Y-43160000I-50000J0D01*
G01*
D10*
%TO.C,R12*%
X166340000Y-29236359D02*
X166340000Y-29543641D01*
X165580000Y-29236359D02*
X165580000Y-29543641D01*
%TO.C,R2*%
X126490000Y-98963641D02*
X126490000Y-98656359D01*
X127250000Y-98963641D02*
X127250000Y-98656359D01*
%TO.C,C7*%
X131450000Y-56452164D02*
X131450000Y-56667836D01*
X130730000Y-56452164D02*
X130730000Y-56667836D01*
%TO.C,U3*%
X130480000Y-38540000D02*
X130480000Y-36740000D01*
X130480000Y-38540000D02*
X130480000Y-39340000D01*
X127360000Y-38540000D02*
X127360000Y-37740000D01*
X127360000Y-38540000D02*
X127360000Y-39340000D01*
%TO.C,R5*%
X129420000Y-98086359D02*
X129420000Y-98393641D01*
X128660000Y-98086359D02*
X128660000Y-98393641D01*
%TO.C,Q1*%
X119060000Y-38040000D02*
X119060000Y-39840000D01*
X119060000Y-38040000D02*
X119060000Y-37240000D01*
X122180000Y-38040000D02*
X122180000Y-38840000D01*
X122180000Y-38040000D02*
X122180000Y-37240000D01*
%TO.C,R7*%
X148223641Y-61250000D02*
X147916359Y-61250000D01*
X148223641Y-60490000D02*
X147916359Y-60490000D01*
%TO.C,R1*%
X148800000Y-43673641D02*
X148800000Y-43366359D01*
X149560000Y-43673641D02*
X149560000Y-43366359D01*
%TO.C,F1*%
X178850000Y-86511422D02*
X178850000Y-87028578D01*
X177430000Y-86511422D02*
X177430000Y-87028578D01*
%TO.C,C17*%
X165580000Y-27507836D02*
X165580000Y-27292164D01*
X166300000Y-27507836D02*
X166300000Y-27292164D01*
%TO.C,R12*%
X119340000Y-29236359D02*
X119340000Y-29543641D01*
X118580000Y-29236359D02*
X118580000Y-29543641D01*
%TO.C,C8*%
X142557836Y-55760000D02*
X142342164Y-55760000D01*
X142557836Y-55040000D02*
X142342164Y-55040000D01*
%TO.C,C13*%
X142557836Y-108780000D02*
X142342164Y-108780000D01*
X142557836Y-108060000D02*
X142342164Y-108060000D01*
%TO.C,R9*%
X167106359Y-97880000D02*
X167413641Y-97880000D01*
X167106359Y-98640000D02*
X167413641Y-98640000D01*
D11*
%TO.C,D1*%
X177200000Y-97160000D02*
G75*
G03*
X177200000Y-97160000I-50000J0D01*
G01*
D10*
%TO.C,J4*%
X153160000Y-30650000D02*
X153160000Y-28650000D01*
X153160000Y-26750000D02*
X153160000Y-24850000D01*
X153160000Y-24850000D02*
X143760000Y-24850000D01*
X143760000Y-30650000D02*
X143760000Y-28650000D01*
X143760000Y-26750000D02*
X143760000Y-24850000D01*
%TO.C,C9*%
X143497836Y-49120000D02*
X143282164Y-49120000D01*
X143497836Y-48400000D02*
X143282164Y-48400000D01*
%TO.C,C11*%
X175170000Y-47957836D02*
X175170000Y-47742164D01*
X175890000Y-47957836D02*
X175890000Y-47742164D01*
%TO.C,U3*%
X177480000Y-38540000D02*
X177480000Y-36740000D01*
X177480000Y-38540000D02*
X177480000Y-39340000D01*
X174360000Y-38540000D02*
X174360000Y-37740000D01*
X174360000Y-38540000D02*
X174360000Y-39340000D01*
%TO.C,R15*%
X178243641Y-35340000D02*
X177936359Y-35340000D01*
X178243641Y-34580000D02*
X177936359Y-34580000D01*
%TO.C,C17*%
X142080000Y-27507836D02*
X142080000Y-27292164D01*
X142800000Y-27507836D02*
X142800000Y-27292164D01*
%TO.C,U1*%
X168315000Y-110620000D02*
X168315000Y-109970000D01*
X168965000Y-103400000D02*
X168315000Y-103400000D01*
X168965000Y-110620000D02*
X168315000Y-110620000D01*
X174885000Y-103400000D02*
X175535000Y-103400000D01*
X174885000Y-110620000D02*
X175535000Y-110620000D01*
X175535000Y-103400000D02*
X175535000Y-104050000D01*
X175535000Y-110620000D02*
X175535000Y-109970000D01*
D11*
%TO.C,D1*%
X130200000Y-43160000D02*
G75*
G03*
X130200000Y-43160000I-50000J0D01*
G01*
D10*
%TO.C,R14*%
X171350000Y-35466359D02*
X171350000Y-35773641D01*
X170590000Y-35466359D02*
X170590000Y-35773641D01*
%TO.C,C4*%
X176912164Y-49480000D02*
X177127836Y-49480000D01*
X176912164Y-50200000D02*
X177127836Y-50200000D01*
X129912164Y-103480000D02*
X130127836Y-103480000D01*
X129912164Y-104200000D02*
X130127836Y-104200000D01*
%TO.C,C1*%
X171030000Y-46627836D02*
X171030000Y-46412164D01*
X171750000Y-46627836D02*
X171750000Y-46412164D01*
%TO.C,R9*%
X143606359Y-97880000D02*
X143913641Y-97880000D01*
X143606359Y-98640000D02*
X143913641Y-98640000D01*
%TO.C,C17*%
X118580000Y-81507836D02*
X118580000Y-81292164D01*
X119300000Y-81507836D02*
X119300000Y-81292164D01*
%TO.C,R13*%
X122620000Y-89773641D02*
X122620000Y-89466359D01*
X123380000Y-89773641D02*
X123380000Y-89466359D01*
%TO.C,Y1*%
X171710000Y-64760000D02*
X171710000Y-61460000D01*
X171710000Y-61460000D02*
X167710000Y-61460000D01*
%TO.C,R7*%
X171723641Y-61250000D02*
X171416359Y-61250000D01*
X171723641Y-60490000D02*
X171416359Y-60490000D01*
%TO.C,R6*%
X142856359Y-34270000D02*
X143163641Y-34270000D01*
X142856359Y-35030000D02*
X143163641Y-35030000D01*
%TO.C,R2*%
X126490000Y-44963641D02*
X126490000Y-44656359D01*
X127250000Y-44963641D02*
X127250000Y-44656359D01*
%TO.C,R1*%
X125300000Y-43673641D02*
X125300000Y-43366359D01*
X126060000Y-43673641D02*
X126060000Y-43366359D01*
%TO.C,Q1*%
X142560000Y-92040000D02*
X142560000Y-93840000D01*
X142560000Y-92040000D02*
X142560000Y-91240000D01*
X145680000Y-92040000D02*
X145680000Y-92840000D01*
X145680000Y-92040000D02*
X145680000Y-91240000D01*
%TO.C,C9*%
X119997836Y-103120000D02*
X119782164Y-103120000D01*
X119997836Y-102400000D02*
X119782164Y-102400000D01*
%TO.C,C5*%
X125300000Y-45687836D02*
X125300000Y-45472164D01*
X126020000Y-45687836D02*
X126020000Y-45472164D01*
%TO.C,C9*%
X119997836Y-49120000D02*
X119782164Y-49120000D01*
X119997836Y-48400000D02*
X119782164Y-48400000D01*
%TO.C,R7*%
X171723641Y-115250000D02*
X171416359Y-115250000D01*
X171723641Y-114490000D02*
X171416359Y-114490000D01*
%TO.C,C19*%
X123620000Y-98727836D02*
X123620000Y-98512164D01*
X124340000Y-98727836D02*
X124340000Y-98512164D01*
%TO.C,R8*%
X170356359Y-39140000D02*
X170663641Y-39140000D01*
X170356359Y-39900000D02*
X170663641Y-39900000D01*
%TO.C,C6*%
X148100000Y-59342164D02*
X148100000Y-59557836D01*
X147380000Y-59342164D02*
X147380000Y-59557836D01*
%TO.C,C19*%
X123620000Y-44727836D02*
X123620000Y-44512164D01*
X124340000Y-44727836D02*
X124340000Y-44512164D01*
%TO.C,C11*%
X128170000Y-101957836D02*
X128170000Y-101742164D01*
X128890000Y-101957836D02*
X128890000Y-101742164D01*
%TO.C,R12*%
X119340000Y-83236359D02*
X119340000Y-83543641D01*
X118580000Y-83236359D02*
X118580000Y-83543641D01*
%TO.C,R10*%
X165580000Y-85543641D02*
X165580000Y-85236359D01*
X166340000Y-85543641D02*
X166340000Y-85236359D01*
%TO.C,R2*%
X173490000Y-44963641D02*
X173490000Y-44656359D01*
X174250000Y-44963641D02*
X174250000Y-44656359D01*
%TO.C,C15*%
X168802164Y-60470000D02*
X169017836Y-60470000D01*
X168802164Y-61190000D02*
X169017836Y-61190000D01*
%TO.C,C16*%
X145887836Y-44620000D02*
X145672164Y-44620000D01*
X145887836Y-43900000D02*
X145672164Y-43900000D01*
%TO.C,C12*%
X176220000Y-48407836D02*
X176220000Y-48192164D01*
X176940000Y-48407836D02*
X176940000Y-48192164D01*
%TO.C,R10*%
X142080000Y-85543641D02*
X142080000Y-85236359D01*
X142840000Y-85543641D02*
X142840000Y-85236359D01*
%TO.C,C7*%
X131450000Y-110452164D02*
X131450000Y-110667836D01*
X130730000Y-110452164D02*
X130730000Y-110667836D01*
%TO.C,C19*%
X147120000Y-98727836D02*
X147120000Y-98512164D01*
X147840000Y-98727836D02*
X147840000Y-98512164D01*
D11*
%TO.C,D1*%
X153700000Y-97160000D02*
G75*
G03*
X153700000Y-97160000I-50000J0D01*
G01*
D10*
%TO.C,C5*%
X125300000Y-99687836D02*
X125300000Y-99472164D01*
X126020000Y-99687836D02*
X126020000Y-99472164D01*
%TO.C,C6*%
X148100000Y-113342164D02*
X148100000Y-113557836D01*
X147380000Y-113342164D02*
X147380000Y-113557836D01*
%TO.C,R3*%
X131760000Y-94316359D02*
X131760000Y-94623641D01*
X131000000Y-94316359D02*
X131000000Y-94623641D01*
%TO.C,C8*%
X119057836Y-109760000D02*
X118842164Y-109760000D01*
X119057836Y-109040000D02*
X118842164Y-109040000D01*
%TO.C,U3*%
X130480000Y-92540000D02*
X130480000Y-90740000D01*
X130480000Y-92540000D02*
X130480000Y-93340000D01*
X127360000Y-92540000D02*
X127360000Y-91740000D01*
X127360000Y-92540000D02*
X127360000Y-93340000D01*
%TO.C,C8*%
X119057836Y-55760000D02*
X118842164Y-55760000D01*
X119057836Y-55040000D02*
X118842164Y-55040000D01*
%TO.C,C4*%
X176912164Y-103480000D02*
X177127836Y-103480000D01*
X176912164Y-104200000D02*
X177127836Y-104200000D01*
%TO.C,FB1*%
X127606359Y-88930000D02*
X127913641Y-88930000D01*
X127606359Y-89690000D02*
X127913641Y-89690000D01*
%TO.C,F1*%
X155350000Y-32511422D02*
X155350000Y-33028578D01*
X153930000Y-32511422D02*
X153930000Y-33028578D01*
D11*
%TO.C,D2*%
X122620000Y-88650000D02*
G75*
G03*
X122620000Y-88650000I-50000J0D01*
G01*
D10*
%TO.C,R1*%
X125300000Y-97673641D02*
X125300000Y-97366359D01*
X126060000Y-97673641D02*
X126060000Y-97366359D01*
%TO.C,R13*%
X146120000Y-89773641D02*
X146120000Y-89466359D01*
X146880000Y-89773641D02*
X146880000Y-89466359D01*
D11*
%TO.C,D2*%
X146120000Y-88650000D02*
G75*
G03*
X146120000Y-88650000I-50000J0D01*
G01*
D10*
%TO.C,R13*%
X146120000Y-35773641D02*
X146120000Y-35466359D01*
X146880000Y-35773641D02*
X146880000Y-35466359D01*
%TO.C,FB1*%
X151106359Y-88930000D02*
X151413641Y-88930000D01*
X151106359Y-89690000D02*
X151413641Y-89690000D01*
%TO.C,R10*%
X118580000Y-31543641D02*
X118580000Y-31236359D01*
X119340000Y-31543641D02*
X119340000Y-31236359D01*
%TO.C,FB1*%
X151106359Y-34930000D02*
X151413641Y-34930000D01*
X151106359Y-35690000D02*
X151413641Y-35690000D01*
%TO.C,C10*%
X178110000Y-102077836D02*
X178110000Y-101862164D01*
X178830000Y-102077836D02*
X178830000Y-101862164D01*
D11*
%TO.C,D1*%
X130200000Y-97160000D02*
G75*
G03*
X130200000Y-97160000I-50000J0D01*
G01*
D10*
%TO.C,C2*%
X149070000Y-59352164D02*
X149070000Y-59567836D01*
X148350000Y-59352164D02*
X148350000Y-59567836D01*
%TO.C,R12*%
X142840000Y-29236359D02*
X142840000Y-29543641D01*
X142080000Y-29236359D02*
X142080000Y-29543641D01*
%TO.C,R11*%
X173640000Y-88876359D02*
X173640000Y-89183641D01*
X172880000Y-88876359D02*
X172880000Y-89183641D01*
%TO.C,J4*%
X129660000Y-84650000D02*
X129660000Y-82650000D01*
X129660000Y-80750000D02*
X129660000Y-78850000D01*
X129660000Y-78850000D02*
X120260000Y-78850000D01*
X120260000Y-84650000D02*
X120260000Y-82650000D01*
X120260000Y-80750000D02*
X120260000Y-78850000D01*
%TO.C,R1*%
X172300000Y-97673641D02*
X172300000Y-97366359D01*
X173060000Y-97673641D02*
X173060000Y-97366359D01*
%TO.C,R8*%
X123356359Y-93140000D02*
X123663641Y-93140000D01*
X123356359Y-93900000D02*
X123663641Y-93900000D01*
%TO.C,U3*%
X177480000Y-92540000D02*
X177480000Y-90740000D01*
X177480000Y-92540000D02*
X177480000Y-93340000D01*
X174360000Y-92540000D02*
X174360000Y-91740000D01*
X174360000Y-92540000D02*
X174360000Y-93340000D01*
%TO.C,C5*%
X148800000Y-99687836D02*
X148800000Y-99472164D01*
X149520000Y-99687836D02*
X149520000Y-99472164D01*
%TO.C,U1*%
X121315000Y-56620000D02*
X121315000Y-55970000D01*
X121965000Y-49400000D02*
X121315000Y-49400000D01*
X121965000Y-56620000D02*
X121315000Y-56620000D01*
X127885000Y-49400000D02*
X128535000Y-49400000D01*
X127885000Y-56620000D02*
X128535000Y-56620000D01*
X128535000Y-49400000D02*
X128535000Y-50050000D01*
X128535000Y-56620000D02*
X128535000Y-55970000D01*
%TO.C,C16*%
X122387836Y-44620000D02*
X122172164Y-44620000D01*
X122387836Y-43900000D02*
X122172164Y-43900000D01*
%TO.C,C5*%
X172300000Y-45687836D02*
X172300000Y-45472164D01*
X173020000Y-45687836D02*
X173020000Y-45472164D01*
%TO.C,R5*%
X129420000Y-44086359D02*
X129420000Y-44393641D01*
X128660000Y-44086359D02*
X128660000Y-44393641D01*
%TO.C,C14*%
X149230000Y-62202164D02*
X149230000Y-62417836D01*
X148510000Y-62202164D02*
X148510000Y-62417836D01*
%TO.C,Y1*%
X148210000Y-64760000D02*
X148210000Y-61460000D01*
X148210000Y-61460000D02*
X144210000Y-61460000D01*
%TO.C,C14*%
X125730000Y-62202164D02*
X125730000Y-62417836D01*
X125010000Y-62202164D02*
X125010000Y-62417836D01*
%TO.C,R9*%
X120106359Y-97880000D02*
X120413641Y-97880000D01*
X120106359Y-98640000D02*
X120413641Y-98640000D01*
%TO.C,C10*%
X154610000Y-48077836D02*
X154610000Y-47862164D01*
X155330000Y-48077836D02*
X155330000Y-47862164D01*
%TO.C,D3*%
X153650000Y-84937500D02*
X155650000Y-84937500D01*
X153650000Y-84937500D02*
X153650000Y-80927500D01*
X155650000Y-84937500D02*
X155650000Y-80927500D01*
%TO.C,C8*%
X166057836Y-109760000D02*
X165842164Y-109760000D01*
X166057836Y-109040000D02*
X165842164Y-109040000D01*
%TO.C,C4*%
X153412164Y-49480000D02*
X153627836Y-49480000D01*
X153412164Y-50200000D02*
X153627836Y-50200000D01*
%TO.C,C17*%
X165580000Y-81507836D02*
X165580000Y-81292164D01*
X166300000Y-81507836D02*
X166300000Y-81292164D01*
%TO.C,C9*%
X166997836Y-103120000D02*
X166782164Y-103120000D01*
X166997836Y-102400000D02*
X166782164Y-102400000D01*
%TO.C,R9*%
X143606359Y-43880000D02*
X143913641Y-43880000D01*
X143606359Y-44640000D02*
X143913641Y-44640000D01*
%TO.C,R4*%
X131103641Y-42540000D02*
X130796359Y-42540000D01*
X131103641Y-41780000D02*
X130796359Y-41780000D01*
%TO.C,C5*%
X148800000Y-45687836D02*
X148800000Y-45472164D01*
X149520000Y-45687836D02*
X149520000Y-45472164D01*
%TO.C,C9*%
X143497836Y-103120000D02*
X143282164Y-103120000D01*
X143497836Y-102400000D02*
X143282164Y-102400000D01*
%TO.C,C13*%
X166057836Y-108780000D02*
X165842164Y-108780000D01*
X166057836Y-108060000D02*
X165842164Y-108060000D01*
%TO.C,C10*%
X154610000Y-102077836D02*
X154610000Y-101862164D01*
X155330000Y-102077836D02*
X155330000Y-101862164D01*
%TO.C,C15*%
X121802164Y-60470000D02*
X122017836Y-60470000D01*
X121802164Y-61190000D02*
X122017836Y-61190000D01*
%TO.C,R5*%
X152920000Y-44086359D02*
X152920000Y-44393641D01*
X152160000Y-44086359D02*
X152160000Y-44393641D01*
%TO.C,C3*%
X127110000Y-47917836D02*
X127110000Y-47702164D01*
X127830000Y-47917836D02*
X127830000Y-47702164D01*
%TO.C,C8*%
X142557836Y-109760000D02*
X142342164Y-109760000D01*
X142557836Y-109040000D02*
X142342164Y-109040000D01*
%TO.C,C13*%
X119057836Y-54780000D02*
X118842164Y-54780000D01*
X119057836Y-54060000D02*
X118842164Y-54060000D01*
%TO.C,C17*%
X118580000Y-27507836D02*
X118580000Y-27292164D01*
X119300000Y-27507836D02*
X119300000Y-27292164D01*
%TO.C,R11*%
X126640000Y-88876359D02*
X126640000Y-89183641D01*
X125880000Y-88876359D02*
X125880000Y-89183641D01*
%TO.C,R6*%
X119356359Y-34270000D02*
X119663641Y-34270000D01*
X119356359Y-35030000D02*
X119663641Y-35030000D01*
%TO.C,R10*%
X118580000Y-85543641D02*
X118580000Y-85236359D01*
X119340000Y-85543641D02*
X119340000Y-85236359D01*
%TO.C,R4*%
X178103641Y-96540000D02*
X177796359Y-96540000D01*
X178103641Y-95780000D02*
X177796359Y-95780000D01*
%TO.C,C7*%
X154950000Y-56452164D02*
X154950000Y-56667836D01*
X154230000Y-56452164D02*
X154230000Y-56667836D01*
D11*
%TO.C,D1*%
X177200000Y-43160000D02*
G75*
G03*
X177200000Y-43160000I-50000J0D01*
G01*
D10*
%TO.C,J4*%
X176660000Y-30650000D02*
X176660000Y-28650000D01*
X176660000Y-26750000D02*
X176660000Y-24850000D01*
X176660000Y-24850000D02*
X167260000Y-24850000D01*
X167260000Y-30650000D02*
X167260000Y-28650000D01*
X167260000Y-26750000D02*
X167260000Y-24850000D01*
X153160000Y-84650000D02*
X153160000Y-82650000D01*
X153160000Y-80750000D02*
X153160000Y-78850000D01*
X153160000Y-78850000D02*
X143760000Y-78850000D01*
X143760000Y-84650000D02*
X143760000Y-82650000D01*
X143760000Y-80750000D02*
X143760000Y-78850000D01*
D11*
%TO.C,D2*%
X169620000Y-34650000D02*
G75*
G03*
X169620000Y-34650000I-50000J0D01*
G01*
D10*
%TO.C,R3*%
X155260000Y-40316359D02*
X155260000Y-40623641D01*
X154500000Y-40316359D02*
X154500000Y-40623641D01*
%TO.C,D3*%
X177150000Y-84937500D02*
X179150000Y-84937500D01*
X177150000Y-84937500D02*
X177150000Y-80927500D01*
X179150000Y-84937500D02*
X179150000Y-80927500D01*
%TO.C,FB1*%
X174606359Y-34930000D02*
X174913641Y-34930000D01*
X174606359Y-35690000D02*
X174913641Y-35690000D01*
%TO.C,C8*%
X166057836Y-55760000D02*
X165842164Y-55760000D01*
X166057836Y-55040000D02*
X165842164Y-55040000D01*
%TO.C,R11*%
X173640000Y-34876359D02*
X173640000Y-35183641D01*
X172880000Y-34876359D02*
X172880000Y-35183641D01*
%TO.C,C17*%
X142080000Y-81507836D02*
X142080000Y-81292164D01*
X142800000Y-81507836D02*
X142800000Y-81292164D01*
%TO.C,R12*%
X142840000Y-83236359D02*
X142840000Y-83543641D01*
X142080000Y-83236359D02*
X142080000Y-83543641D01*
%TO.C,C11*%
X175170000Y-101957836D02*
X175170000Y-101742164D01*
X175890000Y-101957836D02*
X175890000Y-101742164D01*
%TO.C,C12*%
X152720000Y-102407836D02*
X152720000Y-102192164D01*
X153440000Y-102407836D02*
X153440000Y-102192164D01*
%TO.C,R14*%
X147850000Y-35466359D02*
X147850000Y-35773641D01*
X147090000Y-35466359D02*
X147090000Y-35773641D01*
%TO.C,C14*%
X149230000Y-116202164D02*
X149230000Y-116417836D01*
X148510000Y-116202164D02*
X148510000Y-116417836D01*
%TO.C,R2*%
X149990000Y-44963641D02*
X149990000Y-44656359D01*
X150750000Y-44963641D02*
X150750000Y-44656359D01*
%TO.C,U3*%
X153980000Y-38540000D02*
X153980000Y-36740000D01*
X153980000Y-38540000D02*
X153980000Y-39340000D01*
X150860000Y-38540000D02*
X150860000Y-37740000D01*
X150860000Y-38540000D02*
X150860000Y-39340000D01*
%TO.C,R15*%
X131243641Y-35340000D02*
X130936359Y-35340000D01*
X131243641Y-34580000D02*
X130936359Y-34580000D01*
%TO.C,C19*%
X147120000Y-44727836D02*
X147120000Y-44512164D01*
X147840000Y-44727836D02*
X147840000Y-44512164D01*
%TO.C,C13*%
X119057836Y-108780000D02*
X118842164Y-108780000D01*
X119057836Y-108060000D02*
X118842164Y-108060000D01*
%TO.C,Q1*%
X166060000Y-38040000D02*
X166060000Y-39840000D01*
X166060000Y-38040000D02*
X166060000Y-37240000D01*
X169180000Y-38040000D02*
X169180000Y-38840000D01*
X169180000Y-38040000D02*
X169180000Y-37240000D01*
%TO.C,R4*%
X131103641Y-96540000D02*
X130796359Y-96540000D01*
X131103641Y-95780000D02*
X130796359Y-95780000D01*
%TO.C,R9*%
X120106359Y-43880000D02*
X120413641Y-43880000D01*
X120106359Y-44640000D02*
X120413641Y-44640000D01*
%TO.C,R13*%
X122620000Y-35773641D02*
X122620000Y-35466359D01*
X123380000Y-35773641D02*
X123380000Y-35466359D01*
D11*
%TO.C,D2*%
X122620000Y-34650000D02*
G75*
G03*
X122620000Y-34650000I-50000J0D01*
G01*
D10*
%TO.C,C14*%
X125730000Y-116202164D02*
X125730000Y-116417836D01*
X125010000Y-116202164D02*
X125010000Y-116417836D01*
%TO.C,D3*%
X153650000Y-30937500D02*
X155650000Y-30937500D01*
X153650000Y-30937500D02*
X153650000Y-26927500D01*
X155650000Y-30937500D02*
X155650000Y-26927500D01*
%TO.C,C2*%
X149070000Y-113352164D02*
X149070000Y-113567836D01*
X148350000Y-113352164D02*
X148350000Y-113567836D01*
%TO.C,R15*%
X178243641Y-89340000D02*
X177936359Y-89340000D01*
X178243641Y-88580000D02*
X177936359Y-88580000D01*
%TO.C,U3*%
X153980000Y-92540000D02*
X153980000Y-90740000D01*
X153980000Y-92540000D02*
X153980000Y-93340000D01*
X150860000Y-92540000D02*
X150860000Y-91740000D01*
X150860000Y-92540000D02*
X150860000Y-93340000D01*
%TO.C,C11*%
X151670000Y-101957836D02*
X151670000Y-101742164D01*
X152390000Y-101957836D02*
X152390000Y-101742164D01*
%TO.C,R4*%
X154603641Y-42540000D02*
X154296359Y-42540000D01*
X154603641Y-41780000D02*
X154296359Y-41780000D01*
%TO.C,U2*%
X120130000Y-101310000D02*
X123130000Y-101310000D01*
X121630000Y-99090000D02*
X123130000Y-99090000D01*
%TO.C,F1*%
X131850000Y-32511422D02*
X131850000Y-33028578D01*
X130430000Y-32511422D02*
X130430000Y-33028578D01*
%TO.C,R14*%
X124350000Y-35466359D02*
X124350000Y-35773641D01*
X123590000Y-35466359D02*
X123590000Y-35773641D01*
%TD*%
M02*
