M48
; DRILL file {KiCad 7.0.9} date Fri May 10 15:48:29 2024
; FORMAT={-:-/ absolute / inch / decimal}
; #@! TF.CreationDate,2024-05-10T15:48:29-04:00
; #@! TF.GenerationSoftware,Kicad,Pcbnew,7.0.9
; #@! TF.FileFunction,NonPlated,1,2,NPTH
FMAT,2
INCH
; #@! TA.AperFunction,NonPlated,NPTH,ComponentDrill
T1C0.0079
; #@! TA.AperFunction,NonPlated,NPTH,ComponentDrill
T2C0.0256
%
G90
G05
T1
X4.3307Y-0.9843
X4.3307Y-5.1181
X4.3471Y-0.9843
X4.3471Y-5.1181
X4.3635Y-0.9843
X4.3635Y-5.1181
X4.3799Y-0.9843
X4.3799Y-5.1181
X4.3963Y-0.9843
X4.3963Y-5.1181
X4.4127Y-0.9843
X4.4127Y-5.1181
X4.4291Y-0.9843
X4.4291Y-5.1181
X4.5079Y-0.7874
X4.5079Y-0.8038
X4.5079Y-0.8202
X4.5079Y-0.8366
X4.5079Y-0.853
X4.5079Y-0.8694
X4.5079Y-0.8858
X4.5079Y-1.5945
X4.5079Y-1.6114
X4.5079Y-1.6282
X4.5079Y-1.6451
X4.5079Y-1.662
X4.5079Y-1.6789
X4.5079Y-1.6957
X4.5079Y-1.7126
X4.5079Y-2.2638
X4.5079Y-2.2807
X4.5079Y-2.2975
X4.5079Y-2.3144
X4.5079Y-2.3313
X4.5079Y-2.3481
X4.5079Y-2.365
X4.5079Y-2.3819
X4.5079Y-3.0118
X4.5079Y-3.0276
X4.5079Y-3.0433
X4.5079Y-3.0591
X4.5079Y-3.0748
X4.5079Y-3.0906
X4.5079Y-3.7205
X4.5079Y-3.7373
X4.5079Y-3.7542
X4.5079Y-3.7711
X4.5079Y-3.788
X4.5079Y-3.8048
X4.5079Y-3.8217
X4.5079Y-3.8386
X4.5079Y-4.3898
X4.5079Y-4.4066
X4.5079Y-4.4235
X4.5079Y-4.4404
X4.5079Y-4.4573
X4.5079Y-4.4741
X4.5079Y-4.491
X4.5079Y-4.5079
X4.5079Y-5.2165
X4.5079Y-5.2329
X4.5079Y-5.2493
X4.5079Y-5.2657
X4.5079Y-5.2822
X4.5079Y-5.2986
X4.5079Y-5.315
X4.7244Y-0.9843
X4.7244Y-2.9921
X4.7244Y-3.1102
X4.7244Y-5.1181
X4.7413Y-0.9843
X4.7413Y-2.9921
X4.7413Y-3.1102
X4.7413Y-5.1181
X4.7582Y-0.9843
X4.7582Y-2.9921
X4.7582Y-3.1102
X4.7582Y-5.1181
X4.775Y-0.9843
X4.775Y-2.9921
X4.775Y-3.1102
X4.775Y-5.1181
X4.7919Y-0.9843
X4.7919Y-2.9921
X4.7919Y-3.1102
X4.7919Y-5.1181
X4.8088Y-0.9843
X4.8088Y-2.9921
X4.8088Y-3.1102
X4.8088Y-5.1181
X4.8256Y-0.9843
X4.8256Y-2.9921
X4.8256Y-3.1102
X4.8256Y-5.1181
X4.8425Y-0.9843
X4.8425Y-2.9921
X4.8425Y-3.1102
X4.8425Y-5.1181
X5.0Y-0.9843
X5.0Y-2.9921
X5.0Y-3.1102
X5.0Y-5.1181
X5.0169Y-0.9843
X5.0169Y-2.9921
X5.0169Y-3.1102
X5.0169Y-5.1181
X5.0337Y-0.9843
X5.0337Y-2.9921
X5.0337Y-3.1102
X5.0337Y-5.1181
X5.0506Y-0.9843
X5.0506Y-2.9921
X5.0506Y-3.1102
X5.0506Y-5.1181
X5.0675Y-0.9843
X5.0675Y-2.9921
X5.0675Y-3.1102
X5.0675Y-5.1181
X5.0844Y-0.9843
X5.0844Y-2.9921
X5.0844Y-3.1102
X5.0844Y-5.1181
X5.1012Y-0.9843
X5.1012Y-2.9921
X5.1012Y-3.1102
X5.1012Y-5.1181
X5.1181Y-0.9843
X5.1181Y-2.9921
X5.1181Y-3.1102
X5.1181Y-5.1181
X5.3346Y-1.5945
X5.3346Y-1.6114
X5.3346Y-1.6282
X5.3346Y-1.6451
X5.3346Y-1.662
X5.3346Y-1.6789
X5.3346Y-1.6957
X5.3346Y-1.7126
X5.3346Y-2.2638
X5.3346Y-2.2807
X5.3346Y-2.2975
X5.3346Y-2.3144
X5.3346Y-2.3313
X5.3346Y-2.3481
X5.3346Y-2.365
X5.3346Y-2.3819
X5.3346Y-3.7205
X5.3346Y-3.7373
X5.3346Y-3.7542
X5.3346Y-3.7711
X5.3346Y-3.788
X5.3346Y-3.8048
X5.3346Y-3.8217
X5.3346Y-3.8386
X5.3346Y-4.3898
X5.3346Y-4.4066
X5.3346Y-4.4235
X5.3346Y-4.4404
X5.3346Y-4.4573
X5.3346Y-4.4741
X5.3346Y-4.491
X5.3346Y-4.5079
X5.3839Y-3.0118
X5.3839Y-3.0276
X5.3839Y-3.0433
X5.3839Y-3.0591
X5.3839Y-3.0748
X5.3839Y-3.0906
X5.4331Y-1.5945
X5.4331Y-1.6114
X5.4331Y-1.6282
X5.4331Y-1.6451
X5.4331Y-1.662
X5.4331Y-1.6789
X5.4331Y-1.6957
X5.4331Y-1.7126
X5.4331Y-2.2638
X5.4331Y-2.2807
X5.4331Y-2.2975
X5.4331Y-2.3144
X5.4331Y-2.3313
X5.4331Y-2.3481
X5.4331Y-2.365
X5.4331Y-2.3819
X5.4331Y-3.7205
X5.4331Y-3.7373
X5.4331Y-3.7542
X5.4331Y-3.7711
X5.4331Y-3.788
X5.4331Y-3.8048
X5.4331Y-3.8217
X5.4331Y-3.8386
X5.4331Y-4.3898
X5.4331Y-4.4066
X5.4331Y-4.4235
X5.4331Y-4.4404
X5.4331Y-4.4573
X5.4331Y-4.4741
X5.4331Y-4.491
X5.4331Y-4.5079
X5.6496Y-0.9843
X5.6496Y-2.9921
X5.6496Y-3.1102
X5.6496Y-5.1181
X5.6665Y-0.9843
X5.6665Y-2.9921
X5.6665Y-3.1102
X5.6665Y-5.1181
X5.6834Y-0.9843
X5.6834Y-2.9921
X5.6834Y-3.1102
X5.6834Y-5.1181
X5.7002Y-0.9843
X5.7002Y-2.9921
X5.7002Y-3.1102
X5.7002Y-5.1181
X5.7171Y-0.9843
X5.7171Y-2.9921
X5.7171Y-3.1102
X5.7171Y-5.1181
X5.734Y-0.9843
X5.734Y-2.9921
X5.734Y-3.1102
X5.734Y-5.1181
X5.7508Y-0.9843
X5.7508Y-2.9921
X5.7508Y-3.1102
X5.7508Y-5.1181
X5.7677Y-0.9843
X5.7677Y-2.9921
X5.7677Y-3.1102
X5.7677Y-5.1181
X5.9252Y-0.9843
X5.9252Y-2.9921
X5.9252Y-3.1102
X5.9252Y-5.1181
X5.9421Y-0.9843
X5.9421Y-2.9921
X5.9421Y-3.1102
X5.9421Y-5.1181
X5.9589Y-0.9843
X5.9589Y-2.9921
X5.9589Y-3.1102
X5.9589Y-5.1181
X5.9758Y-0.9843
X5.9758Y-2.9921
X5.9758Y-3.1102
X5.9758Y-5.1181
X5.9927Y-0.9843
X5.9927Y-2.9921
X5.9927Y-3.1102
X5.9927Y-5.1181
X6.0096Y-0.9843
X6.0096Y-2.9921
X6.0096Y-3.1102
X6.0096Y-5.1181
X6.0264Y-0.9843
X6.0264Y-2.9921
X6.0264Y-3.1102
X6.0264Y-5.1181
X6.0433Y-0.9843
X6.0433Y-2.9921
X6.0433Y-3.1102
X6.0433Y-5.1181
X6.2598Y-1.5945
X6.2598Y-1.6114
X6.2598Y-1.6282
X6.2598Y-1.6451
X6.2598Y-1.662
X6.2598Y-1.6789
X6.2598Y-1.6957
X6.2598Y-1.7126
X6.2598Y-2.2638
X6.2598Y-2.2807
X6.2598Y-2.2975
X6.2598Y-2.3144
X6.2598Y-2.3313
X6.2598Y-2.3481
X6.2598Y-2.365
X6.2598Y-2.3819
X6.2598Y-3.7205
X6.2598Y-3.7373
X6.2598Y-3.7542
X6.2598Y-3.7711
X6.2598Y-3.788
X6.2598Y-3.8048
X6.2598Y-3.8217
X6.2598Y-3.8386
X6.2598Y-4.3898
X6.2598Y-4.4066
X6.2598Y-4.4235
X6.2598Y-4.4404
X6.2598Y-4.4573
X6.2598Y-4.4741
X6.2598Y-4.491
X6.2598Y-4.5079
X6.3091Y-3.0118
X6.3091Y-3.0276
X6.3091Y-3.0433
X6.3091Y-3.0591
X6.3091Y-3.0748
X6.3091Y-3.0906
X6.3583Y-1.5945
X6.3583Y-1.6114
X6.3583Y-1.6282
X6.3583Y-1.6451
X6.3583Y-1.662
X6.3583Y-1.6789
X6.3583Y-1.6957
X6.3583Y-1.7126
X6.3583Y-2.2638
X6.3583Y-2.2807
X6.3583Y-2.2975
X6.3583Y-2.3144
X6.3583Y-2.3313
X6.3583Y-2.3481
X6.3583Y-2.365
X6.3583Y-2.3819
X6.3583Y-3.7205
X6.3583Y-3.7373
X6.3583Y-3.7542
X6.3583Y-3.7711
X6.3583Y-3.788
X6.3583Y-3.8048
X6.3583Y-3.8217
X6.3583Y-3.8386
X6.3583Y-4.3898
X6.3583Y-4.4066
X6.3583Y-4.4235
X6.3583Y-4.4404
X6.3583Y-4.4573
X6.3583Y-4.4741
X6.3583Y-4.491
X6.3583Y-4.5079
X6.5748Y-0.9843
X6.5748Y-2.9921
X6.5748Y-3.1102
X6.5748Y-5.1181
X6.5917Y-0.9843
X6.5917Y-2.9921
X6.5917Y-3.1102
X6.5917Y-5.1181
X6.6085Y-0.9843
X6.6085Y-2.9921
X6.6085Y-3.1102
X6.6085Y-5.1181
X6.6254Y-0.9843
X6.6254Y-2.9921
X6.6254Y-3.1102
X6.6254Y-5.1181
X6.6423Y-0.9843
X6.6423Y-2.9921
X6.6423Y-3.1102
X6.6423Y-5.1181
X6.6592Y-0.9843
X6.6592Y-2.9921
X6.6592Y-3.1102
X6.6592Y-5.1181
X6.676Y-0.9843
X6.676Y-2.9921
X6.676Y-3.1102
X6.676Y-5.1181
X6.6929Y-0.9843
X6.6929Y-2.9921
X6.6929Y-3.1102
X6.6929Y-5.1181
X6.8504Y-0.9843
X6.8504Y-2.9921
X6.8504Y-3.1102
X6.8504Y-5.1181
X6.8673Y-0.9843
X6.8673Y-2.9921
X6.8673Y-3.1102
X6.8673Y-5.1181
X6.8841Y-0.9843
X6.8841Y-2.9921
X6.8841Y-3.1102
X6.8841Y-5.1181
X6.901Y-0.9843
X6.901Y-2.9921
X6.901Y-3.1102
X6.901Y-5.1181
X6.9179Y-0.9843
X6.9179Y-2.9921
X6.9179Y-3.1102
X6.9179Y-5.1181
X6.9348Y-0.9843
X6.9348Y-2.9921
X6.9348Y-3.1102
X6.9348Y-5.1181
X6.9516Y-0.9843
X6.9516Y-2.9921
X6.9516Y-3.1102
X6.9516Y-5.1181
X6.9685Y-0.9843
X6.9685Y-2.9921
X6.9685Y-3.1102
X6.9685Y-5.1181
X7.185Y-0.7874
X7.185Y-0.8038
X7.185Y-0.8202
X7.185Y-0.8366
X7.185Y-0.853
X7.185Y-0.8694
X7.185Y-0.8858
X7.185Y-1.5945
X7.185Y-1.6114
X7.185Y-1.6282
X7.185Y-1.6451
X7.185Y-1.662
X7.185Y-1.6789
X7.185Y-1.6957
X7.185Y-1.7126
X7.185Y-2.2638
X7.185Y-2.2807
X7.185Y-2.2975
X7.185Y-2.3144
X7.185Y-2.3313
X7.185Y-2.3481
X7.185Y-2.365
X7.185Y-2.3819
X7.185Y-3.0118
X7.185Y-3.0276
X7.185Y-3.0433
X7.185Y-3.0591
X7.185Y-3.0748
X7.185Y-3.0906
X7.185Y-3.7205
X7.185Y-3.7373
X7.185Y-3.7542
X7.185Y-3.7711
X7.185Y-3.788
X7.185Y-3.8048
X7.185Y-3.8217
X7.185Y-3.8386
X7.185Y-4.3898
X7.185Y-4.4066
X7.185Y-4.4235
X7.185Y-4.4404
X7.185Y-4.4573
X7.185Y-4.4741
X7.185Y-4.491
X7.185Y-4.5079
X7.185Y-5.2165
X7.185Y-5.2329
X7.185Y-5.2493
X7.185Y-5.2657
X7.185Y-5.2822
X7.185Y-5.2986
X7.185Y-5.315
X7.2638Y-0.9843
X7.2638Y-5.1181
X7.2802Y-0.9843
X7.2802Y-5.1181
X7.2966Y-0.9843
X7.2966Y-5.1181
X7.313Y-0.9843
X7.313Y-5.1181
X7.3294Y-0.9843
X7.3294Y-5.1181
X7.3458Y-0.9843
X7.3458Y-5.1181
X7.3622Y-0.9843
X7.3622Y-5.1181
T2
X4.8059Y-1.2343
X4.8059Y-3.3602
X5.0335Y-1.2343
X5.0335Y-3.3602
X5.7311Y-1.2343
X5.7311Y-3.3602
X5.9587Y-1.2343
X5.9587Y-3.3602
X6.6563Y-1.2343
X6.6563Y-3.3602
X6.8839Y-1.2343
X6.8839Y-3.3602
T0
M30
