M48
; DRILL file {KiCad 7.0.9} date Fri May 10 15:48:29 2024
; FORMAT={-:-/ absolute / inch / decimal}
; #@! TF.CreationDate,2024-05-10T15:48:29-04:00
; #@! TF.GenerationSoftware,Kicad,Pcbnew,7.0.9
; #@! TF.FileFunction,Plated,1,2,PTH
FMAT,2
INCH
; #@! TA.AperFunction,Plated,PTH,ViaDrill
T1C0.0079
; #@! TA.AperFunction,Plated,PTH,ComponentDrill
T2C0.0138
; #@! TA.AperFunction,Plated,PTH,ViaDrill
T3C0.0157
; #@! TA.AperFunction,Plated,PTH,ComponentDrill
T4C0.0236
; #@! TA.AperFunction,Plated,PTH,ComponentDrill
T5C0.0394
%
G90
G05
T1
X4.6332Y-2.2537
X4.6332Y-4.3796
X4.6343Y-1.4528
X4.6343Y-3.5787
X4.6417Y-2.1287
X4.6417Y-4.2547
X4.6548Y-2.7075
X4.6548Y-4.8335
X4.6705Y-1.8429
X4.6705Y-3.9689
X4.6992Y-1.9635
X4.6992Y-4.0895
X4.7278Y-1.9657
X4.7278Y-4.0917
X4.7396Y-1.5819
X4.7396Y-3.7079
X4.7541Y-1.9656
X4.7541Y-4.0916
X4.7646Y-1.6594
X4.7646Y-3.7854
X4.7702Y-1.6157
X4.7702Y-3.7417
X4.7736Y-1.772
X4.7736Y-3.898
X4.78Y-1.9131
X4.78Y-4.0391
X4.793Y-2.3115
X4.793Y-4.4375
X4.7941Y-1.4012
X4.7941Y-3.5272
X4.8012Y-1.621
X4.8012Y-3.747
X4.8254Y-1.6974
X4.8254Y-3.8234
X4.8703Y-1.3548
X4.8703Y-3.4808
X4.8799Y-1.5114
X4.8799Y-3.6374
X4.882Y-1.4721
X4.882Y-3.5981
X4.9173Y-1.6661
X4.9173Y-3.7921
X4.923Y-2.2953
X4.923Y-4.4213
X4.926Y-1.902
X4.926Y-4.028
X4.9492Y-1.8465
X4.9492Y-3.9724
X4.9512Y-2.3811
X4.9512Y-4.5071
X4.9791Y-2.8831
X4.9791Y-5.0091
X4.9874Y-1.4681
X4.9874Y-3.5941
X4.9878Y-1.9894
X4.9878Y-4.1154
X5.0157Y-2.1882
X5.0157Y-4.3142
X5.022Y-1.8319
X5.022Y-3.9579
X5.0299Y-1.7236
X5.0299Y-3.8496
X5.0319Y-1.6217
X5.0319Y-3.7476
X5.0457Y-1.8315
X5.0457Y-3.9575
X5.052Y-2.4386
X5.052Y-4.5646
X5.0577Y-1.2044
X5.0577Y-3.3304
X5.0614Y-2.3532
X5.0614Y-4.4792
X5.0803Y-1.6839
X5.0803Y-3.8098
X5.1208Y-2.1057
X5.1208Y-4.2317
X5.1217Y-1.6965
X5.1217Y-3.8224
X5.1307Y-2.2091
X5.1307Y-4.335
X5.131Y-2.127
X5.131Y-4.253
X5.1477Y-2.1437
X5.1477Y-4.2696
X5.1677Y-2.2957
X5.1677Y-4.4217
X5.174Y-1.7142
X5.174Y-3.8402
X5.178Y-1.9787
X5.178Y-4.1047
X5.5584Y-2.2537
X5.5584Y-4.3796
X5.5594Y-1.4528
X5.5594Y-3.5787
X5.5669Y-2.1287
X5.5669Y-4.2547
X5.58Y-2.7075
X5.58Y-4.8335
X5.5957Y-1.8429
X5.5957Y-3.9689
X5.6244Y-1.9635
X5.6244Y-4.0895
X5.653Y-1.9657
X5.653Y-4.0917
X5.6648Y-1.5819
X5.6648Y-3.7079
X5.6793Y-1.9656
X5.6793Y-4.0916
X5.6898Y-1.6594
X5.6898Y-3.7854
X5.6954Y-1.6157
X5.6954Y-3.7417
X5.6988Y-1.772
X5.6988Y-3.898
X5.7052Y-1.9131
X5.7052Y-4.0391
X5.7181Y-2.3115
X5.7181Y-4.4375
X5.7193Y-1.4012
X5.7193Y-3.5272
X5.7264Y-1.621
X5.7264Y-3.747
X5.7506Y-1.6974
X5.7506Y-3.8234
X5.7955Y-1.3548
X5.7955Y-3.4808
X5.8051Y-1.5114
X5.8051Y-3.6374
X5.8072Y-1.4721
X5.8072Y-3.5981
X5.8425Y-1.6661
X5.8425Y-3.7921
X5.8481Y-2.2953
X5.8481Y-4.4213
X5.8512Y-1.902
X5.8512Y-4.028
X5.8744Y-1.8465
X5.8744Y-3.9724
X5.8764Y-2.3811
X5.8764Y-4.5071
X5.9043Y-2.8831
X5.9043Y-5.0091
X5.9126Y-1.4681
X5.9126Y-3.5941
X5.913Y-1.9894
X5.913Y-4.1154
X5.9409Y-2.1882
X5.9409Y-4.3142
X5.9472Y-1.8319
X5.9472Y-3.9579
X5.9551Y-1.7236
X5.9551Y-3.8496
X5.9571Y-1.6217
X5.9571Y-3.7476
X5.9709Y-1.8315
X5.9709Y-3.9575
X5.9772Y-2.4386
X5.9772Y-4.5646
X5.9829Y-1.2044
X5.9829Y-3.3304
X5.9866Y-2.3532
X5.9866Y-4.4792
X6.0055Y-1.6839
X6.0055Y-3.8098
X6.046Y-2.1057
X6.046Y-4.2317
X6.0469Y-1.6965
X6.0469Y-3.8224
X6.0559Y-2.2091
X6.0559Y-4.335
X6.0562Y-2.127
X6.0562Y-4.253
X6.0729Y-2.1437
X6.0729Y-4.2696
X6.0929Y-2.2957
X6.0929Y-4.4217
X6.0992Y-1.7142
X6.0992Y-3.8402
X6.1031Y-1.9787
X6.1031Y-4.1047
X6.4836Y-2.2537
X6.4836Y-4.3796
X6.4846Y-1.4528
X6.4846Y-3.5787
X6.4921Y-2.1287
X6.4921Y-4.2547
X6.5052Y-2.7075
X6.5052Y-4.8335
X6.5209Y-1.8429
X6.5209Y-3.9689
X6.5496Y-1.9635
X6.5496Y-4.0895
X6.5782Y-1.9657
X6.5782Y-4.0917
X6.59Y-1.5819
X6.59Y-3.7079
X6.6045Y-1.9656
X6.6045Y-4.0916
X6.615Y-1.6594
X6.615Y-3.7854
X6.6206Y-1.6157
X6.6206Y-3.7417
X6.624Y-1.772
X6.624Y-3.898
X6.6304Y-1.9131
X6.6304Y-4.0391
X6.6433Y-2.3115
X6.6433Y-4.4375
X6.6445Y-1.4012
X6.6445Y-3.5272
X6.6516Y-1.621
X6.6516Y-3.747
X6.6758Y-1.6974
X6.6758Y-3.8234
X6.7207Y-1.3548
X6.7207Y-3.4808
X6.7303Y-1.5114
X6.7303Y-3.6374
X6.7324Y-1.4721
X6.7324Y-3.5981
X6.7677Y-1.6661
X6.7677Y-3.7921
X6.7733Y-2.2953
X6.7733Y-4.4213
X6.7764Y-1.902
X6.7764Y-4.028
X6.7996Y-1.8465
X6.7996Y-3.9724
X6.8016Y-2.3811
X6.8016Y-4.5071
X6.8295Y-2.8831
X6.8295Y-5.0091
X6.8378Y-1.4681
X6.8378Y-3.5941
X6.8382Y-1.9894
X6.8382Y-4.1154
X6.8661Y-2.1882
X6.8661Y-4.3142
X6.8724Y-1.8319
X6.8724Y-3.9579
X6.8803Y-1.7236
X6.8803Y-3.8496
X6.8823Y-1.6217
X6.8823Y-3.7476
X6.8961Y-1.8315
X6.8961Y-3.9575
X6.9024Y-2.4386
X6.9024Y-4.5646
X6.9081Y-1.2044
X6.9081Y-3.3304
X6.9118Y-2.3532
X6.9118Y-4.4792
X6.9307Y-1.6839
X6.9307Y-3.8098
X6.9712Y-2.1057
X6.9712Y-4.2317
X6.972Y-1.6965
X6.972Y-3.8224
X6.9811Y-2.2091
X6.9811Y-4.335
X6.9814Y-2.127
X6.9814Y-4.253
X6.9981Y-2.1437
X6.9981Y-4.2696
X7.0181Y-2.2957
X7.0181Y-4.4217
X7.0244Y-1.7142
X7.0244Y-3.8402
X7.0283Y-1.9787
X7.0283Y-4.1047
T2
X4.8681Y-2.0368
X4.8681Y-2.087
X4.8681Y-2.1372
X4.8681Y-4.1628
X4.8681Y-4.213
X4.8681Y-4.2632
X4.9183Y-2.0368
X4.9183Y-2.087
X4.9183Y-2.1372
X4.9183Y-4.1628
X4.9183Y-4.213
X4.9183Y-4.2632
X4.9685Y-2.0368
X4.9685Y-2.087
X4.9685Y-2.1372
X4.9685Y-4.1628
X4.9685Y-4.213
X4.9685Y-4.2632
X5.7933Y-2.0368
X5.7933Y-2.087
X5.7933Y-2.1372
X5.7933Y-4.1628
X5.7933Y-4.213
X5.7933Y-4.2632
X5.8435Y-2.0368
X5.8435Y-2.087
X5.8435Y-2.1372
X5.8435Y-4.1628
X5.8435Y-4.213
X5.8435Y-4.2632
X5.8937Y-2.0368
X5.8937Y-2.087
X5.8937Y-2.1372
X5.8937Y-4.1628
X5.8937Y-4.213
X5.8937Y-4.2632
X6.7185Y-2.0368
X6.7185Y-2.087
X6.7185Y-2.1372
X6.7185Y-4.1628
X6.7185Y-4.213
X6.7185Y-4.2632
X6.7687Y-2.0368
X6.7687Y-2.087
X6.7687Y-2.1372
X6.7687Y-4.1628
X6.7687Y-4.213
X6.7687Y-4.2632
X6.8189Y-2.0368
X6.8189Y-2.087
X6.8189Y-2.1372
X6.8189Y-4.1628
X6.8189Y-4.213
X6.8189Y-4.2632
T3
X4.8249Y-1.3336
X4.8249Y-3.4596
X4.8917Y-1.2424
X4.8917Y-3.3684
X4.9491Y-1.2367
X4.9491Y-3.3627
X5.0083Y-1.1937
X5.0083Y-3.3197
X5.0108Y-1.3368
X5.0108Y-3.4628
X5.7501Y-1.3336
X5.7501Y-3.4596
X5.8169Y-1.2424
X5.8169Y-3.3684
X5.8743Y-1.2367
X5.8743Y-3.3627
X5.9335Y-1.1937
X5.9335Y-3.3197
X5.936Y-1.3368
X5.936Y-3.4628
X6.6753Y-1.3336
X6.6753Y-3.4596
X6.7421Y-1.2424
X6.7421Y-3.3684
X6.7995Y-1.2367
X6.7995Y-3.3627
X6.8587Y-1.1937
X6.8587Y-3.3197
X6.8611Y-1.3368
X6.8611Y-3.4628
T5
X4.5063Y-1.6429
X4.5063Y-3.7689
X4.5067Y-1.0429
X4.5067Y-1.1429
X4.5067Y-1.2429
X4.5067Y-1.3429
X4.5067Y-1.4429
X4.5067Y-1.5429
X4.5067Y-1.7429
X4.5067Y-1.8429
X4.5067Y-1.9429
X4.5067Y-2.0429
X4.5067Y-2.2429
X4.5067Y-2.3429
X4.5067Y-2.4429
X4.5067Y-2.5429
X4.5067Y-2.6433
X4.5067Y-2.7429
X4.5067Y-2.8433
X4.5067Y-2.9429
X4.5067Y-3.1689
X4.5067Y-3.2689
X4.5067Y-3.3689
X4.5067Y-3.4689
X4.5067Y-3.5689
X4.5067Y-3.6689
X4.5067Y-3.8689
X4.5067Y-3.9689
X4.5067Y-4.0689
X4.5067Y-4.1689
X4.5067Y-4.3689
X4.5067Y-4.4689
X4.5067Y-4.5689
X4.5067Y-4.6689
X4.5067Y-4.7693
X4.5067Y-4.8689
X4.5067Y-4.9693
X4.5067Y-5.0689
X4.5071Y-2.1429
X4.5071Y-4.2689
X4.5736Y-1.0429
X4.5736Y-1.1429
X4.5736Y-1.2429
X4.5736Y-1.3429
X4.5736Y-1.4429
X4.5736Y-1.5429
X4.5736Y-1.6429
X4.5736Y-1.7429
X4.5736Y-1.8429
X4.5736Y-1.9429
X4.5736Y-2.0429
X4.5736Y-2.1429
X4.5736Y-2.2429
X4.5736Y-2.3429
X4.5736Y-2.4429
X4.5736Y-2.5429
X4.5736Y-2.6429
X4.5736Y-2.7429
X4.5736Y-2.8429
X4.5736Y-2.9429
X4.5736Y-3.1689
X4.5736Y-3.2689
X4.5736Y-3.3689
X4.5736Y-3.4689
X4.5736Y-3.5689
X4.5736Y-3.6689
X4.5736Y-3.7689
X4.5736Y-3.8689
X4.5736Y-3.9689
X4.5736Y-4.0689
X4.5736Y-4.1689
X4.5736Y-4.2689
X4.5736Y-4.3689
X4.5736Y-4.4689
X4.5736Y-4.5689
X4.5736Y-4.6689
X4.5736Y-4.7689
X4.5736Y-4.8689
X4.5736Y-4.9689
X4.5736Y-5.0689
X4.8238Y-2.9319
X4.8238Y-5.0579
X4.9238Y-2.9319
X4.9238Y-5.0579
X5.0238Y-2.9319
X5.0238Y-5.0579
X5.2693Y-1.0417
X5.2693Y-1.1417
X5.2693Y-1.2417
X5.2693Y-1.3417
X5.2693Y-1.4417
X5.2693Y-1.5417
X5.2693Y-1.6417
X5.2693Y-1.7417
X5.2693Y-1.8417
X5.2693Y-1.9417
X5.2693Y-2.0417
X5.2693Y-2.1417
X5.2693Y-2.2417
X5.2693Y-2.3417
X5.2693Y-2.4417
X5.2693Y-2.5417
X5.2693Y-2.6417
X5.2693Y-2.7417
X5.2693Y-2.8417
X5.2693Y-2.9417
X5.2693Y-3.1677
X5.2693Y-3.2677
X5.2693Y-3.3677
X5.2693Y-3.4677
X5.2693Y-3.5677
X5.2693Y-3.6677
X5.2693Y-3.7677
X5.2693Y-3.8677
X5.2693Y-3.9677
X5.2693Y-4.0677
X5.2693Y-4.1677
X5.2693Y-4.2677
X5.2693Y-4.3677
X5.2693Y-4.4677
X5.2693Y-4.5677
X5.2693Y-4.6677
X5.2693Y-4.7677
X5.2693Y-4.8677
X5.2693Y-4.9677
X5.2693Y-5.0677
X5.3358Y-2.1417
X5.3358Y-4.2677
X5.3362Y-1.0417
X5.3362Y-1.1417
X5.3362Y-1.2417
X5.3362Y-1.3417
X5.3362Y-1.4417
X5.3362Y-1.5417
X5.3362Y-1.7417
X5.3362Y-1.8417
X5.3362Y-1.9417
X5.3362Y-2.0417
X5.3362Y-2.2417
X5.3362Y-2.3417
X5.3362Y-2.4417
X5.3362Y-2.5417
X5.3362Y-2.6421
X5.3362Y-2.7417
X5.3362Y-2.8421
X5.3362Y-2.9417
X5.3362Y-3.1677
X5.3362Y-3.2677
X5.3362Y-3.3677
X5.3362Y-3.4677
X5.3362Y-3.5677
X5.3362Y-3.6677
X5.3362Y-3.8677
X5.3362Y-3.9677
X5.3362Y-4.0677
X5.3362Y-4.1677
X5.3362Y-4.3677
X5.3362Y-4.4677
X5.3362Y-4.5677
X5.3362Y-4.6677
X5.3362Y-4.7681
X5.3362Y-4.8677
X5.3362Y-4.9681
X5.3362Y-5.0677
X5.3366Y-1.6417
X5.3366Y-3.7677
X5.4315Y-1.6429
X5.4315Y-3.7689
X5.4319Y-1.0429
X5.4319Y-1.1429
X5.4319Y-1.2429
X5.4319Y-1.3429
X5.4319Y-1.4429
X5.4319Y-1.5429
X5.4319Y-1.7429
X5.4319Y-1.8429
X5.4319Y-1.9429
X5.4319Y-2.0429
X5.4319Y-2.2429
X5.4319Y-2.3429
X5.4319Y-2.4429
X5.4319Y-2.5429
X5.4319Y-2.6433
X5.4319Y-2.7429
X5.4319Y-2.8433
X5.4319Y-2.9429
X5.4319Y-3.1689
X5.4319Y-3.2689
X5.4319Y-3.3689
X5.4319Y-3.4689
X5.4319Y-3.5689
X5.4319Y-3.6689
X5.4319Y-3.8689
X5.4319Y-3.9689
X5.4319Y-4.0689
X5.4319Y-4.1689
X5.4319Y-4.3689
X5.4319Y-4.4689
X5.4319Y-4.5689
X5.4319Y-4.6689
X5.4319Y-4.7693
X5.4319Y-4.8689
X5.4319Y-4.9693
X5.4319Y-5.0689
X5.4323Y-2.1429
X5.4323Y-4.2689
X5.4988Y-1.0429
X5.4988Y-1.1429
X5.4988Y-1.2429
X5.4988Y-1.3429
X5.4988Y-1.4429
X5.4988Y-1.5429
X5.4988Y-1.6429
X5.4988Y-1.7429
X5.4988Y-1.8429
X5.4988Y-1.9429
X5.4988Y-2.0429
X5.4988Y-2.1429
X5.4988Y-2.2429
X5.4988Y-2.3429
X5.4988Y-2.4429
X5.4988Y-2.5429
X5.4988Y-2.6429
X5.4988Y-2.7429
X5.4988Y-2.8429
X5.4988Y-2.9429
X5.4988Y-3.1689
X5.4988Y-3.2689
X5.4988Y-3.3689
X5.4988Y-3.4689
X5.4988Y-3.5689
X5.4988Y-3.6689
X5.4988Y-3.7689
X5.4988Y-3.8689
X5.4988Y-3.9689
X5.4988Y-4.0689
X5.4988Y-4.1689
X5.4988Y-4.2689
X5.4988Y-4.3689
X5.4988Y-4.4689
X5.4988Y-4.5689
X5.4988Y-4.6689
X5.4988Y-4.7689
X5.4988Y-4.8689
X5.4988Y-4.9689
X5.4988Y-5.0689
X5.749Y-2.9319
X5.749Y-5.0579
X5.849Y-2.9319
X5.849Y-5.0579
X5.949Y-2.9319
X5.949Y-5.0579
X6.1945Y-1.0417
X6.1945Y-1.1417
X6.1945Y-1.2417
X6.1945Y-1.3417
X6.1945Y-1.4417
X6.1945Y-1.5417
X6.1945Y-1.6417
X6.1945Y-1.7417
X6.1945Y-1.8417
X6.1945Y-1.9417
X6.1945Y-2.0417
X6.1945Y-2.1417
X6.1945Y-2.2417
X6.1945Y-2.3417
X6.1945Y-2.4417
X6.1945Y-2.5417
X6.1945Y-2.6417
X6.1945Y-2.7417
X6.1945Y-2.8417
X6.1945Y-2.9417
X6.1945Y-3.1677
X6.1945Y-3.2677
X6.1945Y-3.3677
X6.1945Y-3.4677
X6.1945Y-3.5677
X6.1945Y-3.6677
X6.1945Y-3.7677
X6.1945Y-3.8677
X6.1945Y-3.9677
X6.1945Y-4.0677
X6.1945Y-4.1677
X6.1945Y-4.2677
X6.1945Y-4.3677
X6.1945Y-4.4677
X6.1945Y-4.5677
X6.1945Y-4.6677
X6.1945Y-4.7677
X6.1945Y-4.8677
X6.1945Y-4.9677
X6.1945Y-5.0677
X6.261Y-2.1417
X6.261Y-4.2677
X6.2614Y-1.0417
X6.2614Y-1.1417
X6.2614Y-1.2417
X6.2614Y-1.3417
X6.2614Y-1.4417
X6.2614Y-1.5417
X6.2614Y-1.7417
X6.2614Y-1.8417
X6.2614Y-1.9417
X6.2614Y-2.0417
X6.2614Y-2.2417
X6.2614Y-2.3417
X6.2614Y-2.4417
X6.2614Y-2.5417
X6.2614Y-2.6421
X6.2614Y-2.7417
X6.2614Y-2.8421
X6.2614Y-2.9417
X6.2614Y-3.1677
X6.2614Y-3.2677
X6.2614Y-3.3677
X6.2614Y-3.4677
X6.2614Y-3.5677
X6.2614Y-3.6677
X6.2614Y-3.8677
X6.2614Y-3.9677
X6.2614Y-4.0677
X6.2614Y-4.1677
X6.2614Y-4.3677
X6.2614Y-4.4677
X6.2614Y-4.5677
X6.2614Y-4.6677
X6.2614Y-4.7681
X6.2614Y-4.8677
X6.2614Y-4.9681
X6.2614Y-5.0677
X6.2618Y-1.6417
X6.2618Y-3.7677
X6.3567Y-1.6429
X6.3567Y-3.7689
X6.3571Y-1.0429
X6.3571Y-1.1429
X6.3571Y-1.2429
X6.3571Y-1.3429
X6.3571Y-1.4429
X6.3571Y-1.5429
X6.3571Y-1.7429
X6.3571Y-1.8429
X6.3571Y-1.9429
X6.3571Y-2.0429
X6.3571Y-2.2429
X6.3571Y-2.3429
X6.3571Y-2.4429
X6.3571Y-2.5429
X6.3571Y-2.6433
X6.3571Y-2.7429
X6.3571Y-2.8433
X6.3571Y-2.9429
X6.3571Y-3.1689
X6.3571Y-3.2689
X6.3571Y-3.3689
X6.3571Y-3.4689
X6.3571Y-3.5689
X6.3571Y-3.6689
X6.3571Y-3.8689
X6.3571Y-3.9689
X6.3571Y-4.0689
X6.3571Y-4.1689
X6.3571Y-4.3689
X6.3571Y-4.4689
X6.3571Y-4.5689
X6.3571Y-4.6689
X6.3571Y-4.7693
X6.3571Y-4.8689
X6.3571Y-4.9693
X6.3571Y-5.0689
X6.3575Y-2.1429
X6.3575Y-4.2689
X6.424Y-1.0429
X6.424Y-1.1429
X6.424Y-1.2429
X6.424Y-1.3429
X6.424Y-1.4429
X6.424Y-1.5429
X6.424Y-1.6429
X6.424Y-1.7429
X6.424Y-1.8429
X6.424Y-1.9429
X6.424Y-2.0429
X6.424Y-2.1429
X6.424Y-2.2429
X6.424Y-2.3429
X6.424Y-2.4429
X6.424Y-2.5429
X6.424Y-2.6429
X6.424Y-2.7429
X6.424Y-2.8429
X6.424Y-2.9429
X6.424Y-3.1689
X6.424Y-3.2689
X6.424Y-3.3689
X6.424Y-3.4689
X6.424Y-3.5689
X6.424Y-3.6689
X6.424Y-3.7689
X6.424Y-3.8689
X6.424Y-3.9689
X6.424Y-4.0689
X6.424Y-4.1689
X6.424Y-4.2689
X6.424Y-4.3689
X6.424Y-4.4689
X6.424Y-4.5689
X6.424Y-4.6689
X6.424Y-4.7689
X6.424Y-4.8689
X6.424Y-4.9689
X6.424Y-5.0689
X6.6742Y-2.9319
X6.6742Y-5.0579
X6.7742Y-2.9319
X6.7742Y-5.0579
X6.8742Y-2.9319
X6.8742Y-5.0579
X7.1197Y-1.0417
X7.1197Y-1.1417
X7.1197Y-1.2417
X7.1197Y-1.3417
X7.1197Y-1.4417
X7.1197Y-1.5417
X7.1197Y-1.6417
X7.1197Y-1.7417
X7.1197Y-1.8417
X7.1197Y-1.9417
X7.1197Y-2.0417
X7.1197Y-2.1417
X7.1197Y-2.2417
X7.1197Y-2.3417
X7.1197Y-2.4417
X7.1197Y-2.5417
X7.1197Y-2.6417
X7.1197Y-2.7417
X7.1197Y-2.8417
X7.1197Y-2.9417
X7.1197Y-3.1677
X7.1197Y-3.2677
X7.1197Y-3.3677
X7.1197Y-3.4677
X7.1197Y-3.5677
X7.1197Y-3.6677
X7.1197Y-3.7677
X7.1197Y-3.8677
X7.1197Y-3.9677
X7.1197Y-4.0677
X7.1197Y-4.1677
X7.1197Y-4.2677
X7.1197Y-4.3677
X7.1197Y-4.4677
X7.1197Y-4.5677
X7.1197Y-4.6677
X7.1197Y-4.7677
X7.1197Y-4.8677
X7.1197Y-4.9677
X7.1197Y-5.0677
X7.1862Y-2.1417
X7.1862Y-4.2677
X7.1866Y-1.0417
X7.1866Y-1.1417
X7.1866Y-1.2417
X7.1866Y-1.3417
X7.1866Y-1.4417
X7.1866Y-1.5417
X7.1866Y-1.7417
X7.1866Y-1.8417
X7.1866Y-1.9417
X7.1866Y-2.0417
X7.1866Y-2.2417
X7.1866Y-2.3417
X7.1866Y-2.4417
X7.1866Y-2.5417
X7.1866Y-2.6421
X7.1866Y-2.7417
X7.1866Y-2.8421
X7.1866Y-2.9417
X7.1866Y-3.1677
X7.1866Y-3.2677
X7.1866Y-3.3677
X7.1866Y-3.4677
X7.1866Y-3.5677
X7.1866Y-3.6677
X7.1866Y-3.8677
X7.1866Y-3.9677
X7.1866Y-4.0677
X7.1866Y-4.1677
X7.1866Y-4.3677
X7.1866Y-4.4677
X7.1866Y-4.5677
X7.1866Y-4.6677
X7.1866Y-4.7681
X7.1866Y-4.8677
X7.1866Y-4.9681
X7.1866Y-5.0677
X7.187Y-1.6417
X7.187Y-3.7677
T4
G00X4.7496Y-1.1024
M15
G01X4.7496Y-1.0787
M16
G05
G00X4.7496Y-1.2768
M15
G01X4.7496Y-1.2335
M16
G05
G00X4.7496Y-3.2283
M15
G01X4.7496Y-3.2047
M16
G05
G00X4.7496Y-3.4028
M15
G01X4.7496Y-3.3594
M16
G05
G00X5.0898Y-1.1024
M15
G01X5.0898Y-1.0787
M16
G05
G00X5.0898Y-1.2768
M15
G01X5.0898Y-1.2335
M16
G05
G00X5.0898Y-3.2283
M15
G01X5.0898Y-3.2047
M16
G05
G00X5.0898Y-3.4028
M15
G01X5.0898Y-3.3594
M16
G05
G00X5.6748Y-1.1024
M15
G01X5.6748Y-1.0787
M16
G05
G00X5.6748Y-1.2768
M15
G01X5.6748Y-1.2335
M16
G05
G00X5.6748Y-3.2283
M15
G01X5.6748Y-3.2047
M16
G05
G00X5.6748Y-3.4028
M15
G01X5.6748Y-3.3594
M16
G05
G00X6.015Y-1.1024
M15
G01X6.015Y-1.0787
M16
G05
G00X6.015Y-1.2768
M15
G01X6.015Y-1.2335
M16
G05
G00X6.015Y-3.2283
M15
G01X6.015Y-3.2047
M16
G05
G00X6.015Y-3.4028
M15
G01X6.015Y-3.3594
M16
G05
G00X6.6Y-1.1024
M15
G01X6.6Y-1.0787
M16
G05
G00X6.6Y-1.2768
M15
G01X6.6Y-1.2335
M16
G05
G00X6.6Y-3.2283
M15
G01X6.6Y-3.2047
M16
G05
G00X6.6Y-3.4028
M15
G01X6.6Y-3.3594
M16
G05
G00X6.9402Y-1.1024
M15
G01X6.9402Y-1.0787
M16
G05
G00X6.9402Y-1.2768
M15
G01X6.9402Y-1.2335
M16
G05
G00X6.9402Y-3.2283
M15
G01X6.9402Y-3.2047
M16
G05
G00X6.9402Y-3.4028
M15
G01X6.9402Y-3.3594
M16
G05
T0
M30
