%TF.GenerationSoftware,KiCad,Pcbnew,7.0.9*%
%TF.CreationDate,2024-05-10T15:48:25-04:00*%
%TF.ProjectId,panel,70616e65-6c2e-46b6-9963-61645f706362,rev?*%
%TF.SameCoordinates,Original*%
%TF.FileFunction,Paste,Top*%
%TF.FilePolarity,Positive*%
%FSLAX46Y46*%
G04 Gerber Fmt 4.6, Leading zero omitted, Abs format (unit mm)*
G04 Created by KiCad (PCBNEW 7.0.9) date 2024-05-10 15:48:25*
%MOMM*%
%LPD*%
G01*
G04 APERTURE LIST*
G04 Aperture macros list*
%AMRoundRect*
0 Rectangle with rounded corners*
0 $1 Rounding radius*
0 $2 $3 $4 $5 $6 $7 $8 $9 X,Y pos of 4 corners*
0 Add a 4 corners polygon primitive as box body*
4,1,4,$2,$3,$4,$5,$6,$7,$8,$9,$2,$3,0*
0 Add four circle primitives for the rounded corners*
1,1,$1+$1,$2,$3*
1,1,$1+$1,$4,$5*
1,1,$1+$1,$6,$7*
1,1,$1+$1,$8,$9*
0 Add four rect primitives between the rounded corners*
20,1,$1+$1,$2,$3,$4,$5,0*
20,1,$1+$1,$4,$5,$6,$7,0*
20,1,$1+$1,$6,$7,$8,$9,0*
20,1,$1+$1,$8,$9,$2,$3,0*%
G04 Aperture macros list end*
%ADD10RoundRect,0.140000X-0.140000X-0.170000X0.140000X-0.170000X0.140000X0.170000X-0.140000X0.170000X0*%
%ADD11RoundRect,0.140000X0.170000X-0.140000X0.170000X0.140000X-0.170000X0.140000X-0.170000X-0.140000X0*%
%ADD12RoundRect,0.140000X-0.170000X0.140000X-0.170000X-0.140000X0.170000X-0.140000X0.170000X0.140000X0*%
%ADD13RoundRect,0.135000X0.135000X0.185000X-0.135000X0.185000X-0.135000X-0.185000X0.135000X-0.185000X0*%
%ADD14R,1.400000X1.200000*%
%ADD15RoundRect,0.135000X-0.135000X-0.185000X0.135000X-0.185000X0.135000X0.185000X-0.135000X0.185000X0*%
%ADD16RoundRect,0.140000X0.140000X0.170000X-0.140000X0.170000X-0.140000X-0.170000X0.140000X-0.170000X0*%
%ADD17RoundRect,0.147500X0.147500X0.172500X-0.147500X0.172500X-0.147500X-0.172500X0.147500X-0.172500X0*%
%ADD18RoundRect,0.162500X0.162500X-0.362500X0.162500X0.362500X-0.162500X0.362500X-0.162500X-0.362500X0*%
%ADD19RoundRect,0.243750X-0.456250X0.243750X-0.456250X-0.243750X0.456250X-0.243750X0.456250X0.243750X0*%
%ADD20RoundRect,0.135000X-0.185000X0.135000X-0.185000X-0.135000X0.185000X-0.135000X0.185000X0.135000X0*%
%ADD21RoundRect,0.140000X-0.140000X-0.180000X0.140000X-0.180000X0.140000X0.180000X-0.140000X0.180000X0*%
%ADD22RoundRect,0.087500X-0.175000X-0.087500X0.175000X-0.087500X0.175000X0.087500X-0.175000X0.087500X0*%
%ADD23RoundRect,0.250000X-0.292217X-0.292217X0.292217X-0.292217X0.292217X0.292217X-0.292217X0.292217X0*%
%ADD24RoundRect,0.050000X-0.387500X-0.050000X0.387500X-0.050000X0.387500X0.050000X-0.387500X0.050000X0*%
%ADD25RoundRect,0.050000X-0.050000X-0.387500X0.050000X-0.387500X0.050000X0.387500X-0.050000X0.387500X0*%
%ADD26R,0.600000X1.450000*%
%ADD27R,0.300000X1.450000*%
%ADD28RoundRect,0.225000X0.375000X-0.225000X0.375000X0.225000X-0.375000X0.225000X-0.375000X-0.225000X0*%
%ADD29RoundRect,0.150000X0.150000X-0.512500X0.150000X0.512500X-0.150000X0.512500X-0.150000X-0.512500X0*%
%ADD30RoundRect,0.135000X0.185000X-0.135000X0.185000X0.135000X-0.185000X0.135000X-0.185000X-0.135000X0*%
%ADD31RoundRect,0.162500X0.362500X0.162500X-0.362500X0.162500X-0.362500X-0.162500X0.362500X-0.162500X0*%
%ADD32RoundRect,0.147500X-0.172500X0.147500X-0.172500X-0.147500X0.172500X-0.147500X0.172500X0.147500X0*%
%ADD33RoundRect,0.150000X-0.150000X0.512500X-0.150000X-0.512500X0.150000X-0.512500X0.150000X0.512500X0*%
G04 APERTURE END LIST*
D10*
%TO.C,C4*%
X129540000Y-49840000D03*
X130500000Y-49840000D03*
%TD*%
D11*
%TO.C,C12*%
X176580000Y-102780000D03*
X176580000Y-101820000D03*
%TD*%
D12*
%TO.C,C2*%
X172210000Y-112980000D03*
X172210000Y-113940000D03*
%TD*%
D13*
%TO.C,R7*%
X125080000Y-114870000D03*
X124060000Y-114870000D03*
%TD*%
D14*
%TO.C,Y1*%
X170810000Y-116260000D03*
X168610000Y-116260000D03*
X168610000Y-117960000D03*
X170810000Y-117960000D03*
%TD*%
D11*
%TO.C,C1*%
X171390000Y-101000000D03*
X171390000Y-100040000D03*
%TD*%
%TO.C,C19*%
X170980000Y-99100000D03*
X170980000Y-98140000D03*
%TD*%
D15*
%TO.C,R6*%
X119000000Y-88650000D03*
X120020000Y-88650000D03*
%TD*%
D16*
%TO.C,C16*%
X169760000Y-98260000D03*
X168800000Y-98260000D03*
%TD*%
D17*
%TO.C,D2*%
X168965000Y-88650000D03*
X167995000Y-88650000D03*
%TD*%
D18*
%TO.C,SW1*%
X150822500Y-119542500D03*
X150822500Y-115452500D03*
X152922500Y-119542500D03*
X152922500Y-115452500D03*
%TD*%
D11*
%TO.C,C3*%
X174470000Y-102290000D03*
X174470000Y-101330000D03*
%TD*%
%TO.C,C3*%
X127470000Y-102290000D03*
X127470000Y-101330000D03*
%TD*%
%TO.C,C11*%
X128530000Y-48330000D03*
X128530000Y-47370000D03*
%TD*%
D19*
%TO.C,F1*%
X131140000Y-85832500D03*
X131140000Y-87707500D03*
%TD*%
D12*
%TO.C,C6*%
X124240000Y-112970000D03*
X124240000Y-113930000D03*
%TD*%
D20*
%TO.C,R3*%
X131380000Y-39960000D03*
X131380000Y-40980000D03*
%TD*%
D15*
%TO.C,R8*%
X146500000Y-39520000D03*
X147520000Y-39520000D03*
%TD*%
D11*
%TO.C,C12*%
X129580000Y-102780000D03*
X129580000Y-101820000D03*
%TD*%
D20*
%TO.C,R3*%
X178380000Y-93960000D03*
X178380000Y-94980000D03*
%TD*%
D11*
%TO.C,C1*%
X124390000Y-47000000D03*
X124390000Y-46040000D03*
%TD*%
D12*
%TO.C,C14*%
X172370000Y-61830000D03*
X172370000Y-62790000D03*
%TD*%
D21*
%TO.C,U2*%
X144780000Y-45800000D03*
X144780000Y-46600000D03*
X145480000Y-45800000D03*
X145480000Y-46600000D03*
D22*
X143842500Y-45450000D03*
X143842500Y-45950000D03*
X143842500Y-46450000D03*
X143842500Y-46950000D03*
X146417500Y-46950000D03*
X146417500Y-46450000D03*
X146417500Y-45950000D03*
X146417500Y-45450000D03*
%TD*%
D16*
%TO.C,C16*%
X146260000Y-98260000D03*
X145300000Y-98260000D03*
%TD*%
%TO.C,C9*%
X167370000Y-48760000D03*
X166410000Y-48760000D03*
%TD*%
D15*
%TO.C,R8*%
X170000000Y-93520000D03*
X171020000Y-93520000D03*
%TD*%
D10*
%TO.C,C15*%
X121430000Y-114830000D03*
X122390000Y-114830000D03*
%TD*%
D23*
%TO.C,U1*%
X147787500Y-52372500D03*
X147787500Y-53647500D03*
X149062500Y-52372500D03*
X149062500Y-53647500D03*
D24*
X144987500Y-50410000D03*
X144987500Y-50810000D03*
X144987500Y-51210000D03*
X144987500Y-51610000D03*
X144987500Y-52010000D03*
X144987500Y-52410000D03*
X144987500Y-52810000D03*
X144987500Y-53210000D03*
X144987500Y-53610000D03*
X144987500Y-54010000D03*
X144987500Y-54410000D03*
X144987500Y-54810000D03*
X144987500Y-55210000D03*
X144987500Y-55610000D03*
D25*
X145825000Y-56447500D03*
X146225000Y-56447500D03*
X146625000Y-56447500D03*
X147025000Y-56447500D03*
X147425000Y-56447500D03*
X147825000Y-56447500D03*
X148225000Y-56447500D03*
X148625000Y-56447500D03*
X149025000Y-56447500D03*
X149425000Y-56447500D03*
X149825000Y-56447500D03*
X150225000Y-56447500D03*
X150625000Y-56447500D03*
X151025000Y-56447500D03*
D24*
X151862500Y-55610000D03*
X151862500Y-55210000D03*
X151862500Y-54810000D03*
X151862500Y-54410000D03*
X151862500Y-54010000D03*
X151862500Y-53610000D03*
X151862500Y-53210000D03*
X151862500Y-52810000D03*
X151862500Y-52410000D03*
X151862500Y-52010000D03*
X151862500Y-51610000D03*
X151862500Y-51210000D03*
X151862500Y-50810000D03*
X151862500Y-50410000D03*
D25*
X151025000Y-49572500D03*
X150625000Y-49572500D03*
X150225000Y-49572500D03*
X149825000Y-49572500D03*
X149425000Y-49572500D03*
X149025000Y-49572500D03*
X148625000Y-49572500D03*
X148225000Y-49572500D03*
X147825000Y-49572500D03*
X147425000Y-49572500D03*
X147025000Y-49572500D03*
X146625000Y-49572500D03*
X146225000Y-49572500D03*
X145825000Y-49572500D03*
%TD*%
D26*
%TO.C,J4*%
X175210000Y-86795000D03*
X174410000Y-86795000D03*
D27*
X173210000Y-86795000D03*
X172210000Y-86795000D03*
X171710000Y-86795000D03*
X170710000Y-86795000D03*
D26*
X169510000Y-86795000D03*
X168710000Y-86795000D03*
X168710000Y-86795000D03*
X169510000Y-86795000D03*
D27*
X170210000Y-86795000D03*
X171210000Y-86795000D03*
X172710000Y-86795000D03*
X173710000Y-86795000D03*
D26*
X174410000Y-86795000D03*
X175210000Y-86795000D03*
%TD*%
D11*
%TO.C,C10*%
X178470000Y-48450000D03*
X178470000Y-47490000D03*
%TD*%
D18*
%TO.C,SW1*%
X174322500Y-65542500D03*
X174322500Y-61452500D03*
X176422500Y-65542500D03*
X176422500Y-61452500D03*
%TD*%
D11*
%TO.C,C3*%
X150970000Y-48290000D03*
X150970000Y-47330000D03*
%TD*%
D28*
%TO.C,D3*%
X131150000Y-30227500D03*
X131150000Y-26927500D03*
%TD*%
D15*
%TO.C,R6*%
X142500000Y-88650000D03*
X143520000Y-88650000D03*
%TD*%
D13*
%TO.C,R7*%
X148580000Y-114870000D03*
X147560000Y-114870000D03*
%TD*%
%TO.C,R4*%
X154960000Y-96160000D03*
X153940000Y-96160000D03*
%TD*%
D23*
%TO.C,U1*%
X147787500Y-106372500D03*
X147787500Y-107647500D03*
X149062500Y-106372500D03*
X149062500Y-107647500D03*
D24*
X144987500Y-104410000D03*
X144987500Y-104810000D03*
X144987500Y-105210000D03*
X144987500Y-105610000D03*
X144987500Y-106010000D03*
X144987500Y-106410000D03*
X144987500Y-106810000D03*
X144987500Y-107210000D03*
X144987500Y-107610000D03*
X144987500Y-108010000D03*
X144987500Y-108410000D03*
X144987500Y-108810000D03*
X144987500Y-109210000D03*
X144987500Y-109610000D03*
D25*
X145825000Y-110447500D03*
X146225000Y-110447500D03*
X146625000Y-110447500D03*
X147025000Y-110447500D03*
X147425000Y-110447500D03*
X147825000Y-110447500D03*
X148225000Y-110447500D03*
X148625000Y-110447500D03*
X149025000Y-110447500D03*
X149425000Y-110447500D03*
X149825000Y-110447500D03*
X150225000Y-110447500D03*
X150625000Y-110447500D03*
X151025000Y-110447500D03*
D24*
X151862500Y-109610000D03*
X151862500Y-109210000D03*
X151862500Y-108810000D03*
X151862500Y-108410000D03*
X151862500Y-108010000D03*
X151862500Y-107610000D03*
X151862500Y-107210000D03*
X151862500Y-106810000D03*
X151862500Y-106410000D03*
X151862500Y-106010000D03*
X151862500Y-105610000D03*
X151862500Y-105210000D03*
X151862500Y-104810000D03*
X151862500Y-104410000D03*
D25*
X151025000Y-103572500D03*
X150625000Y-103572500D03*
X150225000Y-103572500D03*
X149825000Y-103572500D03*
X149425000Y-103572500D03*
X149025000Y-103572500D03*
X148625000Y-103572500D03*
X148225000Y-103572500D03*
X147825000Y-103572500D03*
X147425000Y-103572500D03*
X147025000Y-103572500D03*
X146625000Y-103572500D03*
X146225000Y-103572500D03*
X145825000Y-103572500D03*
%TD*%
D12*
%TO.C,C7*%
X178090000Y-110080000D03*
X178090000Y-111040000D03*
%TD*%
D21*
%TO.C,U2*%
X168280000Y-99800000D03*
X168280000Y-100600000D03*
X168980000Y-99800000D03*
X168980000Y-100600000D03*
D22*
X167342500Y-99450000D03*
X167342500Y-99950000D03*
X167342500Y-100450000D03*
X167342500Y-100950000D03*
X169917500Y-100950000D03*
X169917500Y-100450000D03*
X169917500Y-99950000D03*
X169917500Y-99450000D03*
%TD*%
D16*
%TO.C,C13*%
X142930000Y-54420000D03*
X141970000Y-54420000D03*
%TD*%
D11*
%TO.C,C11*%
X152030000Y-48330000D03*
X152030000Y-47370000D03*
%TD*%
%TO.C,C5*%
X172660000Y-100060000D03*
X172660000Y-99100000D03*
%TD*%
D20*
%TO.C,R14*%
X170970000Y-89110000D03*
X170970000Y-90130000D03*
%TD*%
D13*
%TO.C,R15*%
X155100000Y-34960000D03*
X154080000Y-34960000D03*
%TD*%
D11*
%TO.C,C1*%
X147890000Y-47000000D03*
X147890000Y-46040000D03*
%TD*%
D15*
%TO.C,FB1*%
X127250000Y-35310000D03*
X128270000Y-35310000D03*
%TD*%
%TO.C,R9*%
X166750000Y-44260000D03*
X167770000Y-44260000D03*
%TD*%
D11*
%TO.C,C1*%
X147890000Y-101000000D03*
X147890000Y-100040000D03*
%TD*%
D19*
%TO.C,F1*%
X154640000Y-85832500D03*
X154640000Y-87707500D03*
%TD*%
D16*
%TO.C,C16*%
X169760000Y-44260000D03*
X168800000Y-44260000D03*
%TD*%
D11*
%TO.C,C10*%
X131470000Y-102450000D03*
X131470000Y-101490000D03*
%TD*%
D10*
%TO.C,C4*%
X153040000Y-103840000D03*
X154000000Y-103840000D03*
%TD*%
D11*
%TO.C,C19*%
X170980000Y-45100000D03*
X170980000Y-44140000D03*
%TD*%
D29*
%TO.C,Q1*%
X166670000Y-93177500D03*
X168570000Y-93177500D03*
X167620000Y-90902500D03*
%TD*%
D20*
%TO.C,R11*%
X149760000Y-88520000D03*
X149760000Y-89540000D03*
%TD*%
D11*
%TO.C,C3*%
X174470000Y-48290000D03*
X174470000Y-47330000D03*
%TD*%
D30*
%TO.C,R2*%
X150370000Y-99320000D03*
X150370000Y-98300000D03*
%TD*%
D20*
%TO.C,R5*%
X176040000Y-97730000D03*
X176040000Y-98750000D03*
%TD*%
D23*
%TO.C,U1*%
X171287500Y-52372500D03*
X171287500Y-53647500D03*
X172562500Y-52372500D03*
X172562500Y-53647500D03*
D24*
X168487500Y-50410000D03*
X168487500Y-50810000D03*
X168487500Y-51210000D03*
X168487500Y-51610000D03*
X168487500Y-52010000D03*
X168487500Y-52410000D03*
X168487500Y-52810000D03*
X168487500Y-53210000D03*
X168487500Y-53610000D03*
X168487500Y-54010000D03*
X168487500Y-54410000D03*
X168487500Y-54810000D03*
X168487500Y-55210000D03*
X168487500Y-55610000D03*
D25*
X169325000Y-56447500D03*
X169725000Y-56447500D03*
X170125000Y-56447500D03*
X170525000Y-56447500D03*
X170925000Y-56447500D03*
X171325000Y-56447500D03*
X171725000Y-56447500D03*
X172125000Y-56447500D03*
X172525000Y-56447500D03*
X172925000Y-56447500D03*
X173325000Y-56447500D03*
X173725000Y-56447500D03*
X174125000Y-56447500D03*
X174525000Y-56447500D03*
D24*
X175362500Y-55610000D03*
X175362500Y-55210000D03*
X175362500Y-54810000D03*
X175362500Y-54410000D03*
X175362500Y-54010000D03*
X175362500Y-53610000D03*
X175362500Y-53210000D03*
X175362500Y-52810000D03*
X175362500Y-52410000D03*
X175362500Y-52010000D03*
X175362500Y-51610000D03*
X175362500Y-51210000D03*
X175362500Y-50810000D03*
X175362500Y-50410000D03*
D25*
X174525000Y-49572500D03*
X174125000Y-49572500D03*
X173725000Y-49572500D03*
X173325000Y-49572500D03*
X172925000Y-49572500D03*
X172525000Y-49572500D03*
X172125000Y-49572500D03*
X171725000Y-49572500D03*
X171325000Y-49572500D03*
X170925000Y-49572500D03*
X170525000Y-49572500D03*
X170125000Y-49572500D03*
X169725000Y-49572500D03*
X169325000Y-49572500D03*
%TD*%
D14*
%TO.C,Y1*%
X123810000Y-116260000D03*
X121610000Y-116260000D03*
X121610000Y-117960000D03*
X123810000Y-117960000D03*
%TD*%
D13*
%TO.C,R4*%
X178460000Y-42160000D03*
X177440000Y-42160000D03*
%TD*%
D18*
%TO.C,SW1*%
X150822500Y-65542500D03*
X150822500Y-61452500D03*
X152922500Y-65542500D03*
X152922500Y-61452500D03*
%TD*%
D30*
%TO.C,R10*%
X142460000Y-31900000D03*
X142460000Y-30880000D03*
%TD*%
D18*
%TO.C,SW1*%
X174322500Y-119542500D03*
X174322500Y-115452500D03*
X176422500Y-119542500D03*
X176422500Y-115452500D03*
%TD*%
D20*
%TO.C,R12*%
X165960000Y-82880000D03*
X165960000Y-83900000D03*
%TD*%
D18*
%TO.C,SW1*%
X127322500Y-65542500D03*
X127322500Y-61452500D03*
X129422500Y-65542500D03*
X129422500Y-61452500D03*
%TD*%
D15*
%TO.C,R8*%
X123000000Y-39520000D03*
X124020000Y-39520000D03*
%TD*%
D21*
%TO.C,U2*%
X144780000Y-99800000D03*
X144780000Y-100600000D03*
X145480000Y-99800000D03*
X145480000Y-100600000D03*
D22*
X143842500Y-99450000D03*
X143842500Y-99950000D03*
X143842500Y-100450000D03*
X143842500Y-100950000D03*
X146417500Y-100950000D03*
X146417500Y-100450000D03*
X146417500Y-99950000D03*
X146417500Y-99450000D03*
%TD*%
D11*
%TO.C,C1*%
X124390000Y-101000000D03*
X124390000Y-100040000D03*
%TD*%
D17*
%TO.C,D2*%
X145465000Y-34650000D03*
X144495000Y-34650000D03*
%TD*%
D12*
%TO.C,C2*%
X172210000Y-58980000D03*
X172210000Y-59940000D03*
%TD*%
D20*
%TO.C,R14*%
X147470000Y-89110000D03*
X147470000Y-90130000D03*
%TD*%
D28*
%TO.C,D3*%
X131150000Y-84227500D03*
X131150000Y-80927500D03*
%TD*%
D15*
%TO.C,R6*%
X166000000Y-88650000D03*
X167020000Y-88650000D03*
%TD*%
D30*
%TO.C,R13*%
X170000000Y-90130000D03*
X170000000Y-89110000D03*
%TD*%
%TO.C,R1*%
X149180000Y-98030000D03*
X149180000Y-97010000D03*
%TD*%
D12*
%TO.C,C6*%
X171240000Y-112970000D03*
X171240000Y-113930000D03*
%TD*%
D11*
%TO.C,C10*%
X131470000Y-48450000D03*
X131470000Y-47490000D03*
%TD*%
D14*
%TO.C,Y1*%
X123810000Y-62260000D03*
X121610000Y-62260000D03*
X121610000Y-63960000D03*
X123810000Y-63960000D03*
%TD*%
D12*
%TO.C,C14*%
X172370000Y-115830000D03*
X172370000Y-116790000D03*
%TD*%
D20*
%TO.C,R5*%
X152540000Y-97730000D03*
X152540000Y-98750000D03*
%TD*%
D14*
%TO.C,Y1*%
X147310000Y-116260000D03*
X145110000Y-116260000D03*
X145110000Y-117960000D03*
X147310000Y-117960000D03*
%TD*%
D10*
%TO.C,C15*%
X144930000Y-114830000D03*
X145890000Y-114830000D03*
%TD*%
D30*
%TO.C,R10*%
X165960000Y-31900000D03*
X165960000Y-30880000D03*
%TD*%
D31*
%TO.C,SW2*%
X170980000Y-97060000D03*
X166890000Y-97060000D03*
X170980000Y-94960000D03*
X166890000Y-94960000D03*
%TD*%
D15*
%TO.C,R6*%
X166000000Y-34650000D03*
X167020000Y-34650000D03*
%TD*%
D10*
%TO.C,C15*%
X144930000Y-60830000D03*
X145890000Y-60830000D03*
%TD*%
D12*
%TO.C,C6*%
X171240000Y-58970000D03*
X171240000Y-59930000D03*
%TD*%
D31*
%TO.C,SW2*%
X147480000Y-97060000D03*
X143390000Y-97060000D03*
X147480000Y-94960000D03*
X143390000Y-94960000D03*
%TD*%
D19*
%TO.C,F1*%
X178140000Y-31832500D03*
X178140000Y-33707500D03*
%TD*%
D13*
%TO.C,R15*%
X131600000Y-88960000D03*
X130580000Y-88960000D03*
%TD*%
D30*
%TO.C,R13*%
X170000000Y-36130000D03*
X170000000Y-35110000D03*
%TD*%
D11*
%TO.C,C12*%
X129580000Y-48780000D03*
X129580000Y-47820000D03*
%TD*%
%TO.C,C3*%
X150970000Y-102290000D03*
X150970000Y-101330000D03*
%TD*%
D12*
%TO.C,C7*%
X178090000Y-56080000D03*
X178090000Y-57040000D03*
%TD*%
D26*
%TO.C,J4*%
X128210000Y-32795000D03*
X127410000Y-32795000D03*
D27*
X126210000Y-32795000D03*
X125210000Y-32795000D03*
X124710000Y-32795000D03*
X123710000Y-32795000D03*
D26*
X122510000Y-32795000D03*
X121710000Y-32795000D03*
X121710000Y-32795000D03*
X122510000Y-32795000D03*
D27*
X123210000Y-32795000D03*
X124210000Y-32795000D03*
X125710000Y-32795000D03*
X126710000Y-32795000D03*
D26*
X127410000Y-32795000D03*
X128210000Y-32795000D03*
%TD*%
D12*
%TO.C,C7*%
X154590000Y-110080000D03*
X154590000Y-111040000D03*
%TD*%
D20*
%TO.C,R14*%
X123970000Y-89110000D03*
X123970000Y-90130000D03*
%TD*%
D10*
%TO.C,C15*%
X168430000Y-114830000D03*
X169390000Y-114830000D03*
%TD*%
D15*
%TO.C,R8*%
X146500000Y-93520000D03*
X147520000Y-93520000D03*
%TD*%
D30*
%TO.C,R2*%
X173870000Y-99320000D03*
X173870000Y-98300000D03*
%TD*%
D12*
%TO.C,C6*%
X124240000Y-58970000D03*
X124240000Y-59930000D03*
%TD*%
D21*
%TO.C,U2*%
X121280000Y-45800000D03*
X121280000Y-46600000D03*
X121980000Y-45800000D03*
X121980000Y-46600000D03*
D22*
X120342500Y-45450000D03*
X120342500Y-45950000D03*
X120342500Y-46450000D03*
X120342500Y-46950000D03*
X122917500Y-46950000D03*
X122917500Y-46450000D03*
X122917500Y-45950000D03*
X122917500Y-45450000D03*
%TD*%
D16*
%TO.C,C13*%
X166430000Y-54420000D03*
X165470000Y-54420000D03*
%TD*%
D20*
%TO.C,R5*%
X176040000Y-43730000D03*
X176040000Y-44750000D03*
%TD*%
D12*
%TO.C,C2*%
X125210000Y-58980000D03*
X125210000Y-59940000D03*
%TD*%
D20*
%TO.C,R11*%
X126260000Y-34520000D03*
X126260000Y-35540000D03*
%TD*%
D31*
%TO.C,SW2*%
X123980000Y-97060000D03*
X119890000Y-97060000D03*
X123980000Y-94960000D03*
X119890000Y-94960000D03*
%TD*%
D21*
%TO.C,U2*%
X168280000Y-45800000D03*
X168280000Y-46600000D03*
X168980000Y-45800000D03*
X168980000Y-46600000D03*
D22*
X167342500Y-45450000D03*
X167342500Y-45950000D03*
X167342500Y-46450000D03*
X167342500Y-46950000D03*
X169917500Y-46950000D03*
X169917500Y-46450000D03*
X169917500Y-45950000D03*
X169917500Y-45450000D03*
%TD*%
D16*
%TO.C,C16*%
X122760000Y-98260000D03*
X121800000Y-98260000D03*
%TD*%
D23*
%TO.C,U1*%
X124287500Y-106372500D03*
X124287500Y-107647500D03*
X125562500Y-106372500D03*
X125562500Y-107647500D03*
D24*
X121487500Y-104410000D03*
X121487500Y-104810000D03*
X121487500Y-105210000D03*
X121487500Y-105610000D03*
X121487500Y-106010000D03*
X121487500Y-106410000D03*
X121487500Y-106810000D03*
X121487500Y-107210000D03*
X121487500Y-107610000D03*
X121487500Y-108010000D03*
X121487500Y-108410000D03*
X121487500Y-108810000D03*
X121487500Y-109210000D03*
X121487500Y-109610000D03*
D25*
X122325000Y-110447500D03*
X122725000Y-110447500D03*
X123125000Y-110447500D03*
X123525000Y-110447500D03*
X123925000Y-110447500D03*
X124325000Y-110447500D03*
X124725000Y-110447500D03*
X125125000Y-110447500D03*
X125525000Y-110447500D03*
X125925000Y-110447500D03*
X126325000Y-110447500D03*
X126725000Y-110447500D03*
X127125000Y-110447500D03*
X127525000Y-110447500D03*
D24*
X128362500Y-109610000D03*
X128362500Y-109210000D03*
X128362500Y-108810000D03*
X128362500Y-108410000D03*
X128362500Y-108010000D03*
X128362500Y-107610000D03*
X128362500Y-107210000D03*
X128362500Y-106810000D03*
X128362500Y-106410000D03*
X128362500Y-106010000D03*
X128362500Y-105610000D03*
X128362500Y-105210000D03*
X128362500Y-104810000D03*
X128362500Y-104410000D03*
D25*
X127525000Y-103572500D03*
X127125000Y-103572500D03*
X126725000Y-103572500D03*
X126325000Y-103572500D03*
X125925000Y-103572500D03*
X125525000Y-103572500D03*
X125125000Y-103572500D03*
X124725000Y-103572500D03*
X124325000Y-103572500D03*
X123925000Y-103572500D03*
X123525000Y-103572500D03*
X123125000Y-103572500D03*
X122725000Y-103572500D03*
X122325000Y-103572500D03*
%TD*%
D15*
%TO.C,FB1*%
X174250000Y-89310000D03*
X175270000Y-89310000D03*
%TD*%
D20*
%TO.C,R3*%
X154880000Y-93960000D03*
X154880000Y-94980000D03*
%TD*%
D11*
%TO.C,C12*%
X153080000Y-48780000D03*
X153080000Y-47820000D03*
%TD*%
D13*
%TO.C,R7*%
X125080000Y-60870000D03*
X124060000Y-60870000D03*
%TD*%
D20*
%TO.C,R11*%
X149760000Y-34520000D03*
X149760000Y-35540000D03*
%TD*%
D28*
%TO.C,D3*%
X178150000Y-30227500D03*
X178150000Y-26927500D03*
%TD*%
D13*
%TO.C,R15*%
X155100000Y-88960000D03*
X154080000Y-88960000D03*
%TD*%
D31*
%TO.C,SW2*%
X147480000Y-43060000D03*
X143390000Y-43060000D03*
X147480000Y-40960000D03*
X143390000Y-40960000D03*
%TD*%
D29*
%TO.C,Q1*%
X119670000Y-93177500D03*
X121570000Y-93177500D03*
X120620000Y-90902500D03*
%TD*%
%TO.C,Q1*%
X143170000Y-39177500D03*
X145070000Y-39177500D03*
X144120000Y-36902500D03*
%TD*%
D20*
%TO.C,R3*%
X178380000Y-39960000D03*
X178380000Y-40980000D03*
%TD*%
D30*
%TO.C,R1*%
X172680000Y-44030000D03*
X172680000Y-43010000D03*
%TD*%
D12*
%TO.C,C2*%
X125210000Y-112980000D03*
X125210000Y-113940000D03*
%TD*%
D32*
%TO.C,D1*%
X153650000Y-43765000D03*
X153650000Y-44735000D03*
%TD*%
D20*
%TO.C,R12*%
X165960000Y-28880000D03*
X165960000Y-29900000D03*
%TD*%
D30*
%TO.C,R2*%
X126870000Y-99320000D03*
X126870000Y-98300000D03*
%TD*%
D12*
%TO.C,C7*%
X131090000Y-56080000D03*
X131090000Y-57040000D03*
%TD*%
D33*
%TO.C,U3*%
X129870000Y-37402500D03*
X128920000Y-37402500D03*
X127970000Y-37402500D03*
X127970000Y-39677500D03*
X129870000Y-39677500D03*
%TD*%
D20*
%TO.C,R5*%
X129040000Y-97730000D03*
X129040000Y-98750000D03*
%TD*%
D29*
%TO.C,Q1*%
X119670000Y-39177500D03*
X121570000Y-39177500D03*
X120620000Y-36902500D03*
%TD*%
D13*
%TO.C,R7*%
X148580000Y-60870000D03*
X147560000Y-60870000D03*
%TD*%
D30*
%TO.C,R1*%
X149180000Y-44030000D03*
X149180000Y-43010000D03*
%TD*%
D19*
%TO.C,F1*%
X178140000Y-85832500D03*
X178140000Y-87707500D03*
%TD*%
D11*
%TO.C,C17*%
X165940000Y-27880000D03*
X165940000Y-26920000D03*
%TD*%
D20*
%TO.C,R12*%
X118960000Y-28880000D03*
X118960000Y-29900000D03*
%TD*%
D16*
%TO.C,C8*%
X142930000Y-55400000D03*
X141970000Y-55400000D03*
%TD*%
%TO.C,C13*%
X142930000Y-108420000D03*
X141970000Y-108420000D03*
%TD*%
D15*
%TO.C,R9*%
X166750000Y-98260000D03*
X167770000Y-98260000D03*
%TD*%
D32*
%TO.C,D1*%
X177150000Y-97765000D03*
X177150000Y-98735000D03*
%TD*%
D26*
%TO.C,J4*%
X151710000Y-32795000D03*
X150910000Y-32795000D03*
D27*
X149710000Y-32795000D03*
X148710000Y-32795000D03*
X148210000Y-32795000D03*
X147210000Y-32795000D03*
D26*
X146010000Y-32795000D03*
X145210000Y-32795000D03*
X145210000Y-32795000D03*
X146010000Y-32795000D03*
D27*
X146710000Y-32795000D03*
X147710000Y-32795000D03*
X149210000Y-32795000D03*
X150210000Y-32795000D03*
D26*
X150910000Y-32795000D03*
X151710000Y-32795000D03*
%TD*%
D16*
%TO.C,C9*%
X143870000Y-48760000D03*
X142910000Y-48760000D03*
%TD*%
D11*
%TO.C,C11*%
X175530000Y-48330000D03*
X175530000Y-47370000D03*
%TD*%
D33*
%TO.C,U3*%
X176870000Y-37402500D03*
X175920000Y-37402500D03*
X174970000Y-37402500D03*
X174970000Y-39677500D03*
X176870000Y-39677500D03*
%TD*%
D13*
%TO.C,R15*%
X178600000Y-34960000D03*
X177580000Y-34960000D03*
%TD*%
D11*
%TO.C,C17*%
X142440000Y-27880000D03*
X142440000Y-26920000D03*
%TD*%
D23*
%TO.C,U1*%
X171287500Y-106372500D03*
X171287500Y-107647500D03*
X172562500Y-106372500D03*
X172562500Y-107647500D03*
D24*
X168487500Y-104410000D03*
X168487500Y-104810000D03*
X168487500Y-105210000D03*
X168487500Y-105610000D03*
X168487500Y-106010000D03*
X168487500Y-106410000D03*
X168487500Y-106810000D03*
X168487500Y-107210000D03*
X168487500Y-107610000D03*
X168487500Y-108010000D03*
X168487500Y-108410000D03*
X168487500Y-108810000D03*
X168487500Y-109210000D03*
X168487500Y-109610000D03*
D25*
X169325000Y-110447500D03*
X169725000Y-110447500D03*
X170125000Y-110447500D03*
X170525000Y-110447500D03*
X170925000Y-110447500D03*
X171325000Y-110447500D03*
X171725000Y-110447500D03*
X172125000Y-110447500D03*
X172525000Y-110447500D03*
X172925000Y-110447500D03*
X173325000Y-110447500D03*
X173725000Y-110447500D03*
X174125000Y-110447500D03*
X174525000Y-110447500D03*
D24*
X175362500Y-109610000D03*
X175362500Y-109210000D03*
X175362500Y-108810000D03*
X175362500Y-108410000D03*
X175362500Y-108010000D03*
X175362500Y-107610000D03*
X175362500Y-107210000D03*
X175362500Y-106810000D03*
X175362500Y-106410000D03*
X175362500Y-106010000D03*
X175362500Y-105610000D03*
X175362500Y-105210000D03*
X175362500Y-104810000D03*
X175362500Y-104410000D03*
D25*
X174525000Y-103572500D03*
X174125000Y-103572500D03*
X173725000Y-103572500D03*
X173325000Y-103572500D03*
X172925000Y-103572500D03*
X172525000Y-103572500D03*
X172125000Y-103572500D03*
X171725000Y-103572500D03*
X171325000Y-103572500D03*
X170925000Y-103572500D03*
X170525000Y-103572500D03*
X170125000Y-103572500D03*
X169725000Y-103572500D03*
X169325000Y-103572500D03*
%TD*%
D32*
%TO.C,D1*%
X130150000Y-43765000D03*
X130150000Y-44735000D03*
%TD*%
D20*
%TO.C,R14*%
X170970000Y-35110000D03*
X170970000Y-36130000D03*
%TD*%
D10*
%TO.C,C4*%
X176540000Y-49840000D03*
X177500000Y-49840000D03*
%TD*%
%TO.C,C4*%
X129540000Y-103840000D03*
X130500000Y-103840000D03*
%TD*%
D11*
%TO.C,C1*%
X171390000Y-47000000D03*
X171390000Y-46040000D03*
%TD*%
D15*
%TO.C,R9*%
X143250000Y-98260000D03*
X144270000Y-98260000D03*
%TD*%
D11*
%TO.C,C17*%
X118940000Y-81880000D03*
X118940000Y-80920000D03*
%TD*%
D30*
%TO.C,R13*%
X123000000Y-90130000D03*
X123000000Y-89110000D03*
%TD*%
D14*
%TO.C,Y1*%
X170810000Y-62260000D03*
X168610000Y-62260000D03*
X168610000Y-63960000D03*
X170810000Y-63960000D03*
%TD*%
D13*
%TO.C,R7*%
X172080000Y-60870000D03*
X171060000Y-60870000D03*
%TD*%
D15*
%TO.C,R6*%
X142500000Y-34650000D03*
X143520000Y-34650000D03*
%TD*%
D30*
%TO.C,R2*%
X126870000Y-45320000D03*
X126870000Y-44300000D03*
%TD*%
%TO.C,R1*%
X125680000Y-44030000D03*
X125680000Y-43010000D03*
%TD*%
D29*
%TO.C,Q1*%
X143170000Y-93177500D03*
X145070000Y-93177500D03*
X144120000Y-90902500D03*
%TD*%
D31*
%TO.C,SW2*%
X170980000Y-43060000D03*
X166890000Y-43060000D03*
X170980000Y-40960000D03*
X166890000Y-40960000D03*
%TD*%
D16*
%TO.C,C9*%
X120370000Y-102760000D03*
X119410000Y-102760000D03*
%TD*%
D11*
%TO.C,C5*%
X125660000Y-46060000D03*
X125660000Y-45100000D03*
%TD*%
D16*
%TO.C,C9*%
X120370000Y-48760000D03*
X119410000Y-48760000D03*
%TD*%
D13*
%TO.C,R7*%
X172080000Y-114870000D03*
X171060000Y-114870000D03*
%TD*%
D11*
%TO.C,C19*%
X123980000Y-99100000D03*
X123980000Y-98140000D03*
%TD*%
D15*
%TO.C,R8*%
X170000000Y-39520000D03*
X171020000Y-39520000D03*
%TD*%
D12*
%TO.C,C6*%
X147740000Y-58970000D03*
X147740000Y-59930000D03*
%TD*%
D11*
%TO.C,C19*%
X123980000Y-45100000D03*
X123980000Y-44140000D03*
%TD*%
%TO.C,C11*%
X128530000Y-102330000D03*
X128530000Y-101370000D03*
%TD*%
D20*
%TO.C,R12*%
X118960000Y-82880000D03*
X118960000Y-83900000D03*
%TD*%
D30*
%TO.C,R10*%
X165960000Y-85900000D03*
X165960000Y-84880000D03*
%TD*%
%TO.C,R2*%
X173870000Y-45320000D03*
X173870000Y-44300000D03*
%TD*%
D10*
%TO.C,C15*%
X168430000Y-60830000D03*
X169390000Y-60830000D03*
%TD*%
D16*
%TO.C,C16*%
X146260000Y-44260000D03*
X145300000Y-44260000D03*
%TD*%
D11*
%TO.C,C12*%
X176580000Y-48780000D03*
X176580000Y-47820000D03*
%TD*%
D30*
%TO.C,R10*%
X142460000Y-85900000D03*
X142460000Y-84880000D03*
%TD*%
D12*
%TO.C,C7*%
X131090000Y-110080000D03*
X131090000Y-111040000D03*
%TD*%
D11*
%TO.C,C19*%
X147480000Y-99100000D03*
X147480000Y-98140000D03*
%TD*%
D32*
%TO.C,D1*%
X153650000Y-97765000D03*
X153650000Y-98735000D03*
%TD*%
D11*
%TO.C,C5*%
X125660000Y-100060000D03*
X125660000Y-99100000D03*
%TD*%
D12*
%TO.C,C6*%
X147740000Y-112970000D03*
X147740000Y-113930000D03*
%TD*%
D20*
%TO.C,R3*%
X131380000Y-93960000D03*
X131380000Y-94980000D03*
%TD*%
D16*
%TO.C,C8*%
X119430000Y-109400000D03*
X118470000Y-109400000D03*
%TD*%
D33*
%TO.C,U3*%
X129870000Y-91402500D03*
X128920000Y-91402500D03*
X127970000Y-91402500D03*
X127970000Y-93677500D03*
X129870000Y-93677500D03*
%TD*%
D16*
%TO.C,C8*%
X119430000Y-55400000D03*
X118470000Y-55400000D03*
%TD*%
D10*
%TO.C,C4*%
X176540000Y-103840000D03*
X177500000Y-103840000D03*
%TD*%
D15*
%TO.C,FB1*%
X127250000Y-89310000D03*
X128270000Y-89310000D03*
%TD*%
D19*
%TO.C,F1*%
X154640000Y-31832500D03*
X154640000Y-33707500D03*
%TD*%
D17*
%TO.C,D2*%
X121965000Y-88650000D03*
X120995000Y-88650000D03*
%TD*%
D30*
%TO.C,R1*%
X125680000Y-98030000D03*
X125680000Y-97010000D03*
%TD*%
%TO.C,R13*%
X146500000Y-90130000D03*
X146500000Y-89110000D03*
%TD*%
D17*
%TO.C,D2*%
X145465000Y-88650000D03*
X144495000Y-88650000D03*
%TD*%
D30*
%TO.C,R13*%
X146500000Y-36130000D03*
X146500000Y-35110000D03*
%TD*%
D15*
%TO.C,FB1*%
X150750000Y-89310000D03*
X151770000Y-89310000D03*
%TD*%
D30*
%TO.C,R10*%
X118960000Y-31900000D03*
X118960000Y-30880000D03*
%TD*%
D15*
%TO.C,FB1*%
X150750000Y-35310000D03*
X151770000Y-35310000D03*
%TD*%
D11*
%TO.C,C10*%
X178470000Y-102450000D03*
X178470000Y-101490000D03*
%TD*%
D32*
%TO.C,D1*%
X130150000Y-97765000D03*
X130150000Y-98735000D03*
%TD*%
D12*
%TO.C,C2*%
X148710000Y-58980000D03*
X148710000Y-59940000D03*
%TD*%
D20*
%TO.C,R12*%
X142460000Y-28880000D03*
X142460000Y-29900000D03*
%TD*%
%TO.C,R11*%
X173260000Y-88520000D03*
X173260000Y-89540000D03*
%TD*%
D31*
%TO.C,SW2*%
X123980000Y-43060000D03*
X119890000Y-43060000D03*
X123980000Y-40960000D03*
X119890000Y-40960000D03*
%TD*%
D26*
%TO.C,J4*%
X128210000Y-86795000D03*
X127410000Y-86795000D03*
D27*
X126210000Y-86795000D03*
X125210000Y-86795000D03*
X124710000Y-86795000D03*
X123710000Y-86795000D03*
D26*
X122510000Y-86795000D03*
X121710000Y-86795000D03*
X121710000Y-86795000D03*
X122510000Y-86795000D03*
D27*
X123210000Y-86795000D03*
X124210000Y-86795000D03*
X125710000Y-86795000D03*
X126710000Y-86795000D03*
D26*
X127410000Y-86795000D03*
X128210000Y-86795000D03*
%TD*%
D30*
%TO.C,R1*%
X172680000Y-98030000D03*
X172680000Y-97010000D03*
%TD*%
D15*
%TO.C,R8*%
X123000000Y-93520000D03*
X124020000Y-93520000D03*
%TD*%
D33*
%TO.C,U3*%
X176870000Y-91402500D03*
X175920000Y-91402500D03*
X174970000Y-91402500D03*
X174970000Y-93677500D03*
X176870000Y-93677500D03*
%TD*%
D11*
%TO.C,C5*%
X149160000Y-100060000D03*
X149160000Y-99100000D03*
%TD*%
D23*
%TO.C,U1*%
X124287500Y-52372500D03*
X124287500Y-53647500D03*
X125562500Y-52372500D03*
X125562500Y-53647500D03*
D24*
X121487500Y-50410000D03*
X121487500Y-50810000D03*
X121487500Y-51210000D03*
X121487500Y-51610000D03*
X121487500Y-52010000D03*
X121487500Y-52410000D03*
X121487500Y-52810000D03*
X121487500Y-53210000D03*
X121487500Y-53610000D03*
X121487500Y-54010000D03*
X121487500Y-54410000D03*
X121487500Y-54810000D03*
X121487500Y-55210000D03*
X121487500Y-55610000D03*
D25*
X122325000Y-56447500D03*
X122725000Y-56447500D03*
X123125000Y-56447500D03*
X123525000Y-56447500D03*
X123925000Y-56447500D03*
X124325000Y-56447500D03*
X124725000Y-56447500D03*
X125125000Y-56447500D03*
X125525000Y-56447500D03*
X125925000Y-56447500D03*
X126325000Y-56447500D03*
X126725000Y-56447500D03*
X127125000Y-56447500D03*
X127525000Y-56447500D03*
D24*
X128362500Y-55610000D03*
X128362500Y-55210000D03*
X128362500Y-54810000D03*
X128362500Y-54410000D03*
X128362500Y-54010000D03*
X128362500Y-53610000D03*
X128362500Y-53210000D03*
X128362500Y-52810000D03*
X128362500Y-52410000D03*
X128362500Y-52010000D03*
X128362500Y-51610000D03*
X128362500Y-51210000D03*
X128362500Y-50810000D03*
X128362500Y-50410000D03*
D25*
X127525000Y-49572500D03*
X127125000Y-49572500D03*
X126725000Y-49572500D03*
X126325000Y-49572500D03*
X125925000Y-49572500D03*
X125525000Y-49572500D03*
X125125000Y-49572500D03*
X124725000Y-49572500D03*
X124325000Y-49572500D03*
X123925000Y-49572500D03*
X123525000Y-49572500D03*
X123125000Y-49572500D03*
X122725000Y-49572500D03*
X122325000Y-49572500D03*
%TD*%
D16*
%TO.C,C16*%
X122760000Y-44260000D03*
X121800000Y-44260000D03*
%TD*%
D11*
%TO.C,C5*%
X172660000Y-46060000D03*
X172660000Y-45100000D03*
%TD*%
D20*
%TO.C,R5*%
X129040000Y-43730000D03*
X129040000Y-44750000D03*
%TD*%
D12*
%TO.C,C14*%
X148870000Y-61830000D03*
X148870000Y-62790000D03*
%TD*%
D14*
%TO.C,Y1*%
X147310000Y-62260000D03*
X145110000Y-62260000D03*
X145110000Y-63960000D03*
X147310000Y-63960000D03*
%TD*%
D12*
%TO.C,C14*%
X125370000Y-61830000D03*
X125370000Y-62790000D03*
%TD*%
D15*
%TO.C,R9*%
X119750000Y-98260000D03*
X120770000Y-98260000D03*
%TD*%
D11*
%TO.C,C10*%
X154970000Y-48450000D03*
X154970000Y-47490000D03*
%TD*%
D28*
%TO.C,D3*%
X154650000Y-84227500D03*
X154650000Y-80927500D03*
%TD*%
D16*
%TO.C,C8*%
X166430000Y-109400000D03*
X165470000Y-109400000D03*
%TD*%
D10*
%TO.C,C4*%
X153040000Y-49840000D03*
X154000000Y-49840000D03*
%TD*%
D11*
%TO.C,C17*%
X165940000Y-81880000D03*
X165940000Y-80920000D03*
%TD*%
D16*
%TO.C,C9*%
X167370000Y-102760000D03*
X166410000Y-102760000D03*
%TD*%
D15*
%TO.C,R9*%
X143250000Y-44260000D03*
X144270000Y-44260000D03*
%TD*%
D13*
%TO.C,R4*%
X131460000Y-42160000D03*
X130440000Y-42160000D03*
%TD*%
D11*
%TO.C,C5*%
X149160000Y-46060000D03*
X149160000Y-45100000D03*
%TD*%
D16*
%TO.C,C9*%
X143870000Y-102760000D03*
X142910000Y-102760000D03*
%TD*%
%TO.C,C13*%
X166430000Y-108420000D03*
X165470000Y-108420000D03*
%TD*%
D11*
%TO.C,C10*%
X154970000Y-102450000D03*
X154970000Y-101490000D03*
%TD*%
D10*
%TO.C,C15*%
X121430000Y-60830000D03*
X122390000Y-60830000D03*
%TD*%
D20*
%TO.C,R5*%
X152540000Y-43730000D03*
X152540000Y-44750000D03*
%TD*%
D11*
%TO.C,C3*%
X127470000Y-48290000D03*
X127470000Y-47330000D03*
%TD*%
D16*
%TO.C,C8*%
X142930000Y-109400000D03*
X141970000Y-109400000D03*
%TD*%
%TO.C,C13*%
X119430000Y-54420000D03*
X118470000Y-54420000D03*
%TD*%
D11*
%TO.C,C17*%
X118940000Y-27880000D03*
X118940000Y-26920000D03*
%TD*%
D20*
%TO.C,R11*%
X126260000Y-88520000D03*
X126260000Y-89540000D03*
%TD*%
D15*
%TO.C,R6*%
X119000000Y-34650000D03*
X120020000Y-34650000D03*
%TD*%
D30*
%TO.C,R10*%
X118960000Y-85900000D03*
X118960000Y-84880000D03*
%TD*%
D13*
%TO.C,R4*%
X178460000Y-96160000D03*
X177440000Y-96160000D03*
%TD*%
D12*
%TO.C,C7*%
X154590000Y-56080000D03*
X154590000Y-57040000D03*
%TD*%
D32*
%TO.C,D1*%
X177150000Y-43765000D03*
X177150000Y-44735000D03*
%TD*%
D26*
%TO.C,J4*%
X175210000Y-32795000D03*
X174410000Y-32795000D03*
D27*
X173210000Y-32795000D03*
X172210000Y-32795000D03*
X171710000Y-32795000D03*
X170710000Y-32795000D03*
D26*
X169510000Y-32795000D03*
X168710000Y-32795000D03*
X168710000Y-32795000D03*
X169510000Y-32795000D03*
D27*
X170210000Y-32795000D03*
X171210000Y-32795000D03*
X172710000Y-32795000D03*
X173710000Y-32795000D03*
D26*
X174410000Y-32795000D03*
X175210000Y-32795000D03*
%TD*%
D18*
%TO.C,SW1*%
X127322500Y-119542500D03*
X127322500Y-115452500D03*
X129422500Y-119542500D03*
X129422500Y-115452500D03*
%TD*%
D26*
%TO.C,J4*%
X151710000Y-86795000D03*
X150910000Y-86795000D03*
D27*
X149710000Y-86795000D03*
X148710000Y-86795000D03*
X148210000Y-86795000D03*
X147210000Y-86795000D03*
D26*
X146010000Y-86795000D03*
X145210000Y-86795000D03*
X145210000Y-86795000D03*
X146010000Y-86795000D03*
D27*
X146710000Y-86795000D03*
X147710000Y-86795000D03*
X149210000Y-86795000D03*
X150210000Y-86795000D03*
D26*
X150910000Y-86795000D03*
X151710000Y-86795000D03*
%TD*%
D17*
%TO.C,D2*%
X168965000Y-34650000D03*
X167995000Y-34650000D03*
%TD*%
D20*
%TO.C,R3*%
X154880000Y-39960000D03*
X154880000Y-40980000D03*
%TD*%
D28*
%TO.C,D3*%
X178150000Y-84227500D03*
X178150000Y-80927500D03*
%TD*%
D15*
%TO.C,FB1*%
X174250000Y-35310000D03*
X175270000Y-35310000D03*
%TD*%
D16*
%TO.C,C8*%
X166430000Y-55400000D03*
X165470000Y-55400000D03*
%TD*%
D20*
%TO.C,R11*%
X173260000Y-34520000D03*
X173260000Y-35540000D03*
%TD*%
D11*
%TO.C,C17*%
X142440000Y-81880000D03*
X142440000Y-80920000D03*
%TD*%
D20*
%TO.C,R12*%
X142460000Y-82880000D03*
X142460000Y-83900000D03*
%TD*%
D11*
%TO.C,C11*%
X175530000Y-102330000D03*
X175530000Y-101370000D03*
%TD*%
%TO.C,C12*%
X153080000Y-102780000D03*
X153080000Y-101820000D03*
%TD*%
D20*
%TO.C,R14*%
X147470000Y-35110000D03*
X147470000Y-36130000D03*
%TD*%
D12*
%TO.C,C14*%
X148870000Y-115830000D03*
X148870000Y-116790000D03*
%TD*%
D30*
%TO.C,R2*%
X150370000Y-45320000D03*
X150370000Y-44300000D03*
%TD*%
D33*
%TO.C,U3*%
X153370000Y-37402500D03*
X152420000Y-37402500D03*
X151470000Y-37402500D03*
X151470000Y-39677500D03*
X153370000Y-39677500D03*
%TD*%
D13*
%TO.C,R15*%
X131600000Y-34960000D03*
X130580000Y-34960000D03*
%TD*%
D11*
%TO.C,C19*%
X147480000Y-45100000D03*
X147480000Y-44140000D03*
%TD*%
D16*
%TO.C,C13*%
X119430000Y-108420000D03*
X118470000Y-108420000D03*
%TD*%
D29*
%TO.C,Q1*%
X166670000Y-39177500D03*
X168570000Y-39177500D03*
X167620000Y-36902500D03*
%TD*%
D13*
%TO.C,R4*%
X131460000Y-96160000D03*
X130440000Y-96160000D03*
%TD*%
D15*
%TO.C,R9*%
X119750000Y-44260000D03*
X120770000Y-44260000D03*
%TD*%
D30*
%TO.C,R13*%
X123000000Y-36130000D03*
X123000000Y-35110000D03*
%TD*%
D17*
%TO.C,D2*%
X121965000Y-34650000D03*
X120995000Y-34650000D03*
%TD*%
D12*
%TO.C,C14*%
X125370000Y-115830000D03*
X125370000Y-116790000D03*
%TD*%
D28*
%TO.C,D3*%
X154650000Y-30227500D03*
X154650000Y-26927500D03*
%TD*%
D12*
%TO.C,C2*%
X148710000Y-112980000D03*
X148710000Y-113940000D03*
%TD*%
D13*
%TO.C,R15*%
X178600000Y-88960000D03*
X177580000Y-88960000D03*
%TD*%
D33*
%TO.C,U3*%
X153370000Y-91402500D03*
X152420000Y-91402500D03*
X151470000Y-91402500D03*
X151470000Y-93677500D03*
X153370000Y-93677500D03*
%TD*%
D11*
%TO.C,C11*%
X152030000Y-102330000D03*
X152030000Y-101370000D03*
%TD*%
D13*
%TO.C,R4*%
X154960000Y-42160000D03*
X153940000Y-42160000D03*
%TD*%
D21*
%TO.C,U2*%
X121280000Y-99800000D03*
X121280000Y-100600000D03*
X121980000Y-99800000D03*
X121980000Y-100600000D03*
D22*
X120342500Y-99450000D03*
X120342500Y-99950000D03*
X120342500Y-100450000D03*
X120342500Y-100950000D03*
X122917500Y-100950000D03*
X122917500Y-100450000D03*
X122917500Y-99950000D03*
X122917500Y-99450000D03*
%TD*%
D19*
%TO.C,F1*%
X131140000Y-31832500D03*
X131140000Y-33707500D03*
%TD*%
D20*
%TO.C,R14*%
X123970000Y-35110000D03*
X123970000Y-36130000D03*
%TD*%
M02*
